<svg width="1440" height="480" viewBox="0 0 1440 480" fill="none" xmlns="http://www.w3.org/2000/svg">
<path fill-rule="evenodd" clip-rule="evenodd" d="M1270.64 9.08085H1274.06V18.3463H1273V27.4271H1272.13V36.3243H1276.53V45.5897H1276.3V54.486H1282.14V45.4051H1282.23V54.486H1290.52V63.7514H1289.6V72.8332H1289.02V81.7294H1304.27V90.9949H1296.81V99.8911H1298.76V109.157H1293.83V99.8911H1295.79V90.9949H1288.32V81.914H1282.4V90.9949H1281.97V81.914H1276.36V90.9949H1275.52V99.8911H1290.86V109.157H1275.71V118.054H1276.57V127.135H1280.77V118.054H1283.6V127.135H1295.51V118.054H1297.09V127.135H1302.25V118.054H1303.57V108.973H1309.08V99.8911H1310.14V90.8103H1310.15V81.7294H1310.31V63.5677H1310.37V54.486H1310.46V63.5677H1310.51V81.7294H1310.67V90.8103H1310.68V99.8911H1311.75V108.973H1317.26V118.054H1318.58V127.319H1311.26V136.215H1314.13V145.481H1306.69V136.215H1309.56V127.319H1304.66V136.4H1304.49V145.297H1304.91V154.378H1318.98V163.643H1318.93V181.621H1319.55V172.724H1319.29V163.459H1324.21V154.563H1323.9V145.297H1324.14V136.4H1323.69V127.135H1325.36V136.4H1324.91V145.297H1325.15V154.563H1324.84V163.459H1329.76V172.724H1329.5V181.621H1332.2V190.702H1337.46V181.621H1337.55V172.54H1338.11V163.643H1337.96V154.378H1338.03V145.481H1337.95V136.4H1337.88V127.135H1338.49V118.054H1338.56V109.157H1338.47V100.076H1338.43V90.8103H1338.57V81.7294H1338.62V72.6486H1338.66V81.7294H1338.71V90.8103H1338.85V100.076H1338.81V109.157H1338.72V118.054H1338.79V127.135H1339.4V136.4H1339.33V145.481H1339.25V154.378H1339.32V163.643H1339.17V172.54H1339.73V181.621H1339.82V190.702H1351.49V181.621H1351.62V172.54H1351.8V163.459H1351.98V154.378H1352.12V145.481H1352.04V136.4H1351.97V127.135H1352.61V118.054H1352.63V109.157H1352.56V100.076H1352.52V90.8103H1352.67V81.7294H1352.71V72.6486H1352.73V54.486H1352.77V72.6486H1352.8V81.7294H1352.83V90.8103H1352.99V100.076H1352.94V109.157H1352.88V118.054H1352.9V127.135H1353.53V136.4H1353.46V145.481H1353.38V154.378H1353.52V163.459H1353.7V172.54H1353.88V181.621H1354.02V190.702H1360.32V199.968H1355.01V208.864H1356.66V217.945H1358.87V227.027H1360.57V217.945H1363.27V208.864H1363.28V199.783H1365.98V190.887H1365.64V181.621H1365.86V172.54H1365.91V163.459H1366.07V154.378H1366.17V145.481H1366.07V136.215H1366.08V127.135H1366.72V118.054H1366.74V109.157H1366.67V90.8103H1366.8V72.6486H1366.82V63.5677H1366.84V54.486H1366.89V63.5677H1366.91V72.6486H1366.93V90.8103H1367.06V109.157H1366.99V118.054H1367.01V127.135H1367.65V136.215H1367.66V145.481H1367.57V154.378H1367.66V163.459H1367.82V172.54H1367.87V181.621H1368.09V190.887H1367.75V199.783H1370.45V208.864H1370.46V217.945H1373.16V227.21H1371.09V236.107H1372.58V254.269H1375.23V245.188H1375.26V236.107H1376.54V227.027H1377.22V218.129H1377.02V208.864H1377.14V199.783H1379.63V190.702H1379.9V181.805H1379.85V172.54H1380.03V163.459H1380.19V154.378H1380.3V145.481H1380.14V136.215H1380.2V127.135H1380.79V118.054H1380.81V100.076H1380.71V90.8103H1380.91V72.6486H1380.93V63.5677H1380.96V54.486H1381V63.5677H1381.02V72.6486H1381.05V90.8103H1381.25V100.076H1381.15V118.054H1381.17V127.135H1381.76V136.215H1381.82V145.481H1381.66V154.378H1381.77V163.459H1381.93V172.54H1382.11V181.805H1382.05V190.702H1382.33V199.783H1384.82V208.864H1384.93V218.129H1384.74V227.027H1385.42V236.107H1386.7V245.188H1386.73V254.269H1389.26V245.188H1389.32V236.107H1390.89V227.027H1391.11V217.945H1391.18V209.049H1391.17V199.783H1393.39V190.702H1393.96V181.621H1394.02V172.54H1394.09V163.459H1394.39V154.378H1394.49V145.481H1394.3V136.215H1394.46V127.135H1394.97V118.238H1394.88V108.973H1394.9V100.076H1394.88V90.8103H1395.03V63.5677H1395.16V90.8103H1395.31V100.076H1395.29V108.973H1395.31V118.238H1395.22V127.135H1395.73V136.215H1395.89V145.481H1395.69V154.378H1395.79V163.459H1396.1V172.54H1396.17V181.621H1396.22V190.702H1396.8V199.783H1399.01V209.049H1399V217.945H1399.07V227.027H1399.3V236.107H1400.87V245.188H1400.92V254.454H1400.69V263.351H1401.01V272.616H1400.96V281.513H1401.14V290.778H1401.04V299.674H1402.54V290.593H1403.18V281.513H1403.34V263.351H1403.38V254.454H1403.31V245.373H1403.24V236.107H1405.25V227.027H1405.3V209.049H1405.24V199.783H1405.87V190.702H1408.18V181.621H1408.32V172.724H1408.13V163.459H1408.51V154.378H1408.55V145.481H1408.37V136.215H1408.4V127.135H1409.1V118.238H1408.95V108.973H1408.99V99.8911H1409.06V90.8103H1409.14V63.5677H1409.18V54.486H1409.23V63.5677H1409.27V90.8103H1409.35V99.8911H1409.42V108.973H1409.47V118.238H1409.31V127.135H1410.01V136.215H1410.04V145.481H1409.86V154.378H1409.91V163.459H1410.28V172.724H1410.09V181.621H1410.24V190.702H1412.54V199.783H1413.17V209.049H1413.12V227.027H1413.16V236.107H1415.17V245.373H1415.1V254.454H1415.04V263.351H1415.07V281.513H1415.23V290.593H1415.87V299.859H1415.48V308.756H1415.74V317.837H1415.96V327.102H1415.77V335.999H1416.76V326.918H1416.89V317.837H1416.91V308.94H1416.87V299.674H1417.25V290.593H1417.33V281.513H1417.46V272.432H1417.52V263.351H1417.54V254.454H1417.42V236.107H1419.36V227.027H1419.41V209.049H1419.26V199.783H1419.53V190.702H1422.31V181.621H1422.44V172.724H1422.37V163.459H1422.62V145.481H1422.48V136.215H1422.52V127.135H1423.2V118.238H1423.05V108.973H1423.11V99.8911H1423.25V63.5677H1423.3V54.486H1423.34V63.5677H1423.39V99.8911H1423.53V108.973H1423.59V118.238H1423.44V127.135H1424.12V136.215H1424.16V145.481H1424.02V163.459H1424.27V172.724H1424.2V181.621H1424.33V190.702H1427.1V199.783H1427.38V209.049H1427.23V227.027H1427.27V236.107H1429.22V254.454H1429.1V263.351H1429.12V272.432H1429.18V281.513H1429.31V290.593H1429.39V299.674H1429.77V308.94H1429.73V317.837H1429.75V326.918H1429.88V335.999H1429.94V345.08H1430.1V354.346H1430.06V363.242H1430.08V372.323H1430.24V381.404H1430.38V372.323H1430.71V363.242H1430.75V354.161H1430.81V345.08H1430.88V336.183H1430.81V326.918H1430.94V317.837H1431.07V308.756H1431.1V299.674H1431.42V290.593H1431.46V281.513H1431.51V272.432H1431.57V263.351H1431.6V254.269H1431.66V245.188H1431.69V236.107H1433.25V227.027H1433.48V218.129H1433.46V208.864H1433.57V199.783H1434.1V190.702H1436.53V181.621H1436.65V172.724H1436.6V163.459H1436.73V154.563H1436.62V136.4H1436.55V127.135H1437.22V118.238H1437.12V108.973H1437.24V99.8911H1437.35V90.9949H1437.33V81.7294H1437.35V63.5677H1437.39V54.486H1437.48V63.5677H1437.51V81.7294H1437.53V90.9949H1437.51V99.8911H1437.62V108.973H1437.75V118.238H1437.65V127.135H1438.32V136.4H1438.25V154.563H1438.13V163.459H1438.27V172.724H1438.21V181.621H1438.34V190.702H1440V480H0V254.269H0.541406V263.351H0.563906V272.432H0.653906V281.513H0.947813V290.593H2.47219V299.674H2.72109V308.756H2.91234V317.837H3.105V326.918H3.24V335.999H3.36516V345.08H3.42141V354.161H3.55641V363.242H3.60141V372.323H3.85031V381.404H3.90656V390.485H4.15547V399.566H4.31297V408.647H4.34672V417.728H5.03859V408.647H5.3325V399.566H5.61516V390.485H5.84156V381.404H6.25922V372.507H6.13406V363.242H6.28172V354.161H6.34922V345.08H6.47297V335.999H6.59813V326.918H6.66563V317.837H6.99328V308.756H7.04953V299.674H7.29844V290.593H9.10547V281.697H8.99156V272.432H9.20672V263.351H9.22922V254.269H9.86203V245.188H9.99703V236.107H10.0983V227.027H11.0138V217.945H11.025V208.864H11.1713V199.783H11.7605V190.887H11.7155V181.621H11.7605V163.459H11.7844V154.378H11.8069V145.297H12.1458V154.378H12.1683V163.459H12.1908V181.621H12.2358V190.887H12.1908V199.783H12.78V208.864H12.9263V217.945H12.9375V227.027H13.853V236.107H13.9542V245.188H14.0892V254.269H14.722V263.351H14.7445V272.432H14.9597V281.697H14.8472V290.593H16.6542V299.674H16.9017V308.756H16.958V317.837H17.2856V326.918H17.3531V335.999H17.4783V345.08H17.602V354.161H17.6695V363.242H17.8172V372.507H17.692V381.404H18.1111V390.485H18.3361V399.566H18.6188V408.647H19.2431V399.566H20.0447V390.485H20.1684V381.404H20.2373V372.507H20.2247V363.242H20.3498V354.161H20.4848V345.08H20.5298V335.999H20.655V326.918H20.8463V317.837H21.1064V308.756H21.2302V299.674H21.2864V290.593H22.5408V281.513H23.0934V272.432H23.2523V263.351H23.4098V254.269H23.9189V245.188H23.9752V236.107H24.2128V227.027H25.1044V217.945H25.1944V208.864H25.3884V199.783H25.8525V190.887H25.8188V181.621H25.8975V172.724H25.83V163.459H25.875V154.378H25.92V145.297H26.2589V154.378H26.3039V163.459H26.3489V172.724H26.2814V181.621H26.3602V190.887H26.3264V199.783H26.7891V208.864H26.9831V217.945H27.0745V227.027H27.9661V236.107H28.2038V245.188H28.26V254.269H28.7677V263.351H28.9266V272.432H29.0841V281.513H29.6381V290.593H30.8911V299.674H30.9473V308.756H31.0725V317.837H31.3313V326.918H31.5239V335.999H31.6477V345.08H31.6927V354.161H31.8291V363.242H31.9528V372.323H34.5192V363.242H34.7456V354.346H34.553V345.08H34.5755V335.999H34.7006V326.918H34.9594V317.837H35.2195V308.756H35.3447V299.674H35.4572V290.593H36.4852V281.513H37.1742V272.432H37.2417V263.351H37.388V254.269H37.9645V245.188H38.2809V236.107H38.3709V227.027H39.105V217.945H39.3539V208.864H39.3764V199.783H39.9094V190.702H39.9319V181.621H39.9881V163.459H40.0556V145.297H40.3495V163.459H40.417V181.621H40.4733V190.702H40.4958V199.783H41.0288V208.864H41.0513V217.945H41.3002V227.027H42.0342V236.107H42.1242V245.188H42.4406V254.269H43.0172V263.351H43.1634V272.432H43.2309V281.513H43.92V290.593H44.948V299.674H45.0605V308.756H45.1856V317.837H45.4458V326.918H45.7045V335.999H45.8297V345.08H45.8522V354.161H49.1414V345.264H45.855V335.999H48.9038V327.102H46.1489V317.837H49.3327V308.94H49.1977V299.674H49.4691V290.593H50.4858V281.513H51.3211V272.432H51.3661V263.351H51.795V254.269H52.0777V245.188H52.3491V236.107H52.3941V227.027H53.2406V217.945H53.4558V208.864H53.467V199.783H54.0225V190.702H54.1013V181.621H54.1238V172.724H54.1013V163.643H54.0788V154.378H54.1013V145.297H54.5302V154.378H54.5527V163.643H54.5302V172.724H54.5077V181.621H54.5302V190.702H54.6103V199.783H55.1658V208.864H55.177V217.945H55.3908V227.027H56.2388V236.107H56.2838V245.188H56.5538V254.269H56.8364V263.351H57.2653V272.432H57.3117V281.513H58.147V290.593H59.1638V299.674H59.4338V308.94H59.2988V317.837H62.0016V308.756H62.3742V299.859H60.4308V290.593H63.1083V281.513H64.6777V272.432H65.7956V263.535H62.2941V254.269H65.2767V245.188H66.4622V236.107H66.5072V227.027H67.5464V218.129H67.5014V208.864H67.5352V199.783H68.0681V190.702H68.1919V181.805H68.1694V172.54H68.2144V154.378H68.2833V145.297H68.5758V154.378H68.6447V172.54H68.6897V181.805H68.6672V190.702H68.7909V199.783H69.3239V208.864H69.3577V218.129H69.3127V227.027H70.3519V236.107H70.3969V245.188H71.5823V254.269H74.5636V263.535H71.0634V272.432H72.1814V281.513H73.7508V290.593H74.7478V281.513H75.0305V272.432H80.1914V263.535H74.7703V254.269H80.2814V245.188H80.903V236.292H80.7567V227.027H81.4683V217.945H81.682V209.049H81.6483V199.783H82.2038V190.702H82.2825V181.621H82.3289V154.378H82.7578V181.621H82.8028V190.702H82.8816V199.783H83.437V209.049H83.4033V217.945H83.6184V227.027H84.33V236.292H84.1823V245.188H84.8039V254.269H90.315V263.535H84.8939V272.432H90.0563V281.513H90.3375V290.593H92.52V281.513H93.6155V272.616H93.593V263.351H93.8306V254.269H94.327V245.188H94.5084V236.107H94.8473V227.027H95.5927V218.129H95.5814V208.864H95.7389V199.783H96.2719V190.702H96.4645V181.805H96.442V172.724H96.4195V163.459H96.442V154.378H96.8709V163.459H96.8934V172.724H96.8709V181.805H96.8484V190.702H97.0397V199.783H97.5727V208.864H97.7316V218.129H97.7203V227.027H98.4656V236.107H98.8045V245.188H98.9845V254.269H99.4823V263.351H99.7186V272.616H99.6961V281.513H100.792V290.593H103.604V299.674H103.8V290.593H106.59V281.513H107.741V272.432H107.854V263.535H103.099V254.269H108.384V245.188H108.577V236.107H109.288V227.027H109.91V218.129H109.876V209.049H109.842V199.783H110.431V190.702H110.499V172.54H110.533V163.643H110.476V154.378H111.063V163.643H111.007V172.54H111.04V190.702H111.109V199.783H111.698V209.049H111.665V218.129H111.631V227.027H112.251V236.107H112.963V245.188H113.155V254.269H122.396V245.373H117.246V236.292H117.055V227.027H120.624V218.129H119.132V208.864H119.28V199.783H124.838V190.887H124.59V181.621H124.646V172.54H124.691V163.459H125.075V172.54H125.121V181.621H125.177V190.887H124.928V199.783H130.487V208.864H131.552V199.968H130.49V190.702H138.59V181.621H138.85V172.54H139.143V181.621H139.403V190.702H158.615V181.805H144.682V172.724H144.66V163.459H146.919V154.378H150.047V145.481H145.405V136.215H150.85V127.319H148.816V118.054H157.404V127.319H155.371V136.215H159.203V127.319H158.683V118.054H175.764V127.319H175.244V136.215H175.673V145.297H189.381V154.563H183.35V163.459H189.923V172.54H204.058V181.805H196.106V190.702H198.908V199.783H209.112V190.702H209.292V181.621H209.35V163.459H209.44V154.378H209.689V163.459H209.779V181.621H209.835V190.702H210.015V199.783H215.767V209.049H215.304V217.945H216.195V227.21H215.665V236.107H223.203V227.21H222.851V218.129H221.078V209.049H218.198V199.783H222.976V190.702H223.315V181.621H223.338V172.54H223.384V163.459H223.508V154.378H223.847V163.459H223.971V172.54H224.016V181.621H224.038V190.702H224.377V199.783H229.157V209.049H226.277V218.129H224.504V227.21H224.152V236.107H232.263V245.373H228.582V254.269H230.546V263.535H226.717V272.432H227.678V281.513H229.261V272.432H234.558V263.351H234.931V254.454H233.835V245.188H236.625V236.292H236.399V227.027H236.839V217.945H236.897V209.049H236.886V199.783H237.113V190.702H237.554V181.621H237.576V172.724H237.497V163.459H237.576V154.378H238.005V163.459H238.084V172.724H238.005V181.621H238.028V190.702H238.469V199.783H238.697V209.049H238.686V217.945H238.742V227.027H239.182V236.292H238.956V245.188H241.746V254.454H240.65V263.351H241.023V272.432H246.32V281.513H249.158V272.616H247.769V263.351H248.716V254.269H249.27V245.188H250.909V236.107H250.965V227.21H250.954V217.945H251.01V209.049H250.999V199.783H251.145V190.702H251.644V181.621H251.667V172.724H251.633V163.459H251.712V154.378H252.096V163.459H252.176V172.724H252.142V181.621H252.165V190.702H252.662V199.783H252.81V209.049H252.799V217.945H252.855V227.21H252.844V236.107H252.9V245.188H254.538V254.269H255.091V263.351H256.04V272.616H254.651V281.513H260.139V290.778H256.74V299.859H256.662V308.756H258.446V318.021H257.169V326.918H257.373V335.999H260.459V326.918H260.663V317.837H260.831V308.756H260.899V299.674H261.024V290.593H262.277V281.697H261.588V272.432H262.943V263.351H263.022V254.269H263.26V245.188H264.885V236.107H264.897V227.027H265.011V217.945H265.067V209.049H265.056V199.783H265.317V190.702H265.78V181.621H265.802V172.724H265.701V163.459H265.802V154.378H265.973V145.297H266.063V154.378H266.233V163.459H266.334V172.724H266.233V181.621H266.255V190.702H266.718V199.783H266.979V209.049H266.968V217.945H267.024V227.027H267.138V236.107H267.15V245.188H268.775V254.269H269.013V263.351H269.092V272.432H270.447V281.697H269.758V290.593H271.011V299.674H271.136V308.756H271.204V317.837H271.373V326.918H271.576V335.999H274.663V326.918H274.731V317.837H274.888V308.756H275.081V299.674H275.205V290.593H275.905V281.513H277.057V272.432H277.102V263.351H277.148V254.269H277.294V245.188H278.931V236.107H279.023V227.027H279.18V218.129H279.124V209.049H279.101V199.783H279.305V190.702H279.872V181.621H279.894V172.54H279.962V163.643H279.894V154.378H280.368V163.643H280.301V172.54H280.368V181.621H280.391V190.702H280.958V199.783H281.161V209.049H281.139V218.129H281.081V227.027H281.24V236.107H281.33V245.188H282.968V254.269H283.115V263.351H283.16V272.432H283.205V281.513H284.358V290.593H285.057V299.674H285.182V308.756H285.373V317.837H285.532V326.918H285.6V335.999H287.644V345.264H285.78V354.161H288.945V345.264H288.855V336.183H288.776V326.918H288.934V317.837H289.126V308.756H289.194V299.674H289.318V290.593H289.995V281.513H291.17V272.432H291.194V263.351H291.261V254.269H291.544V245.188H293.068V236.107H293.136V227.027H293.293V209.049H293.282V199.783H293.463V190.702H293.974V181.621H294.008V172.724H293.985V163.643H293.974V154.378H294.075V145.297H294.414V154.378H294.515V163.643H294.504V172.724H294.481V181.621H294.515V190.702H295.026V199.783H295.207V209.049H295.196V227.027H295.353V236.107H295.421V245.188H296.947V254.269H297.228V263.351H297.295V272.432H297.319V281.513H298.493V290.593H299.171V299.674H299.295V308.756H299.363V317.837H299.555V326.918H299.713V336.183H299.634V345.264H299.544V354.161H301.317V363.427H301.158V372.507H300.097V381.404H300.424V390.485H302.02V381.404H302.427V363.427H301.568V354.161H302.844V345.264H302.822V326.918H302.979V317.837H303.24V299.674H303.375V290.593H303.895V281.513H305.217V272.432H305.239V263.351H305.374V254.269H305.589V245.188H307.181V236.107H307.294V227.027H307.35V209.049H307.328V199.783H307.475V190.702H308.019V181.621H308.098V172.54H308.121V163.643H308.087V154.378H308.166V145.297H308.55V154.378H308.63V163.643H308.595V172.54H308.617V181.621H308.697V190.702H309.241V199.783H309.388V209.049H309.365V227.027H309.421V236.107H309.535V245.188H311.127V254.269H311.342V263.351H311.477V272.432H311.5V281.513H312.822V290.593H313.341V299.674H313.476V317.837H313.736V326.918H313.895V345.264H313.872V354.161H315.148V363.427H314.29V381.404H314.696V390.485H315.997V381.404H316.201V372.323H316.54V363.242H316.924V354.346H316.641V345.08H316.823V335.999H316.935V326.918H317.025V317.837H317.308V308.756H317.42V299.674H317.545V290.593H317.997V281.513H319.262V272.432H319.42V263.535H319.352V254.269H319.555V245.188H321.339V236.107H321.465V227.21H321.431V208.864H321.487V199.783H321.667V190.702H322.133V181.621H322.211V172.54H322.279V163.643H322.234V154.378H322.279V145.297H322.664V154.378H322.709V163.643H322.664V172.54H322.732V181.621H322.81V190.702H323.276V199.783H323.456V208.864H323.512V227.21H323.478V236.107H323.603V245.188H325.388V254.269H325.59V263.535H325.523V272.432H325.68V281.513H326.946V290.593H327.398V299.674H327.523V308.756H327.635V317.837H327.918V326.918H328.008V335.999H328.12V345.08H328.302V354.346H328.019V363.242H328.403V372.323H328.742V381.404H328.944V390.485H329.295V399.751H329.002V408.647H330.28V390.669H329.344V381.588H329.185V372.323H330.405V363.242H330.778V354.161H330.891V345.08H331.185V336.183H331.026V326.918H331.241V317.837H331.353V308.756H331.512V299.674H331.658V290.593H332.02V281.513H333.375V272.432H333.51V263.351H333.522V254.269H333.692V245.188H335.385V236.107H335.634V227.21H335.499V217.945H335.566V208.864H335.69V199.783H335.827V190.702H336.246V181.621H336.324V172.54H336.371V163.643H336.348V154.563H336.324V145.297H336.845V154.563H336.822V163.643H336.8V172.54H336.845V181.621H336.923V190.702H337.344V199.783H337.479V208.864H337.604V217.945H337.672V227.21H337.535V236.107H337.784V245.188H339.479V254.269H339.647V263.351H339.659V272.432H339.795V281.513H341.149V290.593H341.511V299.674H341.658V308.756H341.816V317.837H341.93V326.918H342.143V336.183H341.986V345.08H343.14V336.183H343.039V326.918H345.421V318.021H345.219V308.756H345.264V299.674H345.839V290.593H345.987V281.513H347.861V272.616H347.161V263.351H347.511V254.269H347.861V245.188H349.5V236.107H349.691V227.21H349.68V208.864H349.747V199.783H349.895V190.702H350.314V181.621H350.428V172.54H350.484V163.643H350.461V145.297H350.935V163.643H350.913V172.54H350.969V181.621H351.083V190.702H351.502V199.783H351.65V208.864H351.717V227.21H351.706V236.107H351.897V245.188H353.535V254.269H353.886V263.351H354.236V272.616H353.535V281.513H355.41V290.593H355.556V299.674H356.133V308.756H356.178V318.021H355.975V326.918H359.648V318.021H357.808V308.94H356.61V299.674H357.175V290.593H360.416V281.697H359.942V272.432H361.669V263.351H361.716V254.269H361.918V245.188H363.523V236.107H363.68V227.027H363.725V217.945H363.793V208.864H363.862V199.783H363.963V190.702H364.428V181.621H364.541V172.54H364.552V163.459H364.575V145.297H364.62V136.215H365.003V145.297H365.048V163.459H365.071V172.54H365.082V181.621H365.196V190.702H365.662V199.783H365.763V208.864H365.83V217.945H365.898V227.027H365.943V236.107H366.102V245.188H367.705V254.269H367.909V263.351H367.954V272.432H369.682V281.697H369.207V290.593H371.085V281.513H377.398V272.616H373.174V263.535H370.803V254.269H375.84V245.188H377.173V236.292H377.025V227.027H377.771V217.945H378.076V209.049H377.93V199.783H378.087V190.702H378.564V181.621H378.631V172.54H378.665V163.459H378.71V145.481H378.541V136.215H379.309V145.481H379.139V163.459H379.185V172.54H379.219V181.621H379.287V190.702H379.763V199.783H379.921V209.049H379.775V217.945H380.08V227.027H380.825V236.292H380.678V245.188H382.011V254.269H387.322V245.188H392.11V236.107H392.189V227.21H391.884V217.945H392.065V209.049H392.043V199.783H392.088V190.702H392.632V181.621H392.677V172.54H392.767V163.459H392.825V154.563H392.801V145.481H392.767V136.215H393.31V145.481H393.276V154.563H393.254V163.459H393.31V172.54H393.4V181.621H393.445V190.702H393.989V199.783H394.034V209.049H394.012V217.945H394.193V227.21H393.888V236.107H393.967V245.188H398.755V254.269H401.273V263.535H396.678V272.432H403.75V263.351H403.808V254.454H403.626V245.188H405.873V236.107H405.998V227.027H406.133V218.129H406.066V208.864H406.156V199.783H406.337V190.702H406.734V181.621H406.768V172.54H406.882V163.459H406.96V154.563H406.938V145.481H406.859V136.215H407.445V145.481H407.367V154.563H407.344V163.459H407.423V172.54H407.535V181.621H407.571V190.702H407.967V199.783H408.149V208.864H408.239V218.129H408.171V227.027H408.306V236.107H408.43V245.188H410.678V254.454H410.497V263.351H410.553V272.432H414.45V281.697H411.446V290.593H412.474V299.674H416.52V290.593H416.723V281.513H417.966V272.432H418.033V263.351H418.123V254.269H418.26V245.188H420.067V236.292H419.999V227.027H420.179V217.945H420.292V199.783H420.507V190.702H420.882V181.805H420.847V172.54H420.972V163.459H421.006V145.481H420.972V136.215H421.559V145.481H421.525V163.459H421.559V172.54H421.684V181.805H421.65V190.702H422.024V199.783H422.239V217.945H422.352V227.027H422.533V236.292H422.464V245.188H424.271V254.269H424.408V263.351H424.498V272.432H424.565V281.513H425.808V290.593H426.011V299.674H427.593V308.94H426.542V317.837H429.173V327.102H428.688V335.999H430V327.102H429.877V317.837H430.103V308.756H430.283V299.674H430.35V290.593H430.826V281.513H431.989V272.432H432.215V263.351H432.238V254.269H432.541V245.188H434.056V236.292H434.045V227.027H434.225V217.945H434.44V209.049H434.384V199.783H434.496V190.702H434.973V181.805H434.917V172.54H435.085V163.459H435.119V154.563H435.085V145.481H435.04V136.215H435.357V127.135H435.402V136.215H435.718V145.481H435.673V154.563H435.639V163.459H435.673V172.54H435.842V181.805H435.786V190.702H436.262V199.783H436.375V209.049H436.319V217.945H436.534V227.027H436.714V236.292H436.703V245.188H438.216V254.269H438.521V263.351H438.543V272.432H438.77V281.513H439.933V290.593H440.407V299.674H440.474V308.756H440.655V317.837H440.882V327.102H440.757V335.999H441.401V354.161H443.595V345.08H443.753V335.999H444.012V326.918H444.205V317.837H444.284V308.756H444.396V299.674H444.521V290.593H444.791V281.513H446.102V272.432H446.214V263.351H446.283V254.269H446.486V245.188H447.909V236.107H448.36V227.21H448.338V217.945H448.519V199.783H448.815V190.702H449.086V181.805H449.075V172.54H449.153V163.459H449.221V154.563H449.198V145.297H449.232V136.215H449.753V145.297H449.786V154.563H449.764V163.459H449.831V172.54H449.91V181.805H449.899V190.702H450.17V199.783H450.465V217.945H450.647V227.21H450.624V236.107H451.076V245.188H452.499V254.269H452.701V263.351H452.77V272.432H452.883V281.513H454.193V290.593H454.463V299.674H454.589V308.756H454.701V317.837H454.78V326.918H454.973V335.999H455.231V345.08H455.39V354.346H455.231V363.242H455.604V372.507H455.458V381.404H457.007V372.323H457.889V363.427H456.85V354.161H457.449V345.08H457.867V335.999H458.205V326.918H458.488V318.021H458.183V308.756H458.511V299.674H458.679V290.593H459.052V281.513H460.249V272.432H460.351V263.351H460.441V245.188H462.237V236.107H462.428V227.027H462.52V217.945H462.587V199.783H462.825V190.702H463.244V181.805H463.222V172.54H463.244V163.459H463.334V154.563H463.289V145.297H463.369V136.215H463.482V127.135H463.731V136.215H463.843V145.297H463.922V154.563H463.877V163.459H463.967V172.54H463.989V181.805H463.967V190.702H464.387V199.783H464.625V217.945H464.693V227.027H464.783V236.107H464.975V245.188H466.771V263.351H466.861V272.432H466.962V281.513H468.159V290.593H468.532V299.674H468.702V308.756H469.029V318.021H468.724V326.918H469.007V335.999H469.167V326.918H469.789V317.837H470.274V308.756H472.601V299.859H470.5V290.593H472.985V281.513H474.352V272.432H474.42V263.351H474.487V254.269H474.555V245.188H475.989V236.107H476.452V227.027H476.633V217.945H476.7V209.049H476.633V199.783H476.961V190.702H477.301V181.805H477.278V172.54H477.426V163.459H477.449V154.563H477.404V145.297H477.426V136.215H478.013V145.297H478.035V154.563H477.99V163.459H478.013V172.54H478.16V181.805H478.138V190.702H478.478V199.783H478.806V209.049H478.738V217.945H478.806V227.027H478.986V236.107H479.45V245.188H480.884V254.269H480.952V263.351H481.019V272.432H481.087V281.513H482.453V290.593H484.938V299.674H485.675V290.593H486.218V281.697H484.761V272.432H488.443V263.351H488.533V254.269H488.6V245.188H489.933V236.107H490.679V217.945H490.859V209.049H490.679V199.783H491.178V190.702H491.427V172.54H491.472V163.459H491.562V154.563H491.539V136.215H492.127V154.563H492.103V163.459H492.195V172.54H492.24V190.702H492.488V199.783H492.986V209.049H492.806V217.945H492.986V236.107H493.732V245.188H495.065V254.269H495.132V263.351H495.224V272.432H498.905V281.697H497.448V290.593H497.99V299.674H501.99V290.778H501.223V281.513H502.307V272.432H502.782V263.535H502.713V245.188H504.239V236.107H504.724V227.027H504.769V217.945H504.928V208.864H504.962V199.783H505.246V190.702H505.54V172.54H505.63V154.378H505.652V145.481H505.607V136.215H506.285V145.481H506.24V154.378H506.263V172.54H506.353V190.702H506.647V199.783H506.931V208.864H506.964V217.945H507.123V227.027H507.168V236.107H507.653V245.188H509.178V263.535H509.11V272.432H509.586V281.513H510.67V290.778H509.901V299.674H511.542V290.593H515.699V281.513H516.736V272.616H516.545V263.351H516.85V254.269H516.918V245.188H518.624V236.107H518.837V227.027H518.974V218.129H518.905V208.864H519.053V199.783H519.382V190.702H519.642V181.621H519.653V172.54H519.72V163.459H519.743V154.378H519.765V145.481H519.72V136.215H520.398V145.481H520.353V154.378H520.376V163.459H520.398V172.54H520.466V181.621H520.477V190.702H520.737V199.783H521.066V208.864H521.214V218.129H521.146V227.027H521.281V236.107H521.497V245.188H523.201V254.269H523.27V263.351H523.574V272.616H523.382V281.513H524.422V290.593H528.577V299.859H525.652V308.94H525.042V317.837H525.45V326.918H527.745V317.837H528.829V308.756H529.01V299.674H529.19V290.593H529.585V281.513H530.478V272.432H530.76V263.351H530.963V245.188H532.387V236.107H532.748V227.027H533.019V217.945H533.087V208.864H533.166V199.783H533.541V190.702H533.755V172.54H533.766V163.459H533.856V154.378H533.88V136.215H534.466V154.378H534.489V163.459H534.579V172.54H534.592V190.702H534.805V199.783H535.181V208.864H535.26V217.945H535.327V227.027H535.598V236.107H535.96V245.188H537.383V263.351H537.585V272.432H537.868V281.513H538.761V290.593H539.156V299.674H539.336V308.756H539.518V317.837H540.602V327.102H539.731V335.999H539.913V345.08H542.535V336.183H542.524V326.918H542.728V317.837H542.919V308.756H543.045V299.674H543.247V290.593H543.721V281.513H544.455V272.432H544.828V263.351H544.942V254.269H545.144V245.188H545.856V236.107H546.839V227.027H547.133V218.129H547.065V199.783H547.677V190.702H547.845V172.54H547.903V163.459H547.948V154.378H547.971V145.297H548.016V136.215H548.557V145.297H548.602V154.378H548.626V163.459H548.671V172.54H548.727V190.702H548.896V199.783H549.508V218.129H549.44V227.027H549.734V236.107H550.717V245.188H551.429V254.269H551.631V263.351H551.745V272.432H552.118V281.513H552.852V290.593H553.326V299.674H553.53V308.756H553.653V317.837H553.846V326.918H554.048V336.183H554.037V345.08H554.219V354.161H554.421V363.427H554.252V372.323H554.614V381.404H555.088V390.485H555.937V381.404H556.04V372.323H556.379V363.242H556.446V345.08H556.592V326.918H556.864V317.837H557.113V308.756H557.158V299.674H557.416V290.593H557.789V281.513H558.57V272.432H558.942V263.351H559.122V254.269H559.259V245.188H559.676V236.107H561.019V227.027H561.133V208.864H561.291V199.783H561.914V190.702H561.938V172.54H562.039V163.459H562.084V154.378H562.14V145.481H562.106V136.215H562.694V145.481H562.66V154.378H562.717V163.459H562.762V172.54H562.863V190.702H562.885V199.783H563.508V208.864H563.667V227.027H563.78V236.107H565.124V245.188H565.542V254.269H565.677V263.351H565.858V272.432H566.231V281.513H567.01V290.593H567.383V299.674H567.643V308.756H567.688V317.837H567.937V326.918H568.207V345.08H568.354V363.242H568.422V372.323H568.761V381.404H568.862V390.485H568.929V399.566H568.976V408.647H569.066V417.728H569.78V408.647H569.848V399.566H569.915V381.404H570.153V372.323H570.492V363.427H570.424V354.161H570.492V345.08H570.705V335.999H570.774V326.918H571.044V317.837H571.158V308.756H571.305V299.674H571.463V290.593H571.904V281.513H572.581V272.432H573.19V263.535H573.168V254.269H573.372V245.188H573.666V236.107H575.089V227.027H575.246V217.945H575.314V208.864H575.45V199.783H576.051V190.887H576.028V181.621H576.073V172.54H576.107V163.459H576.219V154.378H576.242V145.297H576.276V136.215H576.751V145.297H576.785V154.378H576.807V163.459H576.92V172.54H576.953V181.621H576.998V190.887H576.976V199.783H577.578V208.864H577.713V217.945H577.78V227.027H577.939V236.107H579.361V245.188H579.655V254.269H579.859V263.535H579.836V272.432H580.445V281.513H581.123V290.593H581.565V299.674H581.722V308.756H581.868V317.837H581.982V326.918H582.252V335.999H582.321V345.08H582.535V354.161H582.602V363.427H582.535V372.323H582.874V381.404H583.111V399.566H583.179V408.647H583.246V417.728H583.961V408.647H584.052V399.751H584.028V390.485H584.097V381.404H584.333V372.323H584.47V363.242H584.672V354.346H584.537V345.08H584.717V335.999H584.888V326.918H585.09V317.837H585.271V308.756H585.44V299.674H585.577V290.593H586.017V281.513H586.423V272.432H587.236V263.351H587.281V254.269H587.35V245.188H587.689V236.107H589.236V227.027H589.292V217.945H589.427V208.864H589.518V199.783H590.186V190.887H590.096V181.621H590.186V172.54H590.22V163.459H590.333V154.378H590.368V145.297H590.458V136.215H590.797V145.297H590.887V154.378H590.92V163.459H591.033V172.54H591.067V181.621H591.158V190.887H591.067V199.783H591.736V208.864H591.826V217.945H591.961V227.027H592.019V236.107H593.565V245.188H593.904V254.269H593.972V263.351H594.017V272.432H594.83V281.513H595.238V290.593H595.678V299.674H595.813V308.756H595.983V317.837H596.163V326.918H596.367V335.999H596.535V345.08H596.717V354.346H596.58V363.242H596.784V372.323H596.919V381.404H597.157V390.485H597.225V399.751H597.202V408.647H597.292V417.728H597.462V426.993H597.406V435.891H597.473V444.971H597.496V454.052H597.849V444.971H597.916V436.075H597.894V426.81H598.018V417.728H598.051V408.647H598.12V399.751H598.074V390.485H598.244V381.404H598.493V372.323H598.628V363.242H598.718V345.08H598.877V335.999H599.023V326.918H599.182V317.837H599.295V308.756H599.566V299.674H599.622V290.593H600.13V281.513H600.469V272.432H601.304V263.351H601.44V254.269H601.508V245.188H601.892V236.107H603.496V227.027H603.586V218.129H603.45V208.864H603.541V199.783H604.277V190.887H604.254V172.54H604.299V163.459H604.447V154.378H604.503V145.297H604.638V136.215H604.842V145.297H604.977V154.378H605.033V163.459H605.181V172.54H605.226V190.887H605.204V199.783H605.939V208.864H606.03V218.129H605.894V227.027H605.984V236.107H607.589V245.188H607.973V254.269H608.04V263.351H608.176V272.432H609.012V281.513H609.351V290.593H609.858V299.674H609.915V308.756H610.186V317.837H610.298V326.918H610.457V335.999H610.604V345.08H610.763V363.242H610.853V372.323H610.988V381.404H611.236V390.485H611.407V399.751H611.36V408.647H611.429V417.728H611.463V426.81H611.587V436.075H611.564V444.971H611.632V454.052H611.768V463.133H611.827V454.052H611.985V444.971H612.03V435.891H612.075V417.728H612.12V408.647H612.256V399.751H612.188V390.485H612.278V381.404H612.674V372.323H612.741V363.242H612.831V354.161H612.9V345.08H613.001V335.999H613.08V326.918H613.295V317.837H613.408V308.756H613.612V299.674H613.735V290.593H614.243V281.513H614.582V272.432H615.338V263.351H615.419V254.269H615.554V245.188H615.814V236.107H617.565V227.027H617.632V217.945H617.7V208.864H617.756V199.783H618.436V190.887H618.39V172.54H618.413V163.459H618.56V154.378H618.616V145.297H618.787V136.215H618.922V145.297H619.09V154.378H619.148V163.459H619.294V172.54H619.317V190.887H619.272V199.783H619.951V208.864H620.007V217.945H620.076V227.027H620.144V236.107H621.894V245.188H622.153V254.269H622.29V263.351H622.368V272.432H623.125V281.513H623.464V290.593H623.971V299.674H624.097V308.756H624.299V317.837H624.413V326.918H624.627V335.999H624.705V345.08H624.808V354.161H624.876V363.242H624.966V372.323H625.033V381.404H625.428V390.485H625.52V399.751H625.452V408.647H625.587V417.728H625.632V435.891H625.677V444.971H625.722V454.052H625.881V463.133H625.895V454.052H626.03V445.156H626.008V435.891H626.12V426.81H626.154V417.728H626.234V408.647H626.302V399.566H626.369V390.669H626.347V381.404H626.663V372.323H626.854V363.242H626.946V345.08H627.103V335.999H627.171V326.918H627.408V317.837H627.588V308.756H627.747V299.674H627.848V290.593H628.289V281.513H628.56V272.432H629.509V263.351H629.599V254.269H629.667V245.188H629.983V236.107H631.541V227.027H631.745V218.129H631.678V208.864H631.801V199.783H632.436V190.702H632.482V181.805H632.413V172.54H632.527V163.459H632.673V154.378H632.707V145.297H632.73V136.215H633.205V145.297H633.227V154.378H633.261V163.459H633.407V172.54H633.52V181.805H633.452V190.702H633.497V199.783H634.133V208.864H634.257V218.129H634.189V227.027H634.392V236.107H635.951V245.188H636.268V254.269H636.335V263.351H636.425V272.432H637.374V281.513H637.644V290.593H638.086V299.674H638.187V308.756H638.345V317.837H638.526V326.918H638.764V335.999H638.831V345.08H638.989V363.242H639.079V372.323H639.271V381.404H639.588V390.669H639.565V399.566H639.633V408.647H639.7V417.728H639.779V426.81H639.813V435.891H639.927V445.156H639.904V454.052H640.039V463.133H640.076V454.052H640.155V444.971H640.212V435.891H640.235V417.728H640.46V408.832H640.415V399.566H640.482V390.485H640.619V381.404H640.787V372.323H640.991V363.242H641.059V345.08H641.216V335.999H641.364V327.102H641.341V317.837H641.725V308.94H641.703V299.674H642.03V290.593H642.516V281.513H642.696V272.432H643.6V263.351H643.69V254.269H643.826V245.188H643.939V236.107H645.701V227.027H645.712V217.945H645.858V208.864H645.948V199.783H646.505V181.621H646.55V172.54H646.618V163.459H646.663V154.378H646.741V145.297H646.934V136.215H647.228V145.297H647.419V154.378H647.498V163.459H647.543V172.54H647.612V181.621H647.657V199.783H648.212V208.864H648.302V217.945H648.449V227.027H648.46V236.107H650.222V245.188H650.336V254.269H650.471V263.351H650.561V272.432H651.465V281.513H651.645V290.593H652.132V299.674H652.459V308.94H652.437V317.837H652.821V327.102H652.798V335.999H652.944V345.08H653.102V363.242H653.171V372.323H653.373V381.404H653.543V390.485H653.678V399.566H653.746V408.832H653.701V417.728H653.927V435.891H653.95V444.971H654.006V454.052H654.085V463.133H654.189V454.052H654.28V444.971H654.382V436.075H654.348V426.81H654.415V417.728H654.574V408.832H654.55V399.566H654.597V390.485H654.664V381.404H654.833V372.323H655.037V363.242H655.172V345.08H655.331V335.999H655.41V326.918H655.455V317.837H655.726V308.756H655.951V299.674H656.007V290.593H656.516V281.513H656.765V272.432H657.657V263.351H657.735V254.269H657.939V245.188H658.007V236.107H659.679V227.027H659.758V217.945H659.904V208.864H660.007V199.783H660.618V181.621H660.663V172.54H660.708V163.459H660.753V154.378H660.832V145.297H660.957V136.215H661.431V145.297H661.555V154.378H661.635V163.459H661.68V172.54H661.725V181.621H661.77V199.783H662.382V208.864H662.483V217.945H662.631V227.027H662.709V236.107H664.381V245.188H664.449V254.269H664.651V263.351H664.732V272.432H665.623V281.513H665.872V290.593H666.38V299.674H666.436V308.756H666.662V317.837H666.934V326.918H666.979V335.999H667.058V345.08H667.216V363.242H667.351V372.323H667.555V381.404H667.724V390.485H667.792V399.566H667.837V408.832H667.814V417.728H667.973V426.81H668.04V436.075H668.007V444.971H668.108V454.052H668.198V463.133H668.258V454.052H668.393V444.971H668.562V436.075H668.54V426.993H668.416V417.728H668.642V408.647H668.732V399.751H668.71V390.485H668.845V381.404H669.015V372.323H669.15V363.242H669.218V354.161H669.285V345.08H669.444V335.999H669.478V326.918H669.635V317.837H669.884V308.756H669.929V299.674H670.122V290.593H670.629V281.513H670.833V272.432H671.725V263.351H671.918V254.269H671.985V245.188H672.234V236.107H673.792V227.027H673.871V217.945H674.086V208.864H674.165V199.783H674.776V190.887H674.731V181.805H674.686V172.54H674.799V163.459H674.924V154.378H674.947V145.297H675.138V136.215H675.477V145.297H675.669V154.378H675.692V163.459H675.816V172.54H675.928V181.805H675.883V190.887H675.838V199.783H676.45V208.864H676.53V217.945H676.744V227.027H676.823V236.107H678.382V245.188H678.63V254.269H678.698V263.351H678.89V272.432H679.783V281.513H679.985V290.593H680.494V299.674H680.685V308.756H680.73V317.837H680.979V326.918H681.137V335.999H681.171V345.08H681.33V354.161H681.397V363.242H681.465V372.323H681.601V381.404H681.77V390.485H681.905V399.751H681.882V408.647H681.974V417.728H682.199V426.993H682.075V436.075H682.052V444.971H682.221V454.052H682.36V444.971H682.63V435.891H682.744V426.993H682.654V417.728H682.8V408.647H682.823V399.751H682.733V390.485H682.935V381.404H683.128V372.323H683.263V363.242H683.331V345.08H683.501V335.999H683.591V326.918H683.681V317.837H683.997V308.756H684.042V299.674H684.302V290.593H684.574V281.513H684.969V272.432H685.432V263.351H686.031V254.269H686.098V245.188H686.336V236.107H687.759V227.027H687.939V217.945H688.199V208.864H688.278V199.783H688.89V190.887H688.662V181.621H688.822V172.54H688.89V163.459H689.003V154.378H689.06V145.297H689.183V136.215H689.399V127.135H689.444V136.215H689.657V145.297H689.783V154.378H689.839V163.459H689.951V172.54H690.019V181.621H690.179V190.887H689.951V199.783H690.564V208.864H690.643V217.945H690.902V227.027H691.083V236.107H692.506V245.188H692.744V254.269H692.812V263.351H693.409V272.432H693.873V281.513H694.268V290.593H694.54V299.674H694.799V308.756H694.844V317.837H695.16V326.918H695.251V335.999H695.341V345.08H695.51V363.242H695.578V372.323H695.714V381.404H695.905V390.485H696.109V399.751H696.019V408.647H696.042V417.728H696.188V426.993H696.098V435.891H696.21V444.971H696.482V454.052H696.597V444.971H696.676V435.891H696.846V426.993H696.801V408.647H696.869V399.566H696.914V390.485H696.981V381.404H697.241V372.323H697.376V363.242H697.445V354.161H697.513V345.08H697.67V335.999H697.704V326.918H697.885V317.837H698.009V308.756H698.179V299.674H698.292V290.593H698.732V281.513H698.925V272.432H699.569V263.351H700.121V254.269H700.189V245.188H700.37V236.107H701.962V227.027H702.121V217.945H702.177V208.864H702.413V199.783H702.856V190.702H703.004V181.621H703.027V163.459H703.128V154.378H703.15V145.297H703.24V136.215H703.828V145.297H703.918V154.378H703.941V163.459H704.042V181.621H704.066V190.702H704.212V199.783H704.655V208.864H704.891V217.945H704.948V227.027H705.106V236.107H706.698V245.188H706.88V254.269H706.947V263.351H707.501V272.432H708.144V281.513H708.337V290.593H708.777V299.674H708.889V308.756H709.059V317.837H709.183V326.918H709.365V335.999H709.398V345.08H709.556V354.161H709.623V363.242H709.692V372.323H709.827V381.404H710.087V390.485H710.155V399.566H710.2V408.647H710.267V426.993H710.222V435.891H710.393V444.971H710.471V454.052H710.643V444.971H710.71V435.891H710.835V426.81H710.914V399.566H711.027V390.485H711.096V381.404H711.354V372.323H711.491V363.242H711.558V345.08H711.693V336.183H711.671V326.918H711.863V317.837H712.259V308.756H712.36V299.674H712.405V290.593H712.721V281.513H712.903V272.432H713.614V263.351H714.167V254.269H714.302V245.188H714.551V236.107H716.122V227.027H716.358V218.129H716.29V208.864H716.528V199.783H717.003V190.702H717.117V181.805H717.05V172.54H717.14V163.459H717.207V154.378H717.263V136.215H718.031V154.378H718.088V163.459H718.156V172.54H718.246V181.805H718.179V190.702H718.291V199.783H718.768V208.864H719.006V218.129H718.937V227.027H719.175V236.107H720.744V245.188H720.993V254.269H721.128V263.351H721.682V272.432H722.393V281.513H722.573V290.593H722.89V299.674H722.935V308.756H723.038V317.837H723.433V326.918H723.624V336.183H723.601V345.08H723.738V363.242H723.805V372.323H723.94V381.404H724.2V390.485H724.268V399.566H724.382V426.81H724.461V435.891H724.584V444.971H724.652V454.052H724.688V444.971H724.847V435.891H724.949V426.81H725.027V399.566H725.141V390.485H725.265V381.404H725.469V363.242H725.671V345.08H725.806V335.999H725.83V326.918H725.977V317.837H726.237V308.756H726.473V299.674H726.518V290.593H726.834V281.513H727.038V272.432H727.298V263.351H728.224V254.269H728.416V245.188H728.529V236.107H730.098V227.027H730.291V217.945H730.403V208.864H730.832V199.783H731.118V190.702H731.163V181.621H731.208V172.54H731.275V163.459H731.343V145.297H731.354V136.215H732.168V145.297H732.18V163.459H732.247V172.54H732.315V181.621H732.36V190.702H732.405V199.783H732.69V208.864H733.119V217.945H733.231V227.027H733.424V236.107H734.993V245.188H735.106V254.269H735.299V263.351H736.224V272.432H736.484V281.513H736.688V290.593H737.004V299.674H737.049V308.756H737.286V317.837H737.546V326.918H737.692V335.999H737.716V345.08H737.851V363.242H738.053V381.404H738.257V390.485H738.381V399.566H738.495V426.81H738.574V435.891H738.675V444.971H738.834V454.052H738.859V444.971H738.893V435.891H739.017V426.81H739.187V417.728H739.254V408.832H739.209V399.566H739.254V390.485H739.367V381.404H739.56V372.323H739.762V363.427H739.717V354.161H739.785V345.08H739.898V335.999H739.977V326.918H740.135V317.837H740.327V308.756H740.633V290.593H740.846V281.513H741.151V272.432H741.412V263.351H742.462V245.188H742.62V236.107H744.269V227.027H744.585V218.129H744.46V208.864H744.924V199.783H745.253V181.621H745.321V172.54H745.366V163.459H745.433V145.297H745.514V136.215H745.83V127.135H745.92V136.215H746.236V145.297H746.315V163.459H746.383V172.54H746.428V181.621H746.495V199.783H746.826V208.864H747.288V218.129H747.165V227.027H747.481V236.107H749.129V245.188H749.288V263.351H750.338V272.432H750.597V281.513H750.902V290.593H751.118V308.756H751.423V317.837H751.614V326.918H751.773V335.999H751.852V345.08H751.964V354.161H752.032V363.427H751.987V372.323H752.19V381.404H752.382V390.485H752.496V399.566H752.541V408.832H752.496V417.728H752.563V426.81H752.732V435.891H752.857V444.971H752.891V454.052H752.927V444.971H753.085V436.075H753.062V426.81H753.244V417.728H753.3V399.566H753.368V390.485H753.56V381.404H753.605V372.323H753.808V363.242H753.899V345.08H754.012V335.999H754.09V326.918H754.135V317.837H754.384V308.756H754.542V299.674H754.678V290.593H755.006V281.513H755.378V272.432H755.57V263.351H756.519V245.188H756.643V236.107H758.405V227.027H758.631V218.129H758.517V208.864H759.038V199.783H759.333V190.887H759.288V181.621H759.344V172.54H759.434V163.459H759.57V145.297H759.672V136.215H759.966V127.135H760.011V136.215H760.305V145.297H760.406V163.459H760.542V172.54H760.632V181.621H760.688V190.887H760.643V199.783H760.939V208.864H761.459V218.129H761.345V227.027H761.572V236.107H763.334V245.188H763.457V263.351H764.407V272.432H764.598V281.513H764.97V290.593H765.298V299.674H765.435V308.756H765.592V317.837H765.841V326.918H765.886V335.999H765.965V345.08H766.077V363.242H766.169V372.323H766.371V381.404H766.416V390.485H766.609V399.566H766.676V417.728H766.733V426.81H766.914V436.075H766.891V444.971H767.049V454.052H767.085V444.971H767.175V435.891H767.244V426.993H767.222V417.728H767.481V408.832H767.436V399.566H767.481V381.404H767.741V372.323H767.99V363.427H767.945V354.161H768.08V345.08H768.125V335.999H768.203V326.918H768.248V317.837H768.554V308.756H768.656V299.674H768.859V290.593H768.983V281.513H769.492V272.432H769.627V263.351H770.632V254.269H770.688V236.107H772.518V227.027H772.632V218.129H772.609V208.864H773.196V199.783H773.446V190.887H773.241V181.621H773.457V172.54H773.526V163.459H773.639V145.297H773.762V136.215H774.44V145.297H774.564V163.459H774.678V172.54H774.745V181.621H774.962V190.887H774.757V199.783H775.007V208.864H775.595V218.129H775.572V227.027H775.685V236.107H777.514V254.269H777.57V263.351H778.576V272.432H778.711V281.513H779.22V290.593H779.344V299.674H779.548V308.756H779.649V317.837H779.954V326.918H779.999V335.999H780.078V345.08H780.123V354.161H780.259V363.427H780.214V372.323H780.462V381.404H780.722V399.566H780.767V408.832H780.722V417.728H780.982V426.993H780.96V435.891H781.027V444.971H781.117V454.052H781.199V435.891H781.29V426.81H781.403V417.728H781.549V408.832H781.414V399.566H781.685V390.669H781.549V381.404H781.843V372.323H781.99V363.242H782.17V354.346H782.125V345.08H782.17V335.999H782.294V326.918H782.43V317.837H782.565V308.756H782.747V299.674H782.972V290.593H783.097V281.513H783.47V272.432H783.74V263.351H784.689V254.269H784.779V245.373H784.756V236.107H786.507V227.027H786.801V218.129H786.779V208.864H787.514V190.887H787.423V181.621H787.538V172.54H787.707V163.459H787.774V145.297H787.831V136.215H788.136V127.135H788.295V136.215H788.598V145.297H788.656V163.459H788.723V172.54H788.892V181.621H789.008V190.887H788.915V208.864H789.652V218.129H789.629V227.027H789.923V236.107H791.674V245.373H791.65V254.269H791.741V263.351H792.689V272.432H792.961V281.513H793.333V290.593H793.457V299.674H793.683V308.756H793.865V317.837H794V326.918H794.135V335.999H794.26V345.08H794.305V354.346H794.26V363.242H794.44V372.323H794.588V381.404H794.88V390.669H794.745V399.566H795.016V408.832H794.88V417.728H795.028V426.81H795.14V435.891H795.23V454.052H795.313V445.156H795.291V435.891H795.403V426.81H795.516V417.913H795.448V408.647H795.549V399.566H795.594V390.669H795.527V381.404H795.956V372.323H796.171V363.242H796.216V354.161H796.238V345.08H796.283V335.999H796.352V326.918H796.431V317.837H796.679V308.756H796.77V299.674H797.018V290.593H797.143V281.513H797.414V272.432H797.854V263.351H798.813V254.269H798.836V245.188H798.938V236.107H800.519V227.027H800.791V217.945H800.813V208.864H801.558V199.783H801.617V190.702H801.651V181.621H801.707V172.54H801.797V163.459H801.91V154.563H801.842V145.297H801.945V136.215H802.306V127.135H802.351V136.215H802.713V145.297H802.814V154.563H802.747V163.459H802.859V172.54H802.949V181.621H803.007V190.702H803.041V199.783H803.098V208.864H803.843V217.945H803.866V227.027H804.137V236.107H805.719V245.188H805.821V254.269H805.843V263.351H806.804V272.432H807.244V281.513H807.515V290.593H807.639V299.674H807.888V308.756H807.978V317.837H808.227V326.918H808.306V335.999H808.373V345.08H808.418V354.161H808.441V363.242H808.486V372.323H808.701V381.404H809.13V390.669H809.062V399.566H809.107V408.647H809.208V417.913H809.141V426.81H809.253V435.891H809.367V444.971H809.426V435.891H809.584V426.993H809.561V417.728H809.629V408.647H809.709V399.566H809.776V390.485H809.911V381.404H810.013V372.323H810.284V363.242H810.329V354.161H810.352V345.08H810.398V335.999H810.466V326.918H810.544V317.837H810.793V308.756H810.883V299.674H810.996V290.593H811.132V281.513H811.572V272.432H811.9V263.351H812.814V254.269H812.893V245.188H812.939V236.107H814.43V227.027H814.904V217.945H815.05V208.864H815.731V190.702H815.753V181.621H815.866V163.459H815.979V145.297H816.036V136.215H816.375V127.135H816.51V136.215H816.848V145.297H816.905V163.459H817.017V181.621H817.131V190.702H817.154V208.864H817.833V217.945H817.981V227.027H818.454V236.107H819.945V245.188H819.99V254.269H820.069V263.351H820.984V272.432H821.312V281.513H821.752V290.593H821.887V299.674H822.001V308.756H822.091V317.837H822.34V326.918H822.419V335.999H822.486V345.08H822.531V354.161H822.554V363.242H822.599V372.323H822.87V381.404H822.971V390.485H823.108V399.566H823.175V408.647H823.254V417.728H823.321V426.993H823.299V435.891H823.458V444.971H823.525V454.052H823.539V444.971H823.641V436.075H823.584V426.81H823.641V417.728H823.8V408.647H823.912V399.751H823.89V390.485H823.957V381.404H824.172V372.323H824.33V363.242H824.375V354.161H824.489V345.08H824.534V335.999H824.624V326.918H824.657V317.837H824.839V308.756H825.03V299.674H825.2V290.593H825.313V281.513H825.753V272.432H826.081V263.351H827.03V245.188H827.12V236.107H828.949V227.027H829.062V217.945H829.108V208.864H829.844V199.783H829.855V190.702H829.934V181.621H830.025V172.724H829.956V163.459H830.07V154.378H830.093V145.297H830.171V136.215H830.533V127.135H830.578V136.215H830.939V145.297H831.018V154.378H831.04V163.459H831.154V172.724H831.087V181.621H831.177V190.702H831.256V199.783H831.267V208.864H832.004V217.945H832.049V227.027H832.161V236.107H833.991V245.188H834.081V263.351H835.03V272.432H835.358V281.513H835.798V290.593H835.91V299.674H836.08V308.756H836.272V317.837H836.453V326.918H836.487V335.999H836.577V345.08H836.622V354.161H836.736V363.242H836.781V372.323H836.938V381.404H837.153V390.485H837.221V399.751H837.198V408.647H837.311V417.728H837.47V426.81H837.526V436.075H837.47V444.971H837.571V454.052H837.585V444.971H837.63V435.891H837.766V426.993H837.733V417.728H837.913V408.647H838.025V399.751H838.003V390.485H838.207V381.404H838.308V372.323H838.375V363.242H838.557V354.161H838.579V345.264H838.443V335.999H838.714V326.918H838.771V317.837H838.884V308.756H839.121V299.674H839.313V290.593H839.448V281.513H839.551V272.432H840.059V263.351H840.974V254.269H841.132V245.188H841.154V236.107H842.622V227.027H843.017V217.945H843.244V208.864H843.991V199.968H843.957V190.702H844.071V181.621H844.138V172.724H844.048V163.459H844.206V145.297H844.262V136.215H844.646V127.135H844.691V136.215H845.075V145.297H845.132V163.459H845.29V172.724H845.2V181.621H845.267V190.702H845.38V199.968H845.346V208.864H846.094V217.945H846.319V227.027H846.714V236.107H848.184V245.188H848.206V254.269H848.364V263.351H849.279V272.432H849.787V281.513H849.888V290.593H850.025V299.674H850.216V308.756H850.454V317.837H850.566V326.918H850.622V335.999H850.894V345.264H850.759V354.161H850.781V363.242H850.961V372.323H851.029V381.404H851.131V390.485H851.334V399.751H851.311V408.647H851.425V417.728H851.605V426.993H851.572V435.891H851.707V444.971H851.743V435.891H851.857V426.81H851.902V417.728H851.97V408.647H852.14V399.751H852.117V381.404H852.421V372.323H852.49V363.242H852.602V354.161H852.76V345.264H852.692V326.918H852.76V317.837H852.998V308.756H853.235V299.674H853.37V290.593H853.426V281.513H853.597V272.432H854.239V263.351H855.087V254.269H855.245V245.373H855.211V236.107H856.555V227.027H857.131V217.945H857.628V208.864H858.071V199.783H858.105V190.702H858.116V181.621H858.184V172.54H858.251V163.459H858.296V145.297H858.375V136.215H859.189V145.297H859.268V163.459H859.313V172.54H859.381V181.621H859.448V190.702H859.459V199.783H859.494V208.864H859.936V217.945H860.434V227.027H861.009V236.107H862.353V245.373H862.32V254.269H862.477V263.351H863.325V272.432H863.968V281.513H864.138V290.593H864.194V299.674H864.329V308.756H864.567V317.837H864.804V326.918H864.872V345.264H864.804V354.161H864.962V363.242H865.076V372.323H865.143V381.404H865.448V399.751H865.425V408.647H865.595V417.728H865.662V426.81H865.707V435.891H865.925V426.81H866.015V417.728H866.14V408.832H866.116V399.566H866.23V390.485H866.298V381.404H866.524V372.323H866.603V363.242H866.716V354.161H866.783V345.264H866.738V326.918H866.998V317.837H867.066V308.756H867.292V299.674H867.348V290.593H867.676V281.513H867.71V272.432H868.217V263.351H869.133V254.269H869.416V245.188H869.506V236.107H870.002V227.027H871.189V217.945H871.719V208.864H872.103V199.783H872.252V181.621H872.297V172.54H872.319V163.459H872.409V154.378H872.432V145.297H872.49V136.215H872.851V127.135H872.941V136.215H873.302V145.297H873.359V154.378H873.381V163.459H873.471V172.54H873.494V181.621H873.54V199.783H873.688V208.864H874.073V217.945H874.603V227.027H875.789V236.107H876.286V245.188H876.376V254.269H876.659V263.351H877.573V272.432H878.082V281.513H878.116V290.593H878.444V299.674H878.5V308.756H878.725V317.837H878.794V326.918H879.053V345.264H879.008V354.161H879.075V363.242H879.189V372.323H879.268V381.404H879.494V390.485H879.562V399.566H879.674V408.832H879.652V417.728H879.775V426.81H879.867V435.891H879.982V426.81H880.016V417.728H880.197V408.647H880.253V399.566H880.388V390.485H880.501V381.404H880.637V372.323H880.761V363.427H880.716V354.161H880.92V345.264H880.851V335.999H880.92V326.918H881.044V317.837H881.224V308.756H881.428V299.674H881.551V290.593H881.744V281.513H881.767V272.432H882.094V263.351H883.178V254.269H883.427V245.188H883.551V236.107H884.443V227.027H885.426V217.945H885.855V208.864H886.171V199.783H886.298V190.702H886.478V181.805H886.41V172.724H886.399V163.459H886.501V154.378H886.569V136.215H886.93V127.135H887.088V136.215H887.449V154.378H887.517V163.459H887.619V172.724H887.608V181.805H887.539V190.702H887.721V199.783H887.847V208.864H888.164V217.945H888.593V227.027H889.576V236.107H890.467V245.188H890.591V254.269H890.84V263.351H891.924V272.432H892.252V281.513H892.274V290.593H892.467V299.674H892.591V308.756H892.794V317.837H892.974V326.918H893.098V335.999H893.167V345.264H893.098V354.161H893.302V363.427H893.257V372.323H893.381V381.404H893.517V390.485H893.63V399.566H893.765V408.647H893.821V417.728H894.002V426.81H894.036V444.971H894.05V435.891H894.163V426.81H894.185V408.647H894.378V399.566H894.434V390.485H894.571V381.404H894.751V372.323H894.807V363.242H894.966V354.346H894.897V326.918H895.101V317.837H895.224V308.756H895.541V299.674H895.666V290.593H895.79V281.697H895.745V272.432H895.88V263.351H897.179V254.269H897.541V245.188H897.709V236.107H898.376V227.027H899.438V217.945H900.037V208.864H900.284V199.783H900.411V190.702H900.444V181.621H900.57V172.724H900.525V163.459H900.66V145.297H900.705V136.215H901.043V127.135H901.201V136.215H901.54V145.297H901.586V163.459H901.721V172.724H901.676V181.621H901.8V190.702H901.834V199.783H901.96V208.864H902.209V217.945H902.807V227.027H903.869V236.107H904.535V245.188H904.705V254.269H905.067V263.351H906.365V272.432H906.501V281.697H906.456V290.593H906.58V299.674H906.704V308.756H907.02V317.837H907.144V326.918H907.348V354.346H907.28V363.242H907.438V372.323H907.494V381.404H907.675V390.485H907.81V399.566H907.867V408.647H908.059V426.81H908.082V435.891H908.277V426.81H908.423V417.913H908.356V408.647H908.491V399.566H908.547V390.485H908.661V381.404H908.864V372.323H908.92V363.242H908.942V354.161H909.011V326.918H909.214V317.837H909.339V308.756H909.654V299.674H909.712V290.593H909.847V281.697H909.79V272.432H909.925V263.351H911.1V254.269H911.654V245.188H911.755V236.107H912.648V227.027H913.551V217.945H914.33V208.864H914.352V199.783H914.559V190.887H914.524V181.621H914.593V172.724H914.581V163.459H914.75V154.378H914.773V145.297H914.795V136.215H915.134V127.135H915.338V136.215H915.677V145.297H915.699V154.378H915.722V163.459H915.891V172.724H915.879V181.621H915.947V190.887H915.913V199.783H916.118V208.864H916.141V217.945H916.921V227.027H917.824V236.107H918.717V245.188H918.818V254.269H919.371V263.351H920.547V272.432H920.682V281.697H920.626V290.593H920.761V299.674H920.817V308.756H921.133V317.837H921.258V326.918H921.461V354.161H921.528V363.242H921.551V372.323H921.608V381.404H921.811V390.485H921.923V399.566H921.981V408.647H922.116V417.728H922.537V408.647H922.615V399.566H922.729V390.485H922.774V381.404H922.921V372.323H922.988V363.242H923.192V326.918H923.259V317.837H923.475V308.756H923.746V299.674H923.813V290.593H923.993V281.697H923.971V272.432H924.096V263.351H924.808V254.269H925.699V245.188H925.801V236.107H926.456V227.027H927.71V217.945H928.399V208.864H928.512V199.783H928.638V190.887H928.557V181.621H928.706V172.54H928.773V163.459H928.863V154.378H928.886V145.297H928.908V136.215H929.305V127.135H929.395V136.215H929.79V145.297H929.813V154.378H929.835V163.459H929.925V172.54H929.993V181.621H930.142V190.887H930.061V199.783H930.187V208.864H930.301V217.945H930.99V227.027H932.243V236.107H932.898V245.188H932.999V254.269H933.892V263.351H934.604V272.432H934.727V281.697H934.705V290.593H934.886V299.674H934.954V308.756H935.224V317.837H935.439V326.918H935.506V363.242H935.71V372.323H935.778V381.404H935.924V390.485H935.971V399.566H936.083V408.647H936.162V417.728H936.605V408.647H936.627V399.566H936.707V390.485H936.842V381.404H937.034V372.323H937.103V354.161H937.238V345.08H937.305V317.837H937.543V308.756H937.723V299.674H937.927V290.593H937.994V281.513H938.107V272.432H938.176V263.351H938.717V254.269H939.812V245.188H939.926V236.107H940.411V227.027H941.823V217.945H942.602V208.864H942.625V199.783H942.751V181.621H942.864V172.54H942.886V163.459H942.954V154.378H943V145.297H943.023V136.215H943.396V127.135H943.531V136.215H943.903V145.297H943.926V154.378H943.971V163.459H944.038V172.54H944.062V181.621H944.175V199.783H944.301V208.864H944.324V217.945H945.103V227.027H946.515V236.107H947V245.188H947.112V254.269H948.209V263.351H948.751V272.432H948.818V281.513H948.932V290.593H948.999V299.674H949.202V308.756H949.383V317.837H949.62V345.08H949.688V354.161H949.823V372.323H949.891V381.404H950.084V390.485H950.219V399.566H950.297V408.647H950.32V417.728H950.695V408.647H950.764V399.566H950.888V390.485H951.057V381.404H951.148V372.323H951.171V363.242H951.283V354.161H951.351V345.08H951.418V335.999H951.487V327.102H951.418V317.837H951.701V308.756H951.905V299.674H951.972V281.513H952.118V272.432H952.311V263.351H952.661V254.269H953.994V245.188H954.039V236.107H955.214V227.027H955.993V217.945H956.626V208.864H956.738V199.783H956.865V190.887H956.783V181.621H957.023V172.724H957V163.459H957.091V154.378H957.158V145.481H957.113V136.215H957.475V127.135H957.677V136.215H958.039V145.481H957.994V154.378H958.061V163.459H958.153V172.724H958.13V181.621H958.369V190.887H958.288V199.783H958.414V208.864H958.527V217.945H959.16V227.027H959.939V236.107H961.113V245.188H961.159V254.269H962.491V263.351H962.841V272.432H963.034V281.513H963.18V299.674H963.248V308.756H963.451V317.837H963.734V327.102H963.667V335.999H963.734V345.08H963.802V354.161H963.869V363.242H963.982V372.323H964.004V381.404H964.096V390.485H964.264V399.566H964.389V408.647H964.457V417.728H964.821V408.832H964.754V399.566H964.945V390.485H965.216V381.588H965.16V372.323H965.465V363.427H965.396V354.161H965.465V345.08H965.578V336.183H965.533V326.918H965.623V317.837H965.746V308.756H966.018V299.674H966.108V290.778H966.085V281.513H966.233V272.432H966.424V263.351H966.447V254.269H967.995V245.188H968.018V236.107H969.632V227.027H970.152V217.945H970.727V208.864H970.886V199.783H971.011V190.887H970.853V181.621H970.92V172.54H970.978V163.459H971.227V154.378H971.249V136.215H971.543V127.135H971.837V136.215H972.131V154.378H972.153V163.459H972.401V172.54H972.46V181.621H972.527V190.887H972.367V199.783H972.494V208.864H972.653V217.945H973.228V227.027H973.748V236.107H975.362V245.188H975.385V254.269H976.932V263.351H976.954V272.432H977.147V281.513H977.293V290.778H977.271V299.674H977.362V308.756H977.632V317.837H977.757V326.918H977.847V336.183H977.802V345.08H977.915V354.161H977.982V363.427H977.915V372.323H978.22V381.588H978.164V390.485H978.435V399.566H979.183V390.485H979.329V381.404H979.352V372.507H978.528V363.242H979.442V354.161H979.533V345.08H979.556V326.918H979.736V318.021H979.68V308.756H980.086V299.674H980.222V290.778H980.198V281.513H980.346V272.432H980.47V263.351H980.73V254.269H982.153V245.188H982.254V236.107H983.949V227.027H984.14V217.945H984.773V208.864H984.966V199.783H985.092V190.887H984.988V181.621H985.115V172.54H985.137V163.459H985.34V154.563H985.317V145.297H985.362V136.215H985.679V127.135H985.928V136.215H986.244V145.297H986.289V154.563H986.266V163.459H986.469V172.54H986.491V181.621H986.618V190.887H986.515V199.783H986.641V208.864H986.833V217.945H987.466V227.027H987.657V236.107H989.352V245.188H989.453V254.269H990.876V263.351H991.136V272.432H991.26V281.513H991.408V290.778H991.385V299.674H991.52V308.756H994.199V299.674H994.268V281.697H994.199V272.432H994.583V263.535H994.561V254.269H996.064V245.188H996.481V236.107H997.972V227.027H998.322V217.945H998.933V208.864H998.989V199.783H999.239V190.887H999.146V181.805H999.101V172.54H999.239V163.459H999.43V154.563H999.408V145.481H999.385V136.215H999.792V127.135H1000.04V136.215H1000.45V145.481H1000.42V154.563H1000.4V163.459H1000.59V172.54H1000.73V181.805H1000.69V190.887H1000.59V199.783H1000.85V208.864H1000.9V217.945H1001.51V227.027H1001.86V236.107H1003.35V245.188H1003.77V254.269H1005.27V263.535H1005.25V272.432H1005.63V281.697H1005.57V299.674H1005.63V308.756H1008.31V299.674H1008.45V290.593H1008.47V281.697H1008.45V272.432H1008.7V254.269H1010.24V245.188H1010.68V236.107H1012.06V227.027H1012.37V217.945H1012.92V208.864H1013.12V199.783H1013.39V190.887H1013.35V181.805H1013.32V172.724H1013.24V163.459H1013.5V154.378H1013.54V145.297H1013.67V136.215H1013.95V127.135H1014.11V136.215H1014.39V145.297H1014.52V154.378H1014.56V163.459H1014.82V172.724H1014.74V181.805H1014.71V190.887H1014.67V199.783H1014.94V208.864H1015.14V217.945H1015.69V227.027H1016V236.107H1017.38V245.188H1017.82V254.269H1019.36V272.432H1019.61V281.697H1019.59V290.593H1019.61V299.674H1019.75V308.756H1022.4V299.674H1022.45V290.593H1022.52V281.513H1022.75V263.535H1022.68V254.269H1023.94V245.188H1024.93V236.107H1026.2V227.027H1026.35V217.945H1027.06V208.864H1027.19V190.702H1027.35V172.54H1027.48V163.459H1027.61V154.378H1027.68V145.297H1027.74V136.215H1028V127.135H1028.29V136.215H1028.55V145.297H1028.61V154.378H1028.67V163.459H1028.81V172.54H1028.94V190.702H1029.09V208.864H1029.23V217.945H1029.94V227.027H1030.09V236.107H1031.35V245.188H1032.35V254.269H1033.61V263.535H1033.53V281.513H1033.77V290.593H1033.84V299.674H1033.88V308.756H1035.4V317.837H1036.22V299.674H1036.56V290.593H1036.76V281.697H1036.67V272.432H1036.8V263.535H1036.77V254.269H1037.83V245.188H1038.98V236.107H1040V227.027H1040.46V217.945H1041.15V208.864H1041.31V199.783H1041.42V190.702H1041.54V172.54H1041.58V163.459H1041.7V154.378H1041.79V145.481H1041.75V136.215H1042.11V127.135H1042.4V136.215H1042.77V145.481H1042.72V154.378H1042.81V163.459H1042.93V172.54H1042.97V190.702H1043.09V199.783H1043.21V208.864H1043.37V217.945H1044.05V227.027H1044.52V236.107H1045.53V245.188H1046.69V254.269H1047.75V263.535H1047.71V272.432H1047.84V281.697H1047.76V290.593H1047.95V299.674H1050.76V281.697H1050.72V272.432H1050.91V263.535H1050.79V254.269H1051.95V245.188H1052.84V236.107H1054.59V227.21H1048.62V217.945H1055.47V209.049H1055.26V199.783H1055.47V190.702H1055.66V172.54H1055.69V163.459H1055.84V154.378H1055.88V145.481H1055.86V136.215H1056.22V127.135H1056.35V118.054H1056.39V127.135H1056.52V136.215H1056.88V145.481H1056.86V154.378H1056.9V163.459H1057.05V172.54H1057.08V190.702H1057.28V199.783H1057.48V209.049H1057.28V217.945H1069.58V209.049H1068.82V199.783H1069.65V181.805H1069.62V172.724H1069.45V163.459H1069.95V145.297H1069.97V136.215H1070.38V127.135H1070.59V136.215H1070.99V145.297H1071.01V163.459H1071.51V172.724H1071.34V181.805H1071.32V199.783H1072.15V209.049H1071.39V217.945H1083.45V209.049H1078.06V199.783H1083.62V190.702H1083.82V181.805H1083.69V172.724H1081.3V163.459H1084.24V154.563H1084.07V145.297H1084.09V136.215H1084.47V127.135H1084.72V136.215H1085.11V145.297H1085.13V154.563H1084.96V163.459H1087.9V172.724H1085.5V181.805H1085.38V190.702H1085.57V199.783H1091.14V209.049H1085.74V217.945H1095.16V208.864H1095.58V199.783H1098.02V190.702H1098.08V181.805H1097.6V172.724H1090.13V163.459H1097.92V154.378H1098.2V145.481H1098.16V136.215H1098.61V127.135H1098.81V136.215H1099.26V145.481H1099.22V154.378H1099.5V163.459H1112.29V154.378H1112.41V145.297H1112.49V136.215H1112.7V127.135H1112.95V136.215H1113.16V145.297H1113.24V154.378H1113.35V163.459H1119.2V154.378H1126.68V145.481H1118.26V136.215H1134.97V127.135H1147.13V136.215H1150.64V127.135H1153.46V118.238H1132.5V108.973H1135.35V100.076H1132.58V90.8103H1140.88V81.914H1132.61V72.6486H1147.12V63.5677H1148.19V54.486H1163.27V45.5897H1162.89V36.3243H1169.04V27.4271H1167.23V18.3463H1166.19V9.08085H1172.36V18.3463H1171.32V27.4271H1169.51V36.3243H1175.55V27.2434H1189.1V18.1617H1205.91V27.4271H1205.69V36.3243H1219.72V45.4051H1225.66V36.3243H1225.71V27.2434H1225.75V36.3243H1225.8V45.4051H1233.27V36.3243H1245.35V27.2434H1246.78V18.1617H1253.34V9.08085H1254.58V18.1617H1261.13V27.2434H1262.57V36.3243H1264.01V27.4271H1263.15V18.3463H1262.08V9.08085H1265.51V0H1270.64V9.08085ZM18.5175 435.891H18.6525V444.971H18.675V454.052H18.8452V463.133H19.0702V472.215H19.2769V463.133H19.3444V454.052H19.4344V444.971H19.4906V426.993H18.5175V435.891ZM32.8345 463.133H32.902V472.215H33.1988V463.133H33.5714V454.237H32.8345V463.133ZM47.2064 472.215H47.2556V463.318H47.2064V472.215ZM4.40297 435.891H4.51688V444.971H4.56188V454.052H4.70813V463.133H5.10609V454.052H5.27625V444.971H5.29875V435.891H5.43375V426.993H4.40297V435.891ZM583.338 454.052H583.758V445.156H583.338V454.052ZM809.345 454.052H809.359V445.156H809.345V454.052ZM583.111 435.891H583.767V444.971H583.781V435.891H583.848V426.993H583.111V435.891ZM569.201 435.891H569.915V426.993H569.201V435.891ZM922.195 435.891H922.582V426.993H922.195V435.891ZM992.773 435.891H992.811V426.993H992.773V435.891ZM287.599 426.81H287.613V417.913H287.599V426.81ZM300.876 426.81H301.229V417.913H300.876V426.81ZM540.896 426.81H541.157V417.913H540.896V426.81ZM555.415 426.81H555.645V417.913H555.415V426.81ZM978.559 417.728H978.75V426.81H978.788V417.728H978.991V408.832H978.559V417.728ZM992.82 426.81H993.059V417.913H992.82V426.81ZM1006.77 426.81H1006.9V417.913H1006.77V426.81ZM315.091 408.832H315.001V417.728H316.021V408.832H315.941V399.751H315.091V408.832ZM555.607 408.647H555.653V417.728H555.735V408.647H555.825V399.751H555.607V408.647ZM1063.13 417.728H1063.5V408.832H1063.13V417.728ZM1077.47 417.728H1077.48V408.832H1077.47V417.728ZM117.198 408.647H117.359V399.751H117.198V408.647ZM273.305 408.647H273.703V399.751H273.305V408.647ZM286.56 408.647H287.76V399.751H286.56V408.647ZM300.729 408.647H301.625V399.751H300.729V408.647ZM1020.7 399.566H1020.94V408.647H1021.08V399.566H1021.21V390.669H1020.7V399.566ZM1035.2 408.647H1035.3V399.751H1035.2V408.647ZM103.39 399.566H103.788V390.669H103.39V399.566ZM471.31 399.566H471.358V390.669H471.31V399.566ZM484.08 399.566H484.761V390.669H484.08V399.566ZM992.277 390.485H992.423V399.566H993.173V390.485H993.319V381.588H992.277V390.485ZM1006.52 390.485H1006.66V399.566H1007.36V390.669H1007.22V381.588H1006.52V390.485ZM484.848 390.485H485.009V381.588H484.848V390.485ZM540.557 390.485H541.485V381.588H540.557V390.485ZM286.334 381.404H288.392V372.507H286.334V381.404ZM441.186 372.323H443.309V381.404H443.527V372.507H443.381V363.427H441.186V372.323ZM470.204 381.404H470.5V372.507H470.204V381.404ZM540.353 363.242H541.595V372.507H541.516V381.404H541.96V372.323H542.322V363.427H542.152V354.346H540.353V363.242ZM1402.35 381.404H1402.67V372.507H1402.35V381.404ZM1415.75 381.404H1416.39V372.507H1415.75V381.404ZM131.572 372.323H131.801V363.427H131.572V372.323ZM342.392 363.242H342.765V372.323H343.863V363.427H343.524V354.346H342.392V363.242ZM429.117 372.323H429.571V363.427H429.117V372.323ZM991.87 326.918H992.05V345.08H992.073V354.161H992.164V363.242H993.078V372.323H993.804V363.427H993.556V354.161H993.815V345.264H993.51V335.999H993.871V326.918H993.884V318.021H991.87V326.918ZM1006.28 363.427H1006.03V372.323H1007.85V354.346H1006.28V363.427ZM1020.21 372.323H1022.04V363.427H1021.41V354.346H1020.21V372.323ZM1034.24 372.323H1034.44V363.427H1034.24V372.323ZM45.6595 363.242H45.7298V354.346H45.6595V363.242ZM470.363 363.242H471.946V354.346H470.363V363.242ZM483.493 363.242H485.213V354.346H483.493V363.242ZM59.4914 354.161H59.7755V345.264H59.4914V354.161ZM117.017 354.161H119.471V345.264H117.017V354.161ZM130.295 354.161H131.112V345.264H130.295V354.161ZM246.026 354.161H246.029V345.264H246.026V354.161ZM257.78 354.161H260.187V345.264H257.78V354.161ZM271.848 354.161H274.482V345.264H271.848V354.161ZM428.902 354.161H429.358V345.264H428.902V354.161ZM358.256 345.08H359.287V336.183H358.256V345.08ZM370.337 345.08H370.972V336.183H370.337V345.08ZM469.346 345.08H471.98V336.183H469.346V345.08ZM526.126 345.08H528.434V336.183H526.126V345.08ZM1005.95 326.918H1005.96V335.999H1006.32V345.08H1007.78V335.999H1007.91V327.102H1006.03V318.021H1005.95V326.918ZM1020.28 345.08H1021.14V336.183H1020.28V345.08ZM59.7277 335.999H63.2433V327.102H59.7277V335.999ZM73.6158 335.999H73.935V327.102H73.6158V335.999ZM244.004 326.918H245.846V335.999H246.435V326.918H246.639V318.021H244.004V326.918ZM1387.18 335.999H1388.35V327.102H1387.18V335.999ZM1401.7 317.837H1402.37V327.102H1401.84V335.999H1402.64V327.102H1402.45V317.837H1402.68V308.94H1401.7V317.837ZM102.26 326.918H105.38V318.021H102.26V326.918ZM116.159 326.918H116.229V318.021H116.159V326.918ZM145.707 326.918H145.755V318.021H145.707V326.918ZM369.976 326.918H372.542V318.021H369.976V326.918ZM401.421 326.918H401.424V318.021H401.421V326.918ZM412.824 317.837H412.881V326.918H413.357V317.837H415.988V308.94H412.824V317.837ZM514.52 318.021H512.08V326.918H514.671V317.837H515.077V308.94H514.52V318.021ZM1048.29 317.837H1050.01V308.94H1048.29V317.837ZM242.672 299.674H244.897V308.756H247.147V299.859H247.068V290.778H242.672V299.674ZM373.013 308.756H373.784V299.859H373.013V308.756ZM384.067 308.756H384.408V299.859H384.067V308.756ZM482.837 308.756H483.224V299.859H482.837V308.756ZM514.261 308.756H514.467V299.859H514.261V308.756ZM1058.15 236.107H1059.9V245.188H1060.79V254.269H1061.95V263.535H1061.83V272.432H1062.02V281.697H1061.99V299.674H1064.53V308.756H1064.59V299.674H1064.72V290.593H1065.09V281.697H1064.96V272.616H1064.95V263.351H1065.02V254.269H1065.9V245.188H1066.96V236.292H1062.82V227.21H1058.15V236.107ZM1074.01 245.188H1075.07V254.269H1075.95V263.351H1076.02V272.616H1076.01V281.697H1075.87V290.593H1076.25V299.674H1076.38V308.756H1078.68V299.859H1076.6V290.593H1078.7V281.513H1079.03V272.616H1076.89V263.351H1077.62V254.269H1079.9V245.373H1075.97V236.292H1074.01V245.188ZM1090.52 308.756H1091.82V299.859H1090.52V308.756ZM232.353 299.674H232.91V290.778H232.353V299.674ZM386.765 290.778H385.975V299.674H386.972V290.593H387.051V281.697H386.765V290.778ZM399.026 290.593H399.105V299.674H401.83V290.593H402.858V281.697H399.026V290.593ZM1373.19 272.616H1372.85V281.697H1372.59V290.593H1373.85V299.674H1375.18V290.778H1375.14V281.697H1375.06V263.535H1373.19V272.616ZM1386.9 281.697H1386.82V290.778H1386.77V299.674H1389.15V290.778H1389.05V281.513H1389.23V272.616H1389.17V263.535H1386.9V281.697ZM113.685 272.432H113.799V281.513H114.951V290.593H120.375V281.513H121.515V272.616H119.641V263.535H113.685V272.432ZM130.126 272.616H128.251V281.513H129.392V290.593H133.121V281.513H134.973V272.616H130.411V263.535H130.126V272.616ZM144.872 290.593H144.92V281.697H144.872V290.593ZM1090.17 281.513H1090.49V290.593H1093.16V281.697H1093.1V272.616H1090.17V281.513ZM1104.33 281.697H1104.26V290.593H1104.77V281.513H1106.62V272.616H1104.33V281.697ZM1360.11 290.593H1361.14V281.697H1360.11V290.593ZM143.02 281.513H144.626V272.616H143.02V281.513ZM189.392 281.513H192.534V272.616H189.392V281.513ZM198.367 281.513H206.173V272.616H198.367V281.513ZM217.686 272.616H212.954V281.513H219.677V272.432H220.636V263.535H217.686V272.616ZM384.675 272.616H380.453V281.513H384.77V272.432H389.4V263.535H384.675V272.616ZM1389.35 263.351H1389.5V254.454H1389.35V263.351ZM127.37 254.269H130.874V245.373H127.37V254.269ZM147.119 254.269H147.992V245.373H147.119V254.269ZM158.228 254.269H158.57V245.373H158.228V254.269ZM218.126 254.269H218.773V245.373H218.126V254.269ZM1089.3 254.269H1090.96V245.373H1089.3V254.269ZM1361.06 236.292H1360.98V245.373H1358.62V254.269H1361.15V236.107H1362.64V227.21H1361.06V236.292ZM1121.35 245.188H1122.58V236.292H1121.35V245.188ZM1131.3 245.188H1133.39V236.292H1131.3V245.188ZM1107.23 236.107H1107.59V227.21H1107.23V236.107ZM1118.06 236.107H1119.02V227.21H1118.06V236.107ZM1248.52 236.107H1249.42V227.21H1248.52V236.107ZM1258.5 236.107H1259.4V227.21H1258.5V236.107ZM129.143 227.027H138.68V218.129H129.143V227.027ZM139.313 227.027H144.592V218.129H139.313V227.027ZM1333.13 209.049H1328.14V217.945H1333.11V227.027H1334.88V218.129H1334.73V208.864H1337.48V199.968H1333.13V209.049ZM1339.79 208.864H1342.55V218.129H1342.4V227.027H1346.64V217.945H1348.84V208.864H1350.49V199.968H1339.79V208.864ZM202.974 217.945H203.825V209.049H202.974V217.945ZM1099.82 181.805H1099.34V190.702H1099.4V199.783H1101.84V208.864H1102.26V217.945H1104.68V208.864H1110.24V199.968H1105.92V190.887H1104.46V181.621H1112.19V172.724H1099.82V181.805ZM1318.94 217.945H1320.91V209.049H1318.94V217.945ZM175.832 208.864H177.765V199.968H175.832V208.864ZM184.908 208.864H187.158V199.968H184.908V208.864ZM1115.41 208.864H1126.81V199.968H1115.41V208.864ZM1127.06 208.864H1133.14V199.968H1127.06V208.864ZM189.923 190.887H189.754V199.783H191.993V190.702H194.795V181.805H189.923V190.887ZM1135.23 199.783H1136.4V190.887H1135.23V199.783ZM1145.71 199.783H1147.22V190.887H1145.71V199.783ZM1318.93 199.783H1322.82V190.887H1318.93V199.783ZM1326.23 199.783H1331.78V190.887H1326.23V199.783ZM1113.46 181.621H1118.4V172.724H1113.46V181.621ZM1234.27 181.621H1235.95V172.724H1234.27V181.621ZM1243.74 181.621H1245.35V172.724H1243.74V181.621ZM175.56 163.459H179.325V154.563H175.56V163.459ZM1234.07 163.459H1234.91V154.563H1234.07V163.459ZM1244.78 163.459H1245.28V154.563H1244.78V163.459ZM156.173 154.378H158.548V145.481H156.173V154.378ZM1127.2 154.378H1132.37V145.481H1127.2V154.378ZM1156.87 127.135H1159.68V136.215H1160.6V118.238H1156.87V127.135ZM1248.27 136.215H1248.56V127.319H1248.27V136.215ZM1259.36 136.215H1260.02V127.319H1259.36V136.215ZM1247.78 118.054H1260.43V109.157H1247.78V118.054ZM1220.1 63.5677H1234.28V72.8332H1232.94V81.914H1219.9V90.9949H1217.87V99.8911H1225.13V90.8103H1226.33V99.8911H1231.98V90.8103H1235.49V81.7294H1237.17V72.6486H1242.52V81.7294H1244.2V90.8103H1247.71V99.8911H1248.02V90.8103H1249.2V81.914H1248.09V72.6486H1259.82V81.7294H1260.15V72.6486H1260.45V63.7514H1245.74V54.6706H1220.1V63.5677ZM1259.9 99.8911H1260.63V90.9949H1259.9V99.8911ZM1149.49 81.914H1141.22V90.8103H1160.96V72.8332H1149.49V81.914ZM1258.71 90.8103H1259.78V81.914H1258.71V90.8103ZM1206.09 72.6486H1211.45V63.7514H1206.09V72.6486ZM1211.79 72.6486H1217.18V63.7514H1211.79V72.6486ZM1177.61 63.5677H1182.79V54.6706H1177.61V63.5677ZM1183.99 63.5677H1189.02V54.6706H1183.99V63.5677ZM1205.53 54.486H1217.62V45.5897H1205.53V54.486Z" fill="#2C2824"/>
<path d="M139.902 163.643H138.091V154.378H139.902V163.643Z" fill="#2C2824"/>
<path d="M140.953 145.481H137.04V136.215H140.953V145.481Z" fill="#2C2824"/>
<path d="M1127.15 100.076H1127.13V108.973H1128.58V118.238H1125.3V108.973H1126.75V100.076H1126.72V90.8103H1127.15V100.076Z" fill="#2C2824"/>
<path d="M1324.57 81.7294H1324.82V90.9949H1324.67V100.076H1324.59V108.973H1325.06V118.238H1323.99V108.973H1324.46V100.076H1324.38V90.9949H1324.23V81.7294H1324.48V72.6486H1324.57V81.7294Z" fill="#2C2824"/>
<path d="M1028.17 90.9949H1028.12V81.7294H1028.17V90.9949Z" fill="#2C2824"/>
<path d="M1042.3 90.9949H1042.21V81.7294H1042.3V90.9949Z" fill="#2C2824"/>
<path d="M1056.39 90.9949H1056.35V81.7294H1056.39V90.9949Z" fill="#2C2824"/>
<path d="M1070.53 90.9949H1070.44V81.7294H1070.53V90.9949Z" fill="#2C2824"/>
<path d="M1112.97 90.9949H1112.68V81.7294H1112.97V90.9949Z" fill="#2C2824"/>
<path d="M1144.66 63.7514H1137.45V54.486H1144.66V63.7514Z" fill="#2C2824"/>
<path d="M1296.32 54.6706H1296.28V45.4051H1296.32V54.6706Z" fill="#2C2824"/>
<path d="M1145.38 36.5089H1136.72V27.2434H1145.38V36.5089Z" fill="#2C2824"/>
<path d="M1215.81 27.4271H1207.43V18.1617H1215.81V27.4271Z" fill="#2C2824"/>
</svg>
