<svg width="1440" height="480" viewBox="0 0 1440 480" fill="none" xmlns="http://www.w3.org/2000/svg">
<path fill-rule="evenodd" clip-rule="evenodd" d="M1438.31 119.519H1439.18V125.809H1439.2V138.519H1439.1V144.809H1439.06V151.099H1438.96V157.389H1438.86V169.971H1438.59V176.261H1438.55V182.424H1438.59V188.714H1438.62V195.132H1438.55V201.423H1438.31V207.713H1438.08V220.294H1437.91V226.585H1437.64V232.875H1437.6V251.618H1440V480H0V213.876H1.15078V220.294H1.04883V226.457H1.08281V232.875H0.575391V239.038H0.982031V245.328H1.1168V251.618H1.21758V258.037H1.15078V264.327H1.1168V270.49H1.28672V289.361H1.3875V308.232H1.45547V314.523H1.76016V320.813H8.45039V314.65H8.41523V308.232H8.45039V295.652H8.51719V289.361H8.55117V283.198H8.51719V276.78H8.58516V270.49H8.71992V257.909H8.75391V245.328H8.88984V239.038H10.0078V232.875H8.75391V226.457H8.78789V220.166H9.02578V213.876H14.925V220.166H15.1617V226.457H15.1957V232.875H13.943V239.038H15.0609V245.328H15.1957V257.909H15.2297V270.49H15.3656V276.78H15.4336V283.198H15.3996V289.361H15.4336V295.652H15.5016V308.232H15.5344V314.65H15.5016V320.813H20.3227V327.104H20.516V333.522H20.0414V339.812H18.4488V345.976H23.1047V339.812H20.6086V333.395H22.6313V327.104H22.698V320.941H22.6313V301.942H22.6641V283.07H22.698V276.78H22.8328V264.199H22.868V257.909H22.902V251.618H23.0707V245.328H23.5805V239.165H22.902V232.747H23.0039V226.585H22.9699V220.294H22.868V213.876H23.3086V207.585H28.8691V213.876H29.3086V220.294H29.2078V226.585H29.1738V232.747H29.2758V239.165H28.5973V245.328H29.107V251.618H29.2758V257.909H29.3086V264.199H29.3438V276.78H29.4797V283.07H29.5125V301.942H29.5465V320.941H29.4797V327.104H29.5465V333.395H31.5691V339.812H29.073V345.976H37.0266V339.812H36.8344V333.395H36.8918V327.231H36.8449V320.941H36.8109V302.07H36.7781V289.361H36.9141V283.07H36.948V276.78H36.982V264.199H37.0148V257.909H37.0828V251.618H37.3207V245.456H37.1953V239.165H37.0711V232.875H36.9141V226.457H37.0828V220.166H37.7836V213.876H39.0141V207.585H41.3906V213.876H42.6211V220.166H43.3207V226.457H43.4906V232.875H43.3324V239.165H43.2082V245.456H43.0852V251.618H43.3207V257.909H43.3898V264.199H43.4238V276.78H43.4578V283.07H43.4906V289.361H43.6266V302.07H43.5926V320.941H43.5586V327.231H43.5141V333.395H43.5703V339.812H43.3781V345.976H46.6535V352.267H51.3328V346.104H51.0949V339.812H51.027V333.395H51.0609V327.231H51.027V320.941H50.9262V308.232H51.027V301.942H51.0609V289.361H51.0949V283.07H51.2297V276.908H51.0949V270.49H51.2297V264.199H51.2637V257.909H51.2988V251.618H51.5016V245.456H51.4453V239.165H51.3656V232.747H51.941V226.585H51.2637V220.166H51.3996V213.876H51.941V207.585H56.6906V213.876H57.232V220.166H57.3668V226.585H56.6906V232.747H57.2648V239.165H57.1863V245.456H57.1301V251.618H57.3328V257.909H57.3668V264.199H57.402V270.49H57.5367V276.908H57.402V283.07H57.5367V289.361H57.5707V301.942H57.6047V308.232H57.7055V320.941H57.6047V327.231H57.5707V333.395H57.6047V339.812H57.5367V346.104H57.2988V352.267H62.8336V358.557H62.9578V364.847H65.9977V358.685H63.9328V352.267H65.3777V339.812H65.2418V333.522H65.2078V327.231H65.1398V314.523H65.1738V301.942H65.2078V289.361H65.3109V283.07H65.3672V276.908H65.2992V270.49H65.3438V264.199H65.3777V257.909H65.4234V251.618H65.4797V245.328H65.6145V239.165H65.5465V232.747H65.8184V226.585H65.5465V220.166H66.3703V213.876H66.7676V207.585H70.0922V213.876H70.4871V220.166H71.3109V226.585H71.0391V232.747H71.3109V239.165H71.243V245.328H71.3789V251.618H71.4363V257.909H71.4809V264.199H71.5148V270.49H71.5594V276.908H71.4926V283.07H71.5488V289.361H71.6496V301.942H71.6836V314.523H71.7176V327.231H71.6496V333.522H71.6156V339.812H71.4809V352.267H72.927V358.685H70.8598V364.847H79.5926V358.557H79.6266V352.394H79.5926V346.104H79.5363V339.812H79.4016V333.395H79.4121V327.231H79.3559V314.65H79.2867V308.232H79.3207V301.942H79.3559V295.652H79.4238V289.361H79.4578V283.07H79.5246V276.908H79.4578V270.49H79.4906V264.199H79.5926V257.909H79.6711V251.746H79.6594V245.328H79.8305V239.165H79.7625V232.747H79.7965V226.457H79.841V220.166H80.2699V213.876H80.9813V207.585H84.1031V213.876H84.8156V220.166H85.2445V226.457H85.2891V232.747H85.3231V239.165H85.2551V245.328H85.4238V251.746H85.4133V257.909H85.493V264.199H85.5938V270.49H85.6277V276.908H85.5609V283.07H85.6277V289.361H85.6617V295.652H85.7297V301.942H85.7625V308.232H85.7965V314.65H85.7297V327.231H85.6734V333.395H85.684V339.812H85.5492V346.104H85.493V352.394H85.459V358.557H85.493V364.847H93.7055V358.557H93.7406V352.267H93.7746V346.104H93.6492V339.812H93.593V333.395H93.6047V327.231H93.5813V320.941H93.5367V301.942H93.5707V295.652H93.6047V283.198H93.5367V276.78H93.7406V270.49H93.7746V264.327H93.7406V257.909H93.8309V251.746H93.7969V245.328H93.9094V239.038H93.9316V232.747H94.7227V226.585H93.9211V220.166H94.3828V213.876H98.9285V220.166H99.3914V226.585H98.5898V232.747H99.3797V239.038H99.402V245.328H99.5156V251.746H99.4805V257.909H99.5719V264.327H99.5391V270.49H99.5719V276.78H99.7746V283.198H99.7078V295.652H99.7406V301.942H99.7746V320.941H99.7301V327.231H99.7078V333.395H99.7184V339.812H99.6621V346.104H99.5391V352.267H99.5719V358.557H99.6059V364.847H105.786V358.557H108.125V352.394H107.797V345.976H107.854V339.812H107.752V333.395H107.763V320.813H107.82V314.65H107.752V308.36H107.684V295.652H107.752V289.361H107.854V283.198H107.82V276.78H107.888V270.49H107.955V264.199H107.988V257.909H108.012V245.328H108.022V239.038H108.159V232.747H108.498V226.585H107.988V220.166H108.328V213.876H109.547V207.585H111.991V213.876H113.211V220.166H113.55V226.585H113.041V232.747H113.38V239.038H113.517V245.328H113.528V257.909H113.55V264.199H113.584V270.49H113.652V276.78H113.719V283.198H113.686V289.361H113.787V295.652H113.855V308.36H113.787V314.65H113.719V320.813H113.775V333.395H113.787V339.812H113.686V345.976H113.742V352.394H113.414V358.557H115.753V364.847H116.714V358.685H116.331V352.267H117.506V345.976H121.934V339.685H121.966V333.522H121.922V327.104H121.934V320.941H121.877V314.65H121.866V308.232H121.966V302.07H121.934V295.652H121.966V283.07H122.068V264.199H122.102V257.909H122.17V251.618H122.182V245.328H122.419V239.165H122.272V232.875H122.194V226.457H122.272V220.166H122.577V213.876H127.189V220.166H127.493V226.457H127.574V232.875H127.493V239.165H127.348V245.328H127.584V251.618H127.596V257.909H127.664V264.199H127.697V283.07H127.799V295.652H127.833V302.07H127.799V308.232H127.9V314.65H127.889V320.941H127.833V327.104H127.843V333.522H127.799V339.685H127.833V345.976H132.26V352.267H133.855V346.104H133.121V339.685H136.373V333.522H136.046V314.523H136.08V308.232H136.113V295.652H136.216V289.489H136.113V283.07H136.216V264.199H136.25V257.909H136.385V245.328H136.577V239.165H136.419V232.747H136.464V226.585H136.453V220.166H136.724V213.876H141.27V220.166H141.539V226.585H141.527V232.747H141.573V239.165H141.415V245.328H141.608V257.909H141.743V264.199H141.777V283.07H141.878V289.489H141.777V295.652H141.878V308.232H141.912V314.523H141.947V333.522H141.619V339.685H144.872V345.976H150.263V339.685H150.363V333.522H150.295V327.231H150.229V314.523H150.295V302.07H150.229V295.652H150.295V283.07H150.397V270.617H150.329V264.199H150.397V257.909H150.532V251.746H150.498V245.328H150.668V239.165H150.579V232.747H150.657V226.585H150.532V220.166H151.008V213.876H155.213V220.166H155.687V226.585H155.562V232.747H155.643V239.165H155.551V245.328H155.721V251.746H155.687V257.909H155.822V264.199H155.89V270.617H155.822V283.07H155.924V295.652H155.993V302.07H155.924V314.523H155.993V327.231H155.924V333.522H155.856V339.685H155.958V345.976H161.459V352.394H160.804V358.557H162.691V352.267H164.566V346.104H164.476V339.812H164.375V333.395H164.442V320.941H164.409V295.652H164.442V289.361H164.476V283.07H164.613V276.78H164.646V270.617H164.466V264.199H164.51V257.909H164.646V251.618H164.692V245.328H164.714V239.038H164.726V232.875H164.692V226.457H164.782V220.166H165.289V213.876H169.157V220.166H169.665V226.457H169.755V232.875H169.721V239.038H169.733V245.328H169.755V251.618H169.8V257.909H169.936V264.199H169.98V270.617H169.8V276.78H169.834V283.07H169.969V289.361H170.003V295.652H170.038V320.941H170.003V333.395H170.072V339.812H169.969V346.104H169.88V352.267H171.754V358.557H175.628V364.847H177.527V358.557H178.771V352.394H178.76V346.104H178.726V339.812H178.623V333.522H178.556V327.231H178.522V314.523H178.556V308.232H178.623V302.07H178.522V295.652H178.556V283.07H178.726V257.909H178.861V251.746H178.793V245.328H178.861V239.038H178.962V232.875H178.895V226.585H178.861V220.166H179.245V213.876H183.429V220.166H183.812V226.585H183.778V232.875H183.711V239.038H183.812V245.328H183.88V251.746H183.812V257.909H183.947V283.07H184.118V295.652H184.151V302.07H184.05V308.232H184.118V314.523H184.151V327.231H184.118V333.522H184.05V339.812H183.947V346.104H183.914V352.394H183.902V358.557H185.146V364.847H192.738V358.557H192.918V352.394H192.907V346.104H192.839V339.812H192.738V320.941H192.669V289.361H192.805V283.07H192.907V276.908H192.805V270.49H192.907V257.909H193.043V251.618H193.055V245.328H193.065V239.038H193.077V226.457H193.516V220.166H197.384V226.457H197.824V239.038H197.836V245.328H197.846V251.618H197.858V257.909H197.993V270.49H198.096V276.908H197.993V283.07H198.096V289.361H198.231V320.941H198.163V339.812H198.061V346.104H197.993V352.394H197.981V358.557H198.163V364.847H203.167V371.137H203.564V364.847H206.986V358.557H207.02V346.104H206.986V339.812H206.918V327.231H206.851V295.652H206.918V289.361H206.986V264.199H207.089V257.909H207.122V251.618H207.156V245.456H207.145V239.038H207.19V232.747H207.291V226.457H208.036V220.166H211.091V226.457H211.836V232.747H211.937V239.038H211.983V245.456H211.971V251.618H212.005V257.909H212.039V264.199H212.141V289.361H212.209V295.652H212.276V327.231H212.209V339.812H212.141V346.104H212.106V358.557H212.141V364.847H215.563V371.137H221.1V364.847H221.134V358.685H221.112V352.267H221.134V346.104H221.1V339.812H221.065V333.522H220.964V308.232H221.032V301.942H221.065V295.779H220.964V289.361H221.065V283.07H221.1V270.49H221.134V264.199H221.269V239.038H221.303V232.747H221.405V226.457H222.793V220.166H224.559V226.457H225.949V232.747H226.05V239.038H226.084V264.199H226.221V270.49H226.254V283.07H226.288V289.361H226.39V295.779H226.288V301.942H226.322V308.232H226.39V333.522H226.288V339.812H226.254V346.104H226.221V352.267H226.243V358.685H226.221V364.847H226.254V371.137H229.239V364.847H234.682V358.557H235.416V352.394H235.349V346.104H235.315V339.812H235.214V333.522H235.146V327.104H235.18V320.941H235.146V314.523H235.18V308.232H235.214V301.942H235.315V295.779H235.146V289.361H235.214V283.198H235.18V276.78H235.303V270.49H235.349V264.199H235.416V257.909H235.484V251.618H235.575V245.456H235.519V239.165H235.383V232.747H236.026V226.585H235.948V220.166H239.633V226.585H239.555V232.747H240.199V239.165H240.062V245.456H240.006V251.618H240.096V257.909H240.164V264.199H240.232V270.49H240.278V276.78H240.401V283.198H240.368V289.361H240.435V295.779H240.266V301.942H240.368V308.232H240.401V314.523H240.435V320.941H240.401V327.104H240.435V333.522H240.368V339.812H240.266V346.104H240.232V352.394H240.164V358.557H240.899V364.847H246.342V371.137H249.643V364.975H249.484V358.685H249.417V352.267H249.428V339.812H249.327V333.522H249.293V320.941H249.192V314.523H249.293V308.232H249.327V301.942H249.598V295.652H249.834V289.489H249.462V283.198H249.428V276.78H249.496V264.199H249.598V251.746H249.541V245.328H249.587V239.038H250.31V232.875H249.904V226.457H253.905V232.875H253.499V239.038H254.222V245.328H254.266V251.746H254.21V264.199H254.312V276.78H254.379V283.198H254.346V289.489H253.973V295.652H254.21V301.942H254.481V308.232H254.515V314.523H254.617V320.941H254.515V333.522H254.481V339.812H254.379V352.267H254.391V358.685H254.323V364.975H254.164V371.137H259.395V377.428H260.479V383.719H262.209V377.428H263.745V371.265H263.678V364.975H263.644V358.685H263.61V345.976H263.644V339.812H263.474V333.522H263.406V308.232H263.44V301.942H263.576V295.652H263.835V289.489H263.745V283.198H263.644V276.78H263.712V270.49H263.745V264.327H263.53V257.909H263.61V251.618H264.016V245.328H264.05V239.165H263.926V232.875H263.88V226.457H264.661V220.166H267.375V226.457H268.153V232.875H268.109V239.165H267.984V245.328H268.018V251.618H268.425V257.909H268.504V264.327H268.29V270.49H268.324V276.78H268.391V283.198H268.29V289.489H268.199V295.652H268.459V301.942H268.594V308.232H268.629V333.522H268.56V339.812H268.391V345.976H268.425V358.685H268.391V364.975H268.357V371.265H268.29V377.428H269.825V383.719H272.708V377.428H278.063V371.265H277.757V358.685H277.723V339.812H277.656V333.522H277.553V314.65H277.519V308.232H277.553V295.652H277.723V289.361H277.791V283.07H278.197V276.908H277.995V270.49H278.231V264.327H277.847V257.909H277.891V251.618H278.774V245.456H277.948V239.038H277.961V232.747H278.063V226.585H277.317V220.166H282.945V226.585H282.199V232.747H282.302V239.038H282.313V245.456H281.488V251.618H282.369V257.909H282.415V264.327H282.03V270.49H282.267V276.908H282.064V283.07H282.471V289.361H282.538V295.652H282.708V308.232H282.742V314.65H282.708V333.522H282.606V339.812H282.538V358.685H282.504V371.265H282.199V377.428H287.025V371.137H288.73V364.847H291.971V358.685H291.87V346.104H291.837V333.522H291.803V327.231H291.634V320.813H291.668V301.942H291.769V295.652H291.813V289.489H291.757V283.198H291.701V276.78H291.87V270.49H291.938V264.199H292.242V258.037H291.87V251.618H292.276V245.456H292.063V239.038H292.073V232.747H292.141V226.457H296.347V232.747H296.415V239.038H296.426V245.456H296.211V251.618H296.618V258.037H296.245V264.199H296.55V270.49H296.618V276.78H296.788V283.198H296.732V289.489H296.675V295.652H296.72V301.942H296.822V320.813H296.855V327.231H296.686V333.522H296.651V346.104H296.618V358.685H296.516V364.847H299.757V371.137H301.464V377.428H301.915V383.846H301.294V390.009H305.126V383.719H305.204V377.428H306.052V371.137H306.075V364.847H306.22V358.685H306.052V352.394H305.984V346.104H305.95V339.812H305.916V333.522H305.815V327.231H305.781V320.813H305.815V314.65H305.781V308.232H305.815V295.652H305.882V289.361H305.916V283.07H306.006V276.78H306.458V270.617H305.984V264.199H306.188V257.909H306.254V251.618H306.424V245.456H306.22V239.038H306.356V232.747H306.458V226.457H310.256V232.747H310.359V239.038H310.494V245.456H310.29V251.618H310.46V257.909H310.528V264.199H310.732V270.617H310.256V276.78H310.71V283.07H310.8V289.361H310.833V295.652H310.901V308.232H310.935V314.65H310.901V320.813H310.935V327.231H310.901V333.522H310.8V339.812H310.766V346.104H310.732V352.394H310.663V358.685H310.494V364.847H310.641V371.137H310.663V377.428H311.511V383.719H311.59V390.009H315.758V396.299H318.131V390.009H320.098V383.719H320.3V377.556H320.232V371.265H320.222V364.847H320.3V358.685H320.198V352.394H320.098V346.104H320.064V327.231H319.928V301.942H319.995V295.779H319.984V283.07H320.109V276.78H320.47V270.617H320.154V264.199H320.345V258.037H320.334V251.618H320.401V245.456H320.367V239.038H320.639V232.875H320.538V226.457H324.405V232.875H324.302V239.038H324.574V245.456H324.54V251.618H324.607V258.037H324.596V264.199H324.789V270.617H324.472V276.78H324.834V283.07H324.957V295.779H324.947V301.942H325.014V327.231H324.879V346.104H324.845V352.394H324.744V358.685H324.641V364.847H324.72V371.265H324.709V377.556H324.641V383.719H324.845V390.009H326.81V396.299H328.213V390.009H330.224V383.846H329.297V377.428H334.482V364.975H334.413V358.685H334.345V352.394H334.279V339.812H334.211V333.522H334.177V320.941H334.11V308.36H334.041V295.652H334.222V289.489H334.177V283.07H334.313V276.78H334.335V270.49H334.379V264.199H334.493V258.037H334.482V245.328H334.516V239.038H334.583V232.747H335.125V226.457H338.043V232.747H338.585V239.038H338.653V245.328H338.687V258.037H338.675V264.199H338.789V270.49H338.835V276.78H338.857V283.07H338.992V289.489H338.947V295.652H339.129V308.36H339.06V320.941H338.992V333.522H338.958V339.812H338.891V352.394H338.823V358.685H338.754V364.975H338.687V377.428H343.871V383.846H342.945V390.009H347.884V383.719H348.527V377.428H348.595V371.265H348.561V364.847H348.595V358.685H348.459V352.394H348.425V346.104H348.323V339.685H348.391V333.522H348.257V320.813H348.291V295.779H348.211V289.361H348.291V283.07H348.425V276.78H348.573V270.617H348.517V264.199H348.595V257.909H348.764V251.746H348.595V245.328H348.629V232.747H350.393V226.457H351.002V232.747H352.766V245.328H352.801V251.746H352.631V257.909H352.801V264.199H352.88V270.617H352.823V276.78H352.97V283.07H353.105V289.361H353.186V295.779H353.105V320.813H353.139V333.522H353.004V339.685H353.072V346.104H352.97V352.394H352.936V358.685H352.801V364.847H352.835V371.265H352.801V377.428H352.869V383.719H353.513V390.009H357.206V396.299H358.086V402.59H358.553V396.299H362.686V390.009H362.708V383.846H362.698V377.428H362.708V371.137H362.742V358.685H362.708V352.394H362.573V346.104H362.539V339.812H362.438V333.522H362.37V327.104H362.438V320.941H362.336V314.523H362.37V308.36H362.336V301.942H362.404V289.361H362.438V283.07H362.529V276.78H362.81V270.617H362.708V264.199H362.81V257.909H362.912V251.746H362.843V245.328H362.912V239.165H362.81V232.747H363.623V226.457H365.999V232.747H366.812V239.165H366.71V245.328H366.778V251.746H366.71V257.909H366.812V264.199H366.914V270.617H366.812V276.78H367.095V283.07H367.186V289.361H367.22V301.942H367.287V308.36H367.254V314.523H367.287V320.941H367.186V327.104H367.254V333.522H367.186V339.812H367.083V346.104H367.05V352.394H366.914V358.685H366.881V371.137H366.914V377.428H366.926V383.846H366.914V390.009H366.938V396.299H371.07V402.59H371.164V396.299H376.754V390.009H376.924V383.846H376.855V358.685H376.754V352.267H376.788V346.104H376.754V339.812H376.652V333.522H376.552V308.36H376.516V295.652H376.552V283.07H376.652V276.78H376.799V270.617H376.788V264.199H377.387V258.037H376.958V251.618H377.127V245.328H377.161V239.038H377.331V232.875H377.263V226.457H380.588V232.875H380.52V239.038H380.688V245.328H380.722V251.618H380.892V258.037H380.462V264.199H381.061V270.617H381.05V276.78H381.197V283.07H381.299V295.652H381.333V308.36H381.299V333.522H381.197V339.812H381.095V346.104H381.061V352.267H381.095V358.685H380.994V383.846H380.926V390.009H381.095V396.299H391.274V390.137H391.037V377.556H390.97V358.685H390.867V352.267H390.901V346.104H390.867V339.685H390.901V333.522H390.732V327.231H390.664V314.523H390.732V308.36H390.664V295.652H390.732V289.489H390.664V283.07H390.867V276.908H390.811V270.49H390.855V264.199H390.981V257.909H391.027V251.618H391.41V245.456H391.071V239.038H391.343V232.747H392.598V226.457H393.478V232.747H394.734V239.038H395.006V245.456H394.666V251.618H395.051V257.909H395.095V264.199H395.22V270.49H395.266V276.908H395.208V283.07H395.412V289.489H395.345V295.652H395.412V308.36H395.345V314.523H395.412V327.231H395.345V333.522H395.175V339.685H395.208V346.104H395.175V352.267H395.208V358.685H395.107V377.556H395.039V390.137H394.802V396.299H404.946V390.009H405.184V377.556H405.15V371.137H405.184V358.685H405.083V352.394H404.981V339.685H405.015V333.522H404.981V327.231H404.879V320.813H404.913V314.65H404.879V302.07H404.845V295.779H404.777V289.361H404.879V283.07H405.015V276.78H405.061V270.617H405.015V264.199H405.218V257.909H405.444V251.746H405.15V245.328H405.218V239.038H405.557V232.747H408.747V239.038H409.085V245.328H409.153V251.746H408.859V257.909H409.085V264.199H409.289V270.617H409.242V276.78H409.289V283.07H409.424V289.361H409.526V295.779H409.458V302.07H409.424V314.65H409.39V320.813H409.424V327.231H409.323V333.522H409.289V339.685H409.323V352.394H409.22V358.685H409.119V371.137H409.153V377.556H409.119V390.009H409.357V396.299H413.749V402.59H416.384V396.299H419.162V390.009H419.264V383.719H419.297V377.556H419.264V364.847H419.297V358.685H419.196V352.394H419.162V339.812H418.993V333.395H419.027V327.231H418.993V302.07H418.891V295.652H418.993V289.361H419.027V283.198H418.993V276.78H419.128V264.199H419.264V257.909H419.355V251.746H419.309V245.328H419.366V239.038H419.907V232.747H422.623V239.038H423.164V245.328H423.22V251.746H423.176V257.909H423.266V264.199H423.402V276.78H423.537V283.198H423.504V289.361H423.537V295.652H423.639V302.07H423.537V327.231H423.504V333.395H423.537V339.812H423.368V352.394H423.335V358.685H423.232V364.847H423.266V377.556H423.232V383.719H423.266V390.009H423.368V396.299H426.145V402.59H429.673V396.299H433.457V390.137H433.412V383.719H433.446V377.556H433.412V358.685H433.309V346.104H433.275V339.812H433.208V333.522H433.073V327.104H433.14V320.941H433.106V314.523H433.208V308.36H433.106V295.779H433.073V289.361H433.106V283.07H433.208V276.908H433.197V270.49H433.377V264.199H433.412V257.909H433.581V251.746H433.446V245.328H433.547V239.038H433.886V232.747H436.872V239.038H437.21V245.328H437.311V251.746H437.176V257.909H437.346V264.199H437.38V270.49H437.561V276.908H437.549V283.07H437.651V289.361H437.684V295.779H437.651V308.36H437.549V314.523H437.651V320.941H437.617V327.104H437.684V333.522H437.549V339.812H437.482V346.104H437.448V358.685H437.346V377.556H437.311V383.719H437.346V390.137H437.3V396.299H441.084V402.59H443.298V408.88H443.808V402.59H444.475V396.427H444.035V390.009H447.525V383.719H447.559V364.975H447.525V358.685H447.491V352.394H447.424V339.812H447.253V327.104H447.321V320.941H447.253V314.523H447.389V308.36H447.253V302.07H447.22V295.652H447.253V289.489H447.22V276.78H447.48V270.617H447.4V264.199H447.491V257.909H447.738V251.746H447.66V245.328H447.864V239.038H448.304V232.747H450.681V239.038H451.12V245.328H451.323V251.746H451.245V257.909H451.493V264.199H451.583V270.617H451.505V276.78H451.765V289.489H451.73V295.652H451.765V302.07H451.73V308.36H451.595V314.523H451.73V320.941H451.662V327.104H451.73V339.812H451.561V352.394H451.493V358.685H451.46V364.975H451.426V383.719H451.46V390.009H454.949V396.427H454.508V402.59H455.175V408.88H455.616V415.171H456.068V421.461H456.691V415.171H457.673V408.88H457.775V402.59H458.386V396.299H461.604V390.009H461.672V364.975H461.604V358.685H461.537V352.267H461.604V346.104H461.503V339.812H461.367V327.231H461.333V320.813H461.434V314.523H461.604V308.36H461.434V283.198H461.367V276.78H461.604V264.327H461.548V257.909H461.638V251.618H462.011V245.456H461.944V239.038H465.267V245.456H465.2V251.618H465.573V257.909H465.663V264.327H465.607V276.78H465.844V283.198H465.777V308.36H465.607V314.523H465.777V320.813H465.878V327.231H465.844V339.812H465.708V346.104H465.607V352.267H465.674V358.685H465.607V364.975H465.539V390.009H465.607V396.299H468.825V402.59H469.436V408.88H469.538V415.171H471.923V408.88H472.024V402.59H472.058V396.299H472.364V390.009H475.785V377.428H475.819V371.265H475.785V364.975H475.718V358.685H475.65V352.267H475.718V346.104H475.65V339.812H475.582V320.813H475.616V314.65H475.56V308.36H475.549V301.942H475.718V295.779H475.549V283.07H475.718V276.908H475.628V270.49H476.157V264.327H475.785V257.909H476.191V251.618H476.295V245.328H476.53V239.038H478.907V245.328H479.145V251.618H479.245V257.909H479.652V264.327H479.279V270.49H479.811V276.908H479.72V283.07H479.89V295.779H479.72V301.942H479.89V308.36H479.878V314.65H479.822V320.813H479.856V339.812H479.787V346.104H479.72V352.267H479.787V358.685H479.72V364.975H479.652V371.265H479.618V377.428H479.652V390.009H483.075V396.299H483.379V402.59H483.414V408.88H483.516V415.171H485.393V408.88H486.138V402.59H486.297V396.299H486.647V390.009H489.9V364.975H489.865V352.394H489.763V339.812H489.729V327.231H489.696V320.813H489.729V308.232H489.763V302.07H489.662V295.779H489.56V289.361H489.763V283.07H489.9V276.908H489.809V270.49H489.989V264.199H490.045V257.909H490.339V251.746H490.001V245.328H493.664V251.746H493.325V257.909H493.62V264.199H493.676V270.49H493.856V276.908H493.765V283.07H493.902V289.361H494.105V295.779H494.003V302.07H493.902V308.232H493.936V320.813H493.969V327.231H493.936V339.812H493.902V352.394H493.799V364.975H493.765V390.009H497.018V396.299H497.368V402.59H497.527V408.88H498.592V402.59H501.335V396.427H500.828V390.137H500.658V383.719H504.047V377.556H504.013V358.685H503.979V346.104H503.876V333.522H503.843V327.104H503.876V320.813H503.979V314.65H503.843V308.36H503.809V302.07H503.775V289.361H503.843V283.07H503.979V276.908H503.967V270.49H504.238V264.199H504.42V257.909H504.792V251.746H504.42V245.328H507.472V251.746H507.1V257.909H507.472V264.199H507.654V270.49H507.925V276.908H507.914V283.07H508.049V289.361H508.116V302.07H508.083V308.36H508.049V314.65H507.914V320.813H508.015V327.104H508.049V333.522H508.015V346.104H507.914V358.685H507.88V377.556H507.845V383.719H511.234V390.137H511.064V396.427H510.555V402.59H515.077V396.299H516.782V390.137H514.941V383.719H518.261V377.556H518.092V371.137H518.114V364.847H518.126V358.685H518.058V345.976H518.092V339.812H517.957V333.395H517.991V327.231H517.957V314.523H517.991V308.36H517.922V301.942H517.957V295.779H517.922V289.361H517.957V283.07H518.092V270.49H518.398V264.199H518.702V258.037H518.633V251.618H518.803V245.328H521.316V251.618H521.484V258.037H521.416V264.199H521.721V270.49H522.027V283.07H522.162V289.361H522.196V295.779H522.162V301.942H522.196V308.36H522.128V314.523H522.162V327.231H522.128V333.395H522.162V339.812H522.027V345.976H522.061V358.685H521.993V364.847H522.005V371.137H522.027V377.556H521.857V383.719H525.178V390.137H523.336V396.299H525.042V402.59H527.515V409.008H526.872V415.171H527.902V408.88H528.389V402.59H528.75V396.427H528.715V383.719H529.076V377.428H532.216V371.137H532.239V358.685H532.205V352.394H532.172V339.685H532.205V333.522H532.104V327.104H532.172V320.941H532.07V314.523H532.104V308.36H532.07V301.942H532.104V295.779H532.036V289.361H532.07V283.07H532.104V276.78H532.239V270.49H532.342V264.199H532.477V258.037H532.409V251.618H532.95V245.328H535.395V251.618H535.937V258.037H535.868V264.199H536.005V270.49H536.106V276.78H536.241V283.07H536.275V289.361H536.31V295.779H536.241V301.942H536.275V308.36H536.241V314.523H536.275V320.941H536.174V327.104H536.241V333.522H536.14V339.685H536.174V352.394H536.14V358.685H536.106V371.137H536.128V377.428H539.269V383.719H539.63V396.427H539.597V402.59H539.958V408.88H540.443V415.299H540.297V421.461H541.144V427.751H541.62V421.461H543.066V415.299H542.118V408.88H542.456V402.59H542.693V396.427H542.659V390.009H542.931V383.719H543.077V377.428H546.352V371.137H546.387V364.975H546.352V358.685H546.319V339.812H546.217V333.522H546.183V327.104H546.217V320.813H546.285V314.65H546.183V308.232H546.217V302.07H546.183V295.652H546.217V283.198H546.183V276.78H547.166V270.49H547.437V264.327H546.555V257.909H547.437V251.746H547.245V245.328H549.328V251.746H549.135V257.909H550.017V264.327H549.135V270.49H549.407V276.78H550.39V283.198H550.356V295.652H550.39V302.07H550.356V308.232H550.39V314.65H550.287V320.813H550.356V327.104H550.39V333.522H550.356V339.812H550.253V358.685H550.219V364.975H550.186V371.137H550.219V377.428H553.494V383.719H553.642V390.009H553.913V396.427H553.879V402.59H554.116V408.88H554.455V415.299H553.506V421.461H554.951V427.751H555.735V421.461H556.061V415.171H556.772V409.008H556.399V402.59H556.705V396.299H557.248V390.137H556.57V383.719H556.875V377.556H556.807V371.137H560.477V364.975H560.467V352.394H560.433V339.812H560.398V333.522H560.33V327.104H560.398V314.65H560.297V308.232H560.398V289.361H560.433V283.07H560.85V276.78H560.974V270.49H561.415V264.327H561.109V257.909H561.517V251.618H563.282V257.909H563.689V264.327H563.385V270.49H563.824V276.78H563.948V283.07H564.368V289.361H564.401V308.232H564.503V314.65H564.401V327.104H564.469V333.522H564.401V339.812H564.368V352.394H564.333V364.975H564.321V371.137H567.993V377.556H567.923V383.719H568.229V390.137H567.551V396.299H568.095V402.59H568.399V409.008H568.027V415.171H568.738V421.461H569.066V427.751H569.904V421.461H570.039V415.171H570.345V408.88H570.581V402.59H570.921V396.299H571.022V390.009H571.26V383.719H571.529V377.556H571.395V371.137H571.767V364.847H574.58V352.267H574.68V346.104H574.512V339.812H574.445V333.395H574.512V327.104H574.546V301.942H574.771V295.779H574.614V289.489H574.58V283.198H574.512V276.78H575.563V270.617H575.224V264.199H575.359V257.909H575.619V251.618H577.407V257.909H577.668V264.199H577.802V270.617H577.464V276.78H578.515V283.198H578.447V289.489H578.413V295.779H578.255V301.942H578.481V327.104H578.515V333.395H578.582V339.812H578.515V346.104H578.344V352.267H578.447V364.847H581.258V371.137H581.632V377.556H581.496V383.719H581.767V390.009H582.005V396.299H582.105V402.59H582.445V408.88H582.681V415.171H582.987V421.461H583.123V427.879H582.806V434.042H582.818V440.333H583.406V434.042H584.527V427.879H583.983V421.461H584.154V415.171H584.389V408.88H584.728V402.717H584.661V396.299H584.865V390.009H585.473V383.846H585.022V377.556H585V371.137H585.645V364.847H588.693V358.557H588.727V352.394H588.659V346.104H588.602V339.812H588.558V333.395H588.626V327.231H588.58V320.813H588.659V302.07H588.614V295.652H588.795V289.489H588.558V283.07H588.964V276.78H589.597V270.617H589.393V264.327H589.178V257.909H592.075V264.327H591.86V270.617H591.656V276.78H592.289V283.07H592.695V289.489H592.459V295.652H592.638V302.07H592.594V320.813H592.672V327.231H592.628V333.395H592.695V339.812H592.65V346.104H592.594V352.394H592.526V358.557H592.56V364.847H595.609V371.137H596.252V377.556H596.23V383.846H595.779V390.009H596.389V396.299H596.592V402.717H596.524V408.88H596.863V415.171H597.1V421.461H597.27V427.879H596.727V434.042H597.995V427.751H598.097V421.461H598.267V415.171H598.572V408.88H598.91V402.59H598.944V396.299H599.147V390.137H598.978V383.719H599.248V377.556H599.215V371.137H599.452V364.847H602.637V358.557H602.977V352.394H602.773V339.685H602.805V333.395H603.145V327.231H602.773V295.652H602.977V289.361H603.212V283.07H603.688V276.908H603.1V270.49H603.202V264.199H603.382V257.909H606.098V264.199H606.278V270.49H606.38V276.908H605.793V283.07H606.267V289.361H606.504V295.652H606.707V327.231H606.334V333.395H606.673V339.685H606.707V352.394H606.504V358.557H606.844V364.847H610.027V371.137H610.264V377.556H610.23V383.719H610.502V390.137H610.332V396.299H610.536V402.59H610.57V408.88H610.909V415.171H611.214V421.461H611.382V427.751H611.484V434.042H612.211V427.751H612.279V421.461H612.38V415.171H612.548V408.88H612.718V402.59H613.024V396.299H613.43V390.009H613.532V383.719H614.854V377.556H613.598V371.137H613.736V364.847H614.344V358.557H616.886V352.267H616.965V346.104H616.84V339.685H616.965V333.522H616.886V327.231H616.852V314.523H616.886V301.942H616.921V295.652H617.19V289.361H617.902V283.07H618.073V276.908H617.677V270.49H617.7V264.199H620.007V270.49H620.03V276.908H619.635V283.07H619.805V289.361H620.516V295.652H620.787V301.942H620.82V314.523H620.855V327.231H620.82V333.522H620.741V339.685H620.866V346.104H620.741V352.267H620.82V358.557H623.361V364.847H623.972V371.137H624.108V377.556H622.854V383.719H624.176V390.009H624.277V396.299H624.683V402.59H624.988V408.88H625.157V415.171H625.327V421.461H625.429V427.751H625.495V434.042H625.951V427.751H626.663V421.589H626.426V415.171H626.663V408.88H626.865V402.59H627.51V396.299H627.714V390.137H627.622V383.846H627.204V377.428H627.341V371.137H627.645V364.847H627.77V358.557H631.474V352.394H631.305V346.104H631.27V339.812H631.011V333.522H631V320.813H631.034V308.232H631.068V301.942H631.168V295.779H631.134V289.361H631.847V283.198H631.44V276.908H631.372V270.49H632.775V264.199H633.158V270.49H634.562V276.908H634.493V283.198H634.086V289.361H634.798V295.779H634.765V301.942H634.866V308.232H634.901V320.813H634.935V333.522H634.923V339.812H634.663V346.104H634.629V352.394H634.459V358.557H638.164V364.847H638.289V371.137H638.593V377.428H638.728V383.846H638.311V390.137H638.221V396.299H638.423V402.59H639.068V408.88H639.272V415.171H639.507V421.589H639.272V427.751H640.583V421.461H640.777V415.171H640.809V408.88H641.081V402.59H641.284V396.299H641.488V390.009H643.418V383.846H641.386V377.428H641.555V371.137H641.726V364.847H641.759V358.557H645.757V352.394H645.281V346.104H645.113V339.685H645.136V333.522H645.113V314.523H645.147V301.942H645.248V295.652H646.264V289.489H645.791V283.07H646.264V276.908H645.587V270.49H648.574V276.908H647.896V283.07H648.37V289.489H647.896V295.652H648.912V301.942H649.014V314.523H649.048V333.522H649.025V339.685H649.048V346.104H648.878V352.394H648.403V358.557H652.402V364.847H652.436V371.137H652.605V377.428H652.774V383.846H650.742V390.009H652.673V396.299H652.875V402.59H653.079V408.88H653.351V415.171H653.385V421.461H653.576V427.751H654.652V421.461H655.059V415.299H654.889V408.88H655.025V402.59H655.262V396.299H655.363V390.009H655.601V371.265H655.567V364.847H655.702V358.557H656.55V352.267H656.651V345.976H659.259V339.812H659.215V333.395H659.227V327.104H659.441V320.941H659.259V314.523H659.43V301.942H659.666V295.652H659.836V289.361H659.904V283.07H660.176V276.78H660.652V270.49H661.737V276.78H662.211V283.07H662.483V289.361H662.55V295.652H662.721V301.942H662.958V314.523H663.127V320.941H662.947V327.104H663.161V333.395H663.172V339.812H663.127V345.976H665.735V352.267H665.838V358.557H666.684V364.847H666.82V371.265H666.786V390.009H667.024V396.299H667.125V402.59H667.363V408.88H667.498V415.299H667.329V421.461H667.736V427.751H667.971V434.042H668.664V427.751H668.766V421.461H669.036V415.171H671.204V409.008H669.24V402.59H669.409V396.299H669.466V390.009H669.545V383.719H669.714V377.428H670.324V371.265H669.647V364.975H669.613V358.557H669.817V352.267H670.935V345.976H673.35V339.685H673.373V333.522H673.339V327.104H673.373V320.813H673.509V314.523H673.848V308.36H673.712V301.942H673.882V295.652H674.12V289.361H674.255V283.198H673.882V276.78H676.732V283.198H676.359V289.361H676.495V295.652H676.732V301.942H676.901V308.36H676.766V314.523H677.105V320.813H677.241V327.104H677.273V333.522H677.241V339.685H677.263V345.976H679.68V352.267H680.798V358.557H681.002V364.975H680.968V371.265H680.29V377.428H680.899V383.719H681.069V390.009H681.148V396.299H681.204V402.59H681.375V409.008H679.409V415.171H681.577V421.461H681.848V427.751H681.949V434.042H682.322V440.333H682.37V434.042H682.676V427.751H682.88V421.461H683.116V415.171H683.341V408.88H683.421V402.59H683.76V396.427H683.467V390.009H684.098V383.719H684.143V377.556H683.456V371.137H683.782V364.975H683.76V358.557H684.844V352.394H683.76V345.976H687.465V339.812H687.454V327.104H687.555V320.813H687.578V314.523H687.724V308.232H687.905V301.942H688.301V289.361H688.605V283.198H688.402V276.78H690.439V283.198H690.236V289.361H690.54V301.942H690.935V308.232H691.117V314.523H691.263V320.813H691.286V327.104H691.389V339.812H691.377V345.976H695.081V352.394H693.997V358.557H695.081V364.975H695.059V371.137H695.386V377.556H694.697V383.719H694.743V390.009H695.375V396.427H695.081V402.59H695.42V408.88H695.498V415.171H695.726V421.461H695.961V427.751H696.165V434.042H696.471V440.333H696.485V434.042H696.63V427.751H698.483V421.589H697.23V415.171H697.466V408.88H697.569V402.59H698.89V396.427H697.625V390.009H698.427V383.719H699.601V377.556H697.692V371.137H698.02V364.975H698.009V358.557H698.348V352.394H698.077V346.104H697.908V339.685H701.6V327.104H701.791V320.941H701.735V314.523H702.335V308.36H702.164V301.942H702.211V295.779H702.041V289.361H702.584V283.07H703.095V276.78H703.975V283.07H704.484V289.361H705.026V295.779H704.857V301.942H704.903V308.36H704.734V314.523H705.332V320.941H705.275V327.104H705.468V339.685H709.16V346.104H708.99V352.394H708.721V358.557H709.059V364.975H709.048V371.137H709.376V377.556H707.466V383.719H708.64V390.009H709.444V396.427H708.178V402.59H709.5V408.88H709.601V415.171H709.839V421.589H708.584V427.751H710.436V434.042H710.584V440.333H710.598V434.042H710.948V427.879H710.903V421.461H711.75V415.299H711.377V408.88H712.71V402.717H712.223V396.427H711.512V390.009H711.942V383.719H713.273V377.556H711.716V371.137H711.75V364.847H712.055V358.557H712.111V352.267H712.327V345.976H712.676V339.685H715.737V333.395H715.747V327.104H715.85V320.813H715.951V314.523H716.448V308.36H716.234V301.942H716.482V295.779H716.234V289.361H717.038V283.07H718.257V289.361H719.06V295.779H718.813V301.942H719.06V308.36H718.847V314.523H719.344V320.813H719.446V327.104H719.548V333.395H719.558V339.685H722.618V345.976H722.968V352.267H723.184V358.557H723.24V364.847H723.545V371.137H723.579V377.556H722.02V383.719H723.353V390.009H723.783V396.427H723.072V402.717H722.585V408.88H723.918V415.299H723.545V421.461H724.392V427.879H724.347V434.042H724.812V427.751H725.016V421.461H725.184V415.171H725.965V408.88H726.857V402.717H725.965V396.427H725.92V390.009H726.055V383.719H726.236V377.428H726.947V371.265H726.055V364.847H726.101V358.557H726.236V352.267H726.473V346.104H725.943V339.685H730.911V333.522H729.86V327.104H729.941V320.813H730.177V314.523H730.268V308.232H730.608V302.07H730.302V295.652H730.743V289.361H732.78V295.652H733.22V302.07H732.915V308.232H733.254V314.523H733.344V320.813H733.582V327.104H733.661V333.522H732.609V339.685H737.579V346.104H737.048V352.267H737.285V358.557H737.421V364.847H737.467V371.265H736.574V377.428H737.285V383.719H737.467V390.009H737.602V396.427H737.557V402.717H736.664V408.88H737.557V415.171H738.336V421.461H738.505V427.751H738.709V434.042H738.961V427.751H739.163V421.461H739.4V415.171H739.706V409.008H739.695V402.59H741.502V396.427H739.739V390.009H740.857V383.846H740.824V377.556H740.045V371.265H739.863V364.847H740.123V358.685H739.942V352.267H740.327V345.976H742.438V339.685H744.855V333.522H744.042V327.104H744.245V320.813H744.505V314.65H744.382V308.232H744.415V301.942H744.584V295.652H745.093V289.361H746.655V295.652H747.164V301.942H747.333V308.232H747.367V314.65H747.244V320.813H747.502V327.104H747.705V333.522H746.893V339.685H749.311V345.976H751.422V352.267H751.805V358.685H751.625V364.847H751.886V371.265H751.704V377.556H750.925V383.846H750.891V390.009H752.009V396.427H750.247V402.59H752.054V409.008H752.043V415.171H752.348V421.461H752.585V427.751H752.788V434.042H752.958V440.333H753.413V434.17H753.04V427.751H753.345V421.461H753.435V415.171H753.717V408.88H753.886V402.59H753.977V396.299H754.226V383.719H755.92V377.556H754.023V371.137H754.497V364.975H754.146V358.685H754.057V352.267H754.452V346.104H754.362V339.685H754.497V333.395H757.816V327.104H758.677V320.941H758.449V314.523H758.495V308.232H758.699V301.942H758.968V295.652H761.006V301.942H761.278V308.232H761.48V314.523H761.525V320.941H761.3V327.104H762.158V333.395H765.478V339.685H765.614V346.104H765.525V352.267H765.92V358.685H765.829V364.975H765.478V371.137H765.954V377.556H764.057V383.719H765.75V396.299H765.998V402.59H766.089V408.88H766.259V415.171H766.54V421.461H766.631V427.751H766.936V434.042H767.086V427.751H767.323V421.461H767.627V415.171H768.102V409.008H767.323V402.59H768V396.299H768.102V390.009H768.349V383.846H768.136V377.428H768.204V364.975H768.102V358.685H768.068V352.267H768.136V345.976H768.282V339.685H768.565V333.395H772.032V327.104H772.405V320.813H772.507V314.523H772.642V308.232H772.913V301.942H773.15V295.652H775.052V301.942H775.289V308.232H775.56V314.523H775.696V320.813H775.798V327.104H776.17V333.395H779.638V339.685H779.92V345.976H780.067V352.267H780.134V358.685H780.101V364.975H779.999V377.428H780.067V383.846H779.851V390.009H780.101V396.299H780.202V402.59H780.879V409.008H780.101V415.171H780.574V421.461H780.879V427.751H781.117V434.042H781.403V427.751H781.504V421.461H781.594V415.171H781.741V408.88H781.91V402.59H782.07V396.299H782.249V390.137H781.775V383.719H782.271V377.428H782.543V371.137H782.689V364.847H782.756V358.685H781.809V352.267H782.588V346.104H782.498V339.685H782.622V333.522H782.521V327.104H787.027V320.941H786.722V314.523H786.79V308.232H787.027V301.942H787.808V295.652H788.62V301.942H789.403V308.232H789.64V314.523H789.708V320.941H789.403V327.104H793.908V333.522H793.807V339.685H793.932V346.104H793.841V352.267H794.62V358.685H793.672V364.847H793.739V371.137H793.886V377.428H794.157V383.719H794.656V390.137H794.18V396.299H794.361V402.59H794.518V408.88H794.688V415.171H794.835V421.461H794.925V427.751H795.028V434.042H795.32V440.333H795.381V434.042H795.415V427.751H795.854V421.589H795.56V415.171H795.854V408.88H796.431V402.59H797.786V396.299H797.922V390.137H796.431V383.719H796.702V377.556H796.533V371.265H796.339V364.847H797.006V358.685H796.431V352.267H796.533V345.976H796.566V339.685H796.702V333.395H796.734V327.104H800.157V320.813H800.802V314.523H801.005V308.232H801.141V301.942H801.41V295.652H803.244V301.942H803.516V308.232H803.652V314.523H803.855V320.813H804.499V327.104H807.92V333.395H807.955V339.685H808.09V345.976H808.124V352.267H808.226V358.685H807.65V364.847H808.317V371.265H808.124V377.556H807.955V383.719H808.226V390.137H806.735V396.299H806.871V402.59H808.226V408.88H808.802V415.171H809.095V421.589H808.802V427.751H809.242V434.042H809.276V440.333H809.446V446.623H809.911V440.333H810.127V434.042H810.556V427.879H809.697V421.461H809.866V415.171H809.9V408.88H810.205V402.59H810.612V396.427H810.374V390.009H810.544V383.846H810.477V377.428H810.511V371.265H810.477V364.847H810.85V358.685H810.544V352.267H811.245V346.104H810.646V339.812H810.374V333.395H810.916V327.231H810.544V320.813H814.949V314.523H815.288V308.36H815.187V301.942H817.698V308.36H817.595V314.523H817.934V320.813H822.339V327.231H821.966V333.395H822.509V339.812H822.237V346.104H821.639V352.267H822.339V358.685H822.035V364.847H822.408V371.265H822.374V377.428H822.408V383.846H822.339V390.009H822.509V396.427H822.271V402.59H822.677V408.88H822.982V415.171H823.016V421.461H823.186V427.879H822.327V434.042H822.757V440.333H822.972V446.623H823.731V440.461H823.302V434.042H823.845V427.879H823.719V421.461H823.945V415.171H824.149V409.008H824.114V402.59H824.42V396.299H824.725V390.009H826.385V383.846H825.234V377.556H824.725V371.137H824.759V364.847H826.181V358.685H824.454V352.267H825.436V346.104H824.668V339.685H824.725V333.522H824.658V327.104H824.884V320.813H825.075V314.523H829.232V308.232H829.773V301.942H831.338V308.232H831.879V314.523H836.036V320.813H836.227V327.104H836.453V333.522H836.386V339.685H836.442V346.104H835.673V352.267H836.656V358.685H834.927V364.847H836.351V371.137H836.386V377.556H835.876V383.846H834.724V390.009H836.386V396.299H836.689V402.59H836.994V409.008H836.96V415.171H837.164V421.461H837.389V427.879H837.266V434.042H838.263V427.879H838.24V421.461H839.426V415.299H838.092V408.88H838.771V402.59H839.381V396.427H838.907V390.137H838.737V383.846H838.669V371.137H838.872V364.847H838.975V358.685H838.613V352.267H839.009V346.104H838.658V339.685H838.669V333.395H838.872V327.231H838.725V320.813H838.941V314.523H839.381V308.232H843.797V301.942H845.541V308.232H849.956V314.523H850.396V320.813H850.611V327.231H850.465V333.395H850.668V339.685H850.678V346.104H850.329V352.267H850.724V358.685H850.362V364.847H850.465V371.137H850.668V383.846H850.6V390.137H850.431V396.427H849.956V402.59H850.566V408.88H851.244V415.299H849.911V421.461H851.097V427.879H851.074V434.042H851.763V440.333H851.822V434.042H851.834V427.751H852.207V421.461H852.591V415.299H852.376V408.88H852.647V402.59H853.968V396.427H852.681V390.009H852.884V383.719H854.365V377.556H852.783V371.137H852.816V364.847H854.612V358.685H852.647V352.267H854.748V346.104H852.727V339.812H852.681V333.395H852.715V327.104H852.816V320.813H852.85V314.65H852.783V308.232H864.781V314.65H864.713V320.813H864.747V327.104H864.85V333.395H864.884V339.812H864.838V346.104H862.816V352.267H864.916V358.685H862.951V364.847H864.747V371.137H864.781V377.556H863.2V383.719H864.68V390.009H864.884V396.427H863.595V402.59H864.916V408.88H865.188V415.299H864.973V421.461H865.357V427.751H865.73V434.042H865.741V440.333H865.82V446.751H865.492V452.913H865.968V459.203H866.749V453.041H866.016V446.623H866.806V440.461H865.925V434.17H865.766V427.751H866.184V421.461H866.32V415.171H866.343V408.88H866.421V402.59H866.659V396.299H868.172V390.137H867.134V383.719H867.845V377.556H867.144V371.265H866.93V364.847H867.234V358.557H867.268V352.394H866.93V346.104H866.896V339.685H866.93V333.395H866.998V327.231H866.965V320.813H866.998V314.523H867.234V308.232H868.895V301.942H876.895V308.232H878.556V314.523H878.793V320.813H878.828V327.231H878.793V333.395H878.862V339.685H878.895V346.104H878.862V352.394H878.522V358.557H878.556V364.847H878.862V371.265H878.646V377.556H877.945V383.719H878.658V390.137H877.618V396.299H879.131V402.59H879.369V408.88H879.448V415.171H879.47V421.461H879.607V427.751H880.129V421.461H880.568V415.299H880.252V408.88H880.535V402.59H880.772V396.299H880.795V390.009H881.078V383.846H880.671V377.428H880.918V371.137H881.088V364.847H882.026V358.685H880.908V352.267H881.044V346.104H881.01V339.685H881.044V333.395H881.078V327.231H881.044V314.523H881.313V308.232H884.398V301.942H889.62V308.232H892.703V314.523H892.975V327.231H892.941V333.395H892.975V339.685H893.009V346.104H892.975V352.267H893.109V358.685H891.991V364.847H892.929V371.137H893.098V377.428H893.347V383.846H892.941V390.009H893.222V396.299H893.245V402.59H893.482V408.88H893.764V415.299H893.448V421.461H893.889V427.751H894.345V409.008H894.241V402.59H894.987V396.299H895.157V390.009H895.529V383.719H895.767V377.556H895.225V371.265H895.157V364.847H896.479V358.685H895.948V352.394H895.1V346.104H894.987V339.685H895.056V327.104H895.191V320.813H895.225V308.232H895.801V301.942H906.443V308.232H907.02V320.813H907.054V327.104H907.188V339.685H907.257V346.104H907.144V352.394H906.298V358.685H905.766V364.847H907.088V371.265H907.02V377.556H906.477V383.719H906.715V390.009H907.088V396.299H907.257V402.59H908.003V409.008H907.901V427.751H908.25V434.042H910.071V427.879H908.491V421.461H908.796V415.299H908.66V408.88H908.693V402.59H909.068V396.299H909.609V390.137H909.575V383.846H909.101V371.137H909.304V364.847H909.441V358.685H909.304V352.394H908.626V345.976H909.135V339.812H909.101V333.395H909.169V320.813H909.441V308.232H909.609V302.07H907.236V295.652H923.234V302.07H920.862V308.232H921.032V320.813H921.304V333.395H921.37V339.812H921.338V345.976H921.845V352.394H921.166V358.685H921.032V364.847H921.166V371.137H921.37V383.846H920.896V390.137H920.862V396.299H921.404V402.59H921.777V408.88H921.811V415.299H921.676V421.461H921.98V427.879H920.399V434.042H922.097V427.751H922.298V421.461H922.638V415.171H922.74V408.88H923.113V402.717H923.078V396.427H923.044V390.009H923.215V383.719H924.333V377.556H923.282V371.137H923.722V364.847H924.061V358.685H923.282V352.267H927.178V346.104H923.215V339.812H923.181V333.395H923.215V327.104H923.35V320.813H923.416V314.523H923.756V308.36H923.711V302.07H923.428V295.652H935.269V302.07H934.988V308.36H934.941V314.523H935.281V320.813H935.348V327.104H935.484V333.395H935.517V339.812H935.484V346.104H931.52V352.267H935.416V358.685H934.637V364.847H934.976V371.137H935.416V377.556H934.366V383.719H935.484V390.009H935.653V396.427H935.619V402.717H935.585V408.88H935.958V415.171H936.061V421.461H936.398V427.751H936.414V421.461H936.717V415.299H936.649V408.88H939.327V402.717H937.056V396.299H937.193V390.009H937.463V383.846H937.395V377.556H937.362V364.975H937.238V358.557H937.566V352.394H937.362V345.976H938.221V339.812H937.532V333.522H937.328V327.231H937.294V320.813H937.395V314.523H937.632V308.232H938.039V301.942H948.886V308.232H949.291V314.523H949.529V320.813H949.631V327.231H949.597V333.522H949.395V339.812H948.706V345.976H949.563V352.394H949.359V358.557H949.688V364.975H949.563V377.556H949.529V383.846H949.463V390.009H949.733V396.299H949.868V402.717H947.599V408.88H950.275V415.299H950.208V421.461H950.513V427.751H950.527V421.461H950.661V415.171H951.034V408.88H952.424V402.717H951V396.299H951.441V390.137H951.35V383.719H951.509V377.428H951.577V371.265H951.509V364.847H951.679V358.685H951.441V352.394H951.306V345.976H951.475V339.685H952.322V333.522H951.475V320.813H951.611V314.523H951.745V308.36H951.679V301.942H952.255V295.652H962.897V301.942H963.473V308.36H963.407V314.523H963.541V320.813H963.676V333.522H962.83V339.685H963.676V345.976H963.846V352.394H963.71V358.685H963.473V364.847H963.642V371.265H963.575V377.428H963.642V383.719H963.802V390.137H963.71V396.299H964.152V402.717H962.728V408.88H964.118V415.171H964.491V421.461H964.625V427.751H964.639V415.171H964.741V408.88H965.284V396.427H965.25V390.009H965.419V383.719H965.892V377.556H965.623V364.975H965.385V358.557H965.555V352.267H965.691V345.976H965.892V339.685H966.209V333.522H965.995V327.231H965.555V314.523H965.723V308.232H966.063V301.942H966.198V295.652H967.621V289.361H975.757V295.652H977.181V301.942H977.316V308.232H977.654V314.523H977.824V327.231H977.384V333.522H977.169V339.685H977.486V345.976H977.688V352.267H977.824V358.557H977.993V364.975H977.756V377.556H977.486V383.719H977.96V390.009H978.129V396.427H978.095V408.88H978.638V415.171H978.738V421.461H978.99V415.299H978.854V408.88H979.329V402.59H979.363V396.427H979.329V390.009H979.838V383.846H979.262V377.428H979.498V371.137H979.736V364.975H979.669V358.557H979.736V352.394H979.702V345.976H979.973V339.685H981.633V333.522H979.635V327.104H979.669V320.813H979.838V314.523H979.973V308.232H980.041V301.942H980.176V295.652H980.876V289.361H990.729V295.652H991.429V301.942H991.566V308.232H991.632V314.523H991.767V320.813H991.938V327.104H991.971V333.522H989.972V339.685H991.632V345.976H991.904V352.394H991.87V358.557H991.938V364.975H991.87V371.137H992.107V377.428H992.344V383.846H991.767V390.009H992.277V396.427H992.243V402.59H992.277V408.88H992.75V415.299H992.616V421.461H992.902V415.171H993.137V408.88H994.425V402.717H993.375V396.299H993.792V390.009H993.95V383.846H993.613V377.428H993.748V371.137H993.782V364.847H993.916V358.557H994.12V352.394H993.782V346.104H993.68V339.812H993.647V333.395H993.748V327.231H993.68V320.813H993.748V314.523H994.154V308.36H993.848V301.942H994.02V295.652H994.358V289.361H1005.47V295.652H1005.81V301.942H1005.98V308.36H1005.68V314.523H1006.09V320.813H1006.15V327.231H1006.09V333.395H1006.19V339.812H1006.15V346.104H1006.05V352.394H1005.71V358.557H1005.92V364.847H1006.05V371.137H1006.09V377.428H1006.22V383.846H1005.88V390.009H1006.04V396.299H1006.46V402.717H1005.41V408.88H1006.69V415.171H1006.93V421.461H1007.22V415.171H1007.28V408.88H1007.45V402.717H1007.39V396.299H1007.59V390.009H1007.62V383.719H1007.79V377.556H1007.76V371.137H1007.86V364.847H1008.13V358.685H1008.03V352.394H1007.96V333.522H1007.79V320.813H1007.86V314.523H1008.06V308.232H1008.13V302.07H1008.06V295.652H1008.22V289.361H1008.27V283.07H1019.79V289.361H1019.84V295.652H1020V302.07H1019.93V308.232H1020V314.523H1020.2V320.813H1020.27V333.522H1020.1V352.394H1020.03V358.685H1019.93V364.847H1020.2V371.137H1020.3V377.556H1020.27V383.719H1020.44V390.009H1020.47V396.299H1020.67V402.717H1020.6V408.88H1020.77V415.171H1020.84V421.461H1021.53V415.299H1021.33V408.88H1021.5V402.717H1021.33V396.299H1021.67V390.009H1021.91V383.846H1021.84V377.428H1022.01V371.265H1021.43V364.847H1022.25V358.685H1022.08V352.394H1021.87V339.685H1022.35V333.395H1022.82V327.231H1022.62V320.941H1021.91V314.523H1021.97V308.232H1022.31V302.07H1022.25V295.652H1022.55V289.361H1022.89V283.07H1033.4V289.361H1033.74V295.652H1034.04V302.07H1033.97V308.232H1034.31V314.523H1034.38V320.941H1033.67V327.231H1033.46V333.395H1033.94V339.685H1034.41V352.394H1034.21V358.685H1034.04V364.847H1034.85V371.265H1034.28V377.428H1034.45V383.846H1034.38V390.009H1034.62V396.299H1034.96V402.717H1034.79V408.88H1034.96V415.299H1034.75V421.461H1035.48V415.299H1035.44V408.88H1035.55V402.59H1035.61V396.299H1035.68V390.009H1036.02V383.846H1035.72V377.428H1038.02V371.265H1036.02V364.975H1035.82V358.557H1036.12V352.267H1036.19V346.104H1035.99V339.685H1036.19V333.522H1035.99V327.104H1036.02V320.813H1036.09V314.523H1036.16V308.232H1036.29V301.942H1036.36V295.652H1036.73V289.489H1036.6V283.07H1037.95V276.78H1046.56V283.07H1047.92V289.489H1047.78V295.652H1048.15V301.942H1048.22V308.232H1048.36V314.523H1048.43V320.813H1048.49V327.104H1048.53V333.522H1048.32V339.685H1048.53V346.104H1048.32V352.267H1048.39V358.557H1048.7V364.975H1048.49V371.265H1046.49V377.428H1048.8V383.846H1048.49V390.009H1048.83V396.299H1048.9V402.59H1048.97V408.88H1049.07V415.299H1049.04V421.461H1049.25V415.171H1050.43V409.008H1049.42V402.59H1049.79V396.427H1049.49V390.009H1050.1V383.846H1049.79V371.137H1050.07V364.847H1050.24V358.685H1050.1V352.267H1050.27V339.685H1050.37V333.522H1050.07V327.104H1050.24V320.941H1050.2V314.523H1050.27V308.232H1050.37V301.942H1050.54V295.779H1050.4V289.361H1050.71V283.07H1052.91V276.78H1059.83V283.07H1062.03V289.361H1062.34V295.779H1062.2V301.942H1062.37V308.232H1062.47V314.523H1062.54V320.941H1062.51V327.104H1062.67V333.522H1062.37V339.685H1062.47V352.267H1062.64V358.685H1062.51V364.847H1062.67V371.137H1062.94V383.846H1062.64V390.009H1063.25V396.427H1062.94V402.59H1063.32V409.008H1062.31V415.171H1063.43V408.88H1063.92V402.59H1063.94V396.427H1063.84V390.009H1063.91V383.719H1064.15V377.428H1064.25V371.265H1064.18V364.975H1064.08V358.557H1064.25V352.394H1064.21V345.976H1064.42V339.812H1064.18V333.395H1064.55V327.231H1064.42V320.941H1064.25V314.523H1064.48V308.232H1064.59V302.07H1064.48V295.652H1064.55V289.361H1064.82V283.07H1065.67V276.78H1075.3V283.07H1076.14V289.361H1076.42V295.652H1076.48V302.07H1076.38V308.232H1076.48V314.523H1076.72V320.941H1076.55V327.231H1076.42V333.395H1076.79V339.812H1076.55V345.976H1076.75V352.394H1076.72V358.557H1076.89V364.975H1076.79V371.265H1076.72V377.428H1076.82V383.719H1077.06V390.009H1077.13V396.427H1077.02V402.59H1077.05V408.88H1077.58V402.59H1078.05V396.427H1077.95V390.137H1077.85V383.846H1077.68V377.428H1077.89V371.137H1078.12V364.847H1078.26V358.685H1078.02V352.267H1078.43V345.976H1078.46V339.812H1078.29V327.231H1078.02V320.813H1078.53V314.523H1078.6V308.232H1078.8V301.942H1078.97V289.361H1079V283.07H1079.17V276.78H1090.02V283.07H1090.19V289.361H1090.22V301.942H1090.39V308.232H1090.6V314.523H1090.66V320.813H1091.17V327.231H1090.9V339.812H1090.73V345.976H1090.76V352.267H1091.17V358.685H1090.93V364.847H1091.07V371.137H1091.31V377.428H1091.51V383.846H1091.34V390.137H1091.24V396.427H1091.14V402.59H1091.61V408.88H1092.13V396.427H1091.8V390.009H1091.97V383.719H1092V377.428H1092.17V371.265H1092.07V364.847H1092.27V358.557H1092.41V352.267H1092.47V345.976H1092.58V333.522H1092.3V327.104H1092.54V320.941H1092.44V314.523H1092.71V308.232H1092.81V301.942H1092.88V295.652H1093.02V289.361H1093.05V283.07H1093.18V276.78H1097.01V270.49H1100.41V276.78H1104.24V283.07H1104.37V289.361H1104.4V295.652H1104.54V301.942H1104.61V308.232H1104.71V314.523H1104.98V320.941H1104.88V327.104H1105.12V333.522H1104.85V345.976H1104.95V352.267H1105.01V358.557H1105.15V364.847H1105.35V371.265H1105.25V377.428H1105.42V383.719H1105.45V390.009H1105.62V396.427H1105.29V408.88H1105.47V402.59H1105.88V396.299H1107.04V390.137H1106.16V383.846H1105.94V377.428H1106.11V371.265H1106.01V364.847H1106.18V358.557H1106.59V352.394H1106.42V345.976H1106.72V339.812H1106.66V333.522H1106.42V327.104H1106.52V320.813H1106.86V314.65H1106.82V308.232H1106.89V295.652H1107.85V289.489H1106.81V283.07H1107.33V276.78H1118.31V283.07H1118.83V289.489H1117.8V295.652H1118.76V308.232H1118.82V314.65H1118.79V320.813H1119.13V327.104H1119.23V333.522H1118.99V339.812H1118.93V345.976H1119.23V352.394H1119.06V358.557H1119.47V364.847H1119.64V371.265H1119.53V377.428H1119.7V383.846H1119.49V390.137H1118.61V396.299H1119.77V402.59H1119.99V396.299H1120.02V390.009H1121.14V383.846H1120.33V377.428H1120.36V371.265H1120.29V364.847H1120.5V358.685H1120.29V352.267H1120.67V346.104H1120.6V339.685H1120.7V333.522H1120.63V327.104H1120.67V320.813H1120.7V314.523H1120.97V308.36H1120.84V301.942H1121.11V295.779H1120.8V289.361H1120.93V283.07H1121.34V276.908H1121.11V270.617H1120.77V264.199H1133.11V270.617H1132.77V276.908H1132.53V283.07H1132.95V289.361H1133.07V295.779H1132.77V301.942H1133.04V308.36H1132.9V314.523H1133.17V320.813H1133.21V327.104H1133.24V333.522H1133.17V339.685H1133.28V346.104H1133.21V352.267H1133.58V358.685H1133.38V364.847H1133.58V371.265H1133.51V377.428H1133.55V383.846H1132.73V390.009H1133.85V396.299H1133.89V408.88H1134V402.717H1133.93V396.299H1134V390.009H1134.51V383.846H1134.25V377.556H1134.22V371.137H1134.31V364.847H1134.41V358.557H1135.43V352.394H1134.78V346.104H1134.75V339.685H1134.92V333.522H1134.64V327.104H1134.81V320.941H1134.78V314.523H1134.92V308.232H1135.15V295.652H1136.88V289.489H1135.15V283.07H1135.25V276.78H1135.46V270.49H1140.58V264.199H1141.52V270.49H1146.64V276.78H1146.85V283.07H1146.95V289.489H1145.22V295.652H1146.95V308.232H1147.18V314.523H1147.32V320.941H1147.29V327.104H1147.46V333.522H1147.18V339.685H1147.35V346.104H1147.32V352.394H1146.68V358.557H1147.69V364.847H1147.8V371.137H1147.89V377.556H1147.85V383.846H1147.59V390.009H1148.1V396.299H1148.15V390.009H1148.22V383.719H1148.48V377.428H1149.15V371.265H1148.52V364.975H1148.42V358.557H1148.62V352.394H1148.59V345.976H1148.86V339.685H1148.93V333.522H1148.76V327.104H1148.93V320.941H1148.86V314.523H1149V308.232H1149.17V302.07H1149V295.652H1149.33V289.361H1149.47V283.198H1149.23V276.78H1149.71V270.49H1150.11V264.199H1160.21V270.49H1160.62V276.78H1161.1V283.198H1160.86V289.361H1160.99V295.652H1161.33V302.07H1161.16V308.232H1161.33V314.523H1161.47V320.941H1161.4V327.104H1161.57V333.522H1161.4V339.685H1161.47V345.976H1161.74V352.394H1161.71V358.557H1161.91V364.975H1161.81V371.265H1161.17V377.428H1161.85V383.719H1162.11V390.009H1162.16V383.719H1162.33V377.556H1162.31V371.137H1162.4V358.557H1162.7V352.267H1162.87V346.104H1162.63V339.685H1162.87V333.395H1163.11V327.231H1162.87V320.813H1163.01V314.523H1163.18V308.36H1163.01V301.942H1163.31V295.652H1163.52V289.361H1164.94V283.198H1163.31V276.78H1163.53V270.49H1163.82V264.199H1174.73V270.49H1175.03V276.78H1175.24V283.198H1173.62V289.361H1175.04V295.652H1175.24V301.942H1175.55V308.36H1175.38V314.523H1175.55V320.813H1175.68V327.231H1175.45V333.395H1175.68V339.685H1175.92V346.104H1175.68V352.267H1175.85V358.557H1176.16V371.137H1176.25V377.556H1176.23V383.719H1179.06V377.556H1176.47V371.137H1176.48V364.847H1176.92V358.557H1178.61V352.394H1176.58V345.976H1176.92V333.395H1177.09V327.104H1177.16V320.813H1177.22V314.523H1177.32V308.36H1177.22V301.942H1177.43V295.779H1177.29V289.361H1177.43V283.07H1177.76V270.49H1180.68V264.199H1186.1V270.49H1189.02V283.07H1189.36V289.361H1189.49V295.779H1189.36V301.942H1189.56V308.36H1189.46V314.523H1189.56V320.813H1189.63V327.104H1189.69V333.395H1189.86V345.976H1190.2V352.394H1188.17V358.557H1189.86V364.847H1190.31V371.137H1190.32V377.556H1187.72V383.719H1190.4V390.009H1190.44V396.299H1190.51V402.59H1191.5V396.427H1190.56V390.009H1190.62V383.846H1190.6V377.428H1190.62V371.137H1190.69V364.847H1190.73V358.557H1190.86V352.394H1190.59V345.976H1191.2V339.812H1190.93V333.395H1191.1V327.104H1191.2V320.813H1191.27V308.232H1191.37V301.942H1191.4V295.652H1191.57V289.489H1191.54V283.07H1191.88V276.908H1191.45V270.49H1191.57V264.199H1203.44V270.49H1203.56V276.908H1203.13V283.07H1203.47V289.489H1203.44V295.652H1203.6V301.942H1203.64V308.232H1203.74V320.813H1203.81V327.104H1203.91V333.395H1204.08V339.812H1203.81V345.976H1204.42V352.394H1204.15V358.557H1204.28V364.847H1204.32V371.137H1204.38V377.428H1204.41V383.846H1204.38V390.009H1204.45V396.299H1204.54V390.009H1204.67V383.846H1204.54V377.428H1204.91V371.265H1204.67V364.847H1204.7V358.557H1204.87V345.976H1204.97V339.685H1205.08V333.395H1205.21V327.104H1205.35V320.941H1205.18V314.523H1205.21V308.232H1205.45V301.942H1205.48V295.652H1205.52V289.361H1205.85V283.198H1205.48V276.78H1205.85V270.617H1205.79V264.199H1210.13V257.909H1213.11V264.199H1217.45V270.617H1217.38V276.78H1217.75V283.198H1217.38V289.361H1217.72V295.652H1217.75V301.942H1217.79V308.232H1218.02V314.523H1218.06V320.941H1217.89V327.104H1218.02V333.395H1218.16V339.685H1218.26V345.976H1218.36V358.557H1218.53V364.847H1218.57V371.265H1218.33V377.428H1218.65V371.137H1219.16V364.975H1218.82V358.557H1218.92V352.267H1219.19V346.104H1218.95V339.685H1219.19V333.522H1219.09V327.104H1219.46V320.941H1219.39V314.523H1219.43V308.232H1219.9V301.942H1220.31V295.779H1219.83V289.489H1219.6V283.07H1219.66V276.78H1219.73V270.49H1219.98V264.199H1225.05V257.909H1226.41V264.199H1231.48V270.49H1231.73V276.78H1231.8V283.07H1231.87V289.489H1231.63V295.779H1231.16V301.942H1231.56V308.232H1232.04V314.523H1232.07V320.941H1232V327.104H1232.37V333.522H1232.27V339.685H1232.51V346.104H1232.27V352.267H1232.54V358.557H1232.65V364.975H1232.31V371.137H1232.81V377.428H1232.9V371.137H1233.03V364.975H1232.93V358.557H1232.96V352.394H1232.9V345.976H1233.23V339.685H1233.51V333.395H1233.54V327.104H1233.61V314.523H1233.71V308.232H1234.05V302.07H1233.54V289.361H1233.57V283.07H1233.88V276.78H1234.15V270.49H1234.43V264.327H1233.54V257.909H1246.15V264.327H1245.26V270.49H1245.54V276.78H1245.81V283.07H1246.11V289.361H1246.15V302.07H1245.64V308.232H1245.98V314.523H1246.08V327.104H1246.15V333.395H1246.18V339.685H1246.45V345.976H1246.79V352.394H1246.73V358.557H1246.76V364.975H1246.66V371.137H1246.79V377.428H1247.04V371.137H1247.15V364.975H1247.04V358.557H1247.15V352.267H1247.18V345.976H1247.25V339.685H1247.42V333.395H1247.62V327.104H1247.79V320.941H1247.69V314.65H1247.65V308.232H1247.72V302.07H1247.69V295.779H1247.65V283.07H1247.79V276.78H1248.16V270.49H1248.55V264.199H1259.37V270.49H1259.75V276.78H1260.13V283.07H1260.26V295.779H1260.23V302.07H1260.19V308.232H1260.26V314.65H1260.23V320.941H1260.13V327.104H1260.3V333.395H1260.5V339.685H1260.67V345.976H1260.74V352.267H1260.77V358.557H1260.87V364.975H1260.77V371.137H1260.87V377.428H1260.99V371.137H1261.16V364.847H1261.29V358.685H1261.12V352.267H1261.16V346.104H1261.02V339.685H1261.36V333.395H1261.43V327.104H1261.77V320.813H1261.84V314.65H1261.67V301.942H1261.97V295.779H1261.9V289.489H1261.73V283.07H1261.84V276.78H1261.94V270.49H1262.45V264.199H1273.7V270.49H1274.21V276.78H1274.31V283.07H1274.41V289.489H1274.24V295.779H1274.17V301.942H1274.48V314.65H1274.31V320.813H1274.38V327.104H1274.72V333.395H1274.78V339.685H1275.12V346.104H1274.98V352.267H1275.02V358.685H1274.85V364.847H1274.98V371.137H1275.07V364.847H1275.24V358.557H1275.37V352.394H1275.17V345.976H1275.3V339.685H1275.41V333.395H1275.64V327.104H1275.71V320.813H1277.61V314.65H1275.75V308.232H1275.78V301.942H1275.95V283.198H1275.54V276.78H1276.05V270.49H1276.29V264.327H1275.37V257.909H1289V264.327H1288.08V270.49H1288.32V276.78H1288.83V283.198H1288.42V301.942H1288.59V308.232H1288.62V314.65H1286.76V320.813H1288.66V327.104H1288.73V333.395H1288.96V339.685H1289.07V345.976H1289.2V352.267H1289.25V345.976H1289.28V339.685H1289.55V333.395H1290.23V327.231H1289.69V320.941H1289.66V314.65H1289.59V308.232H1289.83V295.652H1289.89V289.361H1290.03V283.198H1289.99V270.49H1291.65V264.327H1290.98V257.909H1301.62V264.327H1300.94V270.49H1302.6V283.198H1302.57V289.361H1302.71V295.652H1302.77V308.232H1303.01V314.65H1302.94V320.941H1302.91V327.231H1302.37V333.395H1303.04V339.685H1303.31V345.976H1303.35V352.267H1303.8V346.104H1303.46V333.395H1303.6V327.104H1303.8V320.813H1304.24V314.65H1303.77V308.232H1303.97V302.07H1303.87V289.361H1304.07V276.78H1304.11V270.49H1304.36V264.199H1304.78V257.909H1316.04V264.199H1316.47V270.49H1316.72V276.78H1316.75V289.361H1316.95V302.07H1316.85V308.232H1317.05V314.65H1316.58V320.813H1317.02V327.104H1317.23V333.395H1317.36V346.104H1317.02V352.267H1317.5V364.847H1317.61V358.557H1317.71V352.394H1317.61V333.395H1318.39V327.231H1317.58V320.813H1317.88V314.523H1318.19V308.232H1318.26V302.07H1317.98V295.652H1318.19V289.361H1318.22V276.908H1318.19V270.49H1318.46V264.199H1318.5V257.909H1323.47V251.618H1325.58V257.909H1330.55V264.199H1330.59V270.49H1330.86V276.908H1330.83V289.361H1330.86V295.652H1331.07V302.07H1330.8V308.232H1330.86V314.523H1331.17V320.813H1331.47V327.231H1330.66V333.395H1331.44V352.394H1331.34V358.557H1331.44V364.847H1331.59V358.557H1331.69V346.104H1331.45V339.685H1331.69V333.395H1331.72V327.104H1332V320.813H1332.1V314.523H1332.16V308.232H1332.3V302.07H1332.03V295.652H1332.06V289.361H1332.3V283.198H1332.23V276.78H1332.37V270.49H1332.4V264.199H1332.45V257.909H1344.83V264.199H1344.88V270.49H1344.91V276.78H1345.04V283.198H1344.98V289.361H1345.21V295.652H1345.25V302.07H1344.98V308.232H1345.11V314.523H1345.18V320.813H1345.28V327.104H1345.55V333.395H1345.59V339.685H1345.7V333.395H1345.87V320.813H1346.28V314.523H1346.31V308.36H1346.21V301.942H1346.31V295.779H1346.14V289.361H1346.21V283.07H1346.28V276.78H1346.62V270.49H1346.82V264.327H1346.51V258.037H1345.54V251.618H1359.96V258.037H1358.99V264.327H1358.68V270.49H1358.89V276.78H1359.23V283.07H1359.29V289.361H1359.36V295.779H1359.19V301.942H1359.29V308.36H1359.19V314.523H1359.23V320.813H1359.63V333.395H1359.8V339.812H1359.77V345.976H1359.92V339.812H1359.85V333.395H1360.05V327.231H1359.92V320.813H1360.22V314.65H1360.12V295.652H1360.15V289.361H1360.29V283.07H1360.39V276.78H1360.56V270.49H1362.83V264.327H1360.76V257.909H1366.59V251.618H1367.14V257.909H1372.97V264.327H1370.9V270.49H1373.17V276.78H1373.34V283.07H1373.44V289.361H1373.58V295.652H1373.61V314.65H1373.51V320.813H1373.81V327.231H1373.68V333.395H1373.88V339.812H1373.81V345.976H1374.23V339.812H1373.89V333.395H1373.93V327.104H1373.96V320.813H1374.1V314.65H1374.07V308.232H1374.57V302.07H1374.2V295.652H1374.27V289.361H1374.37V283.07H1374.44V276.78H1374.68V270.49H1374.81V264.199H1375.01V257.909H1380.94V251.746H1380.88V232.875H1380.84V226.585H1380.78V220.294H1380.54V214.003H1380.49V207.713H1380.2V201.423H1380.16V195.132H1380.1V188.714H1380.13V182.551H1379.99V176.261H1379.96V169.971H1379.72V163.68H1379.69V157.389H1379.66V151.099H1379.52V144.809H1379.45V138.391H1379.49V132.228H1379.38V125.809H1380.3V119.519H1381.66V125.809H1382.57V132.228H1382.47V138.391H1382.51V144.809H1382.44V151.099H1382.3V157.389H1382.27V163.68H1382.24V169.971H1382V176.261H1381.96V182.551H1381.83V188.714H1381.86V195.132H1381.79V201.423H1381.76V207.713H1381.46V214.003H1381.42V220.294H1381.18V226.585H1381.11V232.875H1381.08V251.746H1381.01V257.909H1386.94V264.199H1387.15V270.49H1387.28V276.78H1387.52V283.07H1387.59V289.361H1387.69V295.652H1387.76V302.07H1387.39V308.232H1387.89V314.65H1387.86V320.813H1388.31V314.523H1388.48V308.36H1388.35V301.942H1388.38V295.779H1388.21V289.361H1388.48V283.07H1388.55V276.78H1388.65V270.49H1388.96V264.199H1389.3V257.909H1390.04V251.618H1394.99V232.875H1394.96V226.585H1394.82V220.294H1394.65V214.003H1394.58V207.713H1394.31V201.423H1394.24V195.132H1394.21V188.714H1394.24V176.261H1394.07V169.971H1393.84V163.68H1393.77V157.389H1393.67V151.099H1393.6V144.809H1393.5V138.519H1393.46V125.809H1394.96V119.519H1395.23V125.809H1396.72V138.519H1396.69V144.809H1396.58V151.099H1396.52V157.389H1396.42V163.68H1396.35V169.971H1396.11V176.261H1395.94V188.714H1395.98V195.132H1395.94V201.423H1395.87V207.713H1395.6V214.003H1395.53V220.294H1395.36V226.585H1395.23V232.875H1395.19V251.618H1400.14V257.909H1400.89V264.199H1401.23V270.49H1401.53V276.78H1401.63V283.07H1401.7V289.361H1401.97V295.779H1401.8V301.942H1401.84V308.36H1401.7V314.523H1401.87V320.813H1402.19V314.523H1402.33V308.36H1402.16V301.942H1402.63V295.779H1402.56V289.489H1402.39V283.07H1402.43V276.78H1402.56V270.49H1402.94V264.327H1402.51V257.909H1409.1V251.746H1409.07V232.875H1409.04V226.585H1408.87V220.294H1408.66V214.003H1408.56V207.713H1408.53V201.423H1408.32V188.842H1408.19V182.424H1408.26V176.261H1407.88V169.843H1407.92V163.68H1407.78V151.099H1407.71V144.809H1407.58V138.519H1407.54V132.228H1407.51V125.809H1407.71V119.519H1410.7V125.809H1410.9V132.228H1410.87V138.519H1410.83V144.809H1410.7V151.099H1410.63V163.68H1410.5V169.843H1410.53V176.261H1410.16V182.424H1410.22V188.842H1410.09V201.423H1409.88V207.713H1409.85V214.003H1409.75V220.294H1409.55V226.585H1409.38V232.875H1409.34V251.746H1409.31V257.909H1415.91V264.327H1415.48V270.49H1415.85V276.78H1415.98V283.07H1416.02V289.489H1415.85V295.779H1415.78V301.942H1416.26V308.232H1416.51V301.942H1416.74V295.779H1416.51V289.361H1416.54V283.07H1416.57V276.78H1416.85V270.49H1416.92V264.199H1417.9V257.909H1423.18V251.746H1423.15V232.875H1423.12V226.585H1423.01V220.294H1422.81V214.003H1422.68V207.713H1422.37V201.423H1422.3V195.004H1422.37V188.842H1422.3V182.551H1422.2V176.261H1422.13V169.971H1422V163.68H1421.89V157.389H1421.78V151.099H1421.72V144.809H1421.69V138.519H1421.66V132.228H1421.62V125.809H1421.71V119.519H1424.93V125.809H1425.02V132.228H1424.98V138.519H1424.95V144.809H1424.91V151.099H1424.86V157.389H1424.74V163.68H1424.64V169.971H1424.51V176.261H1424.44V182.551H1424.34V188.842H1424.27V195.004H1424.34V201.423H1424.27V207.713H1423.96V214.003H1423.83V220.294H1423.62V226.585H1423.52V232.875H1423.49V251.746H1423.46V257.909H1428.74V264.199H1429.71V270.49H1429.79V276.78H1430.06V283.07H1430.1V289.361H1430.13V295.779H1429.89V301.942H1430.13V308.232H1430.52V302.07H1430.49V295.652H1430.55V276.78H1430.96V270.617H1430.65V264.199H1430.96V258.037H1430.91V251.618H1437.26V232.875H1437.23V226.585H1436.96V220.294H1436.79V207.713H1436.55V201.423H1436.31V195.132H1436.25V188.714H1436.28V182.424H1436.31V176.261H1436.28V169.971H1436.01V157.389H1435.91V151.099H1435.8V144.809H1435.77V138.519H1435.67V125.809H1435.69V119.519H1436.55V113.229H1438.31V119.519ZM936.398 478.075H936.82V471.913H936.398V478.075ZM765.525 452.913H766.315V459.203H766.834V465.494H767.052V459.203H767.187V452.913H768.237V446.751H765.525V452.913ZM823.999 465.494H824.476V459.331H823.999V465.494ZM836.633 465.494H838.32V459.331H836.633V465.494ZM851.018 465.494H851.529V459.331H851.018V465.494ZM737.714 446.623H737.829V452.913H738.879V459.203H739.266V452.913H739.356V446.751H738.645V440.461H737.714V446.623ZM752.393 452.913H752.483V459.203H753.661V452.913H754.452V446.751H752.393V452.913ZM779.965 452.913H781.016V459.203H781.493V452.913H782.249V446.751H779.965V452.913ZM794.18 452.913H794.937V459.203H795.256V452.913H795.516V446.751H794.18V452.913ZM879.041 459.203H879.462V453.041H879.041V459.203ZM1133.86 459.203H1134.22V453.041H1133.86V459.203ZM724.923 446.751H724.901V452.913H725.694V446.623H725.807V440.461H724.923V446.751ZM851.684 452.913H852.07V446.751H851.684V452.913ZM878.985 446.623H879.776V452.913H880.399V446.751H880.173V440.461H878.985V446.623ZM893.843 446.751H893.618V452.913H894.173V440.461H893.843V446.751ZM1035.52 446.623H1035.8V452.913H1035.92V446.623H1036.46V440.461H1035.52V446.623ZM1048.05 446.623H1048.59V452.913H1048.78V440.461H1048.05V446.623ZM837.379 446.623H837.462V440.461H837.379V446.623ZM908.071 446.623H908.367V440.461H908.071V446.623ZM964.163 446.623H964.166V440.461H964.163V446.623ZM1147.76 446.623H1147.91V440.461H1147.76V446.623ZM766.562 440.333H766.713V434.17H766.562V440.333ZM922.635 440.333H922.661V434.17H922.635V440.333ZM936.036 440.333H936.333V434.17H936.036V440.333ZM991.598 434.042H992.762V440.333H992.912V434.042H993.748V427.879H991.598V434.042ZM1049.42 440.333H1050.19V434.17H1049.42V440.333ZM1062.55 440.333H1062.89V434.17H1062.55V440.333ZM1091.88 440.333H1092.37V434.17H1091.88V440.333ZM1105.05 440.333H1106.69V434.17H1105.05V440.333ZM1118.96 440.333H1119.07V434.17H1118.96V440.333ZM512.046 434.042H513.033V427.879H512.046V434.042ZM570.014 434.042H570.22V427.879H570.014V434.042ZM964.704 434.042H967.983V427.879H964.704V434.042ZM975.396 434.042H980.007V427.879H975.396V434.042ZM1006.09 434.042H1007.03V427.879H1006.09V434.042ZM1035.56 434.042H1036.46V427.879H1035.56V434.042ZM1048.05 434.042H1049.07V427.879H1048.05V434.042ZM1147.76 434.042H1147.94V427.879H1147.76V434.042ZM499.57 427.751H500.173V421.589H499.57V427.751ZM511.719 427.751H511.825V421.589H511.719V427.751ZM1162.62 427.751H1162.83V421.589H1162.62V427.751ZM1175.73 427.751H1176.27V421.589H1175.73V427.751ZM428.078 421.461H428.295V415.299H428.078V421.461ZM442.463 421.461H442.917V415.299H442.463V421.461ZM485.401 421.461H485.516V415.299H485.401V421.461ZM527.955 421.461H528.049V415.299H527.955V421.461ZM1106 421.461H1106.28V415.299H1106V421.461ZM1119.37 421.461H1119.68V415.299H1119.37V421.461ZM1360.17 421.461H1361.07V415.299H1360.17V421.461ZM1372.66 421.461H1373.6V415.299H1372.66V421.461ZM1416.97 421.461H1417.05V415.299H1416.97V421.461ZM175.798 415.171H175.924V409.008H175.798V415.171ZM186.749 415.171H187.259V409.008H186.749V415.171ZM1176.33 415.171H1176.48V409.008H1176.33V415.171ZM1232.81 408.88H1232.95V415.171H1233.13V408.88H1233.91V402.717H1232.81V408.88ZM1247.03 402.717H1245.78V408.88H1246.56V415.171H1246.67V408.88H1247.25V402.717H1247.15V396.427H1247.03V402.717ZM1346.1 415.171H1346.18V409.008H1346.1V415.171ZM1204.59 408.88H1204.74V402.717H1204.59V408.88ZM1218.5 408.88H1218.65V402.717H1218.5V408.88ZM1260.77 402.717H1260.67V408.88H1261.16V402.717H1260.79V396.427H1260.77V402.717ZM1317.87 408.88H1318.46V402.717H1317.87V408.88ZM1330.59 408.88H1331.25V402.717H1330.59V408.88ZM1373.58 408.88H1373.63V402.717H1373.58V408.88ZM1162.18 402.59H1162.19V396.299H1162.23V390.137H1162.18V402.59ZM1203.5 402.59H1204.43V396.427H1203.5V402.59ZM1176.33 396.299H1176.34V390.137H1176.33V396.299ZM1218.7 396.299H1218.85V390.137H1218.7V396.299ZM1232.61 396.299H1232.63V390.137H1232.61V396.299ZM1331.78 396.299H1332.5V390.137H1331.78V396.299ZM1344.77 396.299H1345.33V390.137H1344.77V396.299ZM1218.57 390.009H1218.68V383.846H1218.57V390.009ZM1232.75 383.719H1232.78V390.009H1232.9V383.846H1232.79V377.556H1232.75V383.719ZM1246.79 390.009H1246.84V383.846H1246.79V390.009ZM1218.7 383.719H1218.71V377.556H1218.7V383.719ZM1430.67 383.719H1430.82V377.556H1430.67V383.719ZM47.8395 377.428H49.2762V371.265H47.8395V377.428ZM59.3555 377.428H59.8875V371.265H59.3555V377.428ZM1317.36 377.428H1317.95V371.265H1317.36V377.428ZM1331.1 377.428H1331.28V371.265H1331.1V377.428ZM33.5109 371.137H33.593V364.975H33.5109V371.137ZM147.649 364.847H147.923V358.685H147.649V364.847ZM158.296 364.847H158.817V358.685H158.296V364.847ZM1289.13 364.847H1289.35V358.685H1289.13V364.847ZM1303.25 364.847H1303.33V358.685H1303.25V364.847ZM33.4887 358.557H33.7734V352.394H33.4887V358.557ZM1289 358.557H1289.11V352.394H1289V358.557ZM1345.59 358.557H1345.67V346.104H1345.59V358.557ZM144.138 352.267H144.761V346.104H144.138V352.267ZM1387.72 345.976H1387.87V339.812H1387.72V345.976ZM1416.46 345.976H1417.69V339.812H1416.46V345.976ZM1428.95 345.976H1430.15V339.812H1428.95V345.976ZM1402.18 339.685H1402.19V333.522H1402.18V339.685ZM1388.03 333.395H1388.21V327.231H1388.03V333.395ZM1401.97 333.395H1401.99V327.231H1401.97V333.395ZM1430.2 320.813H1430.33V327.104H1430.38V320.813H1430.49V314.65H1430.2V320.813ZM1416.09 314.523H1416.22V320.813H1416.44V314.65H1416.24V308.36H1416.09V314.523Z" fill="#2C2824"/>
<path d="M1340.11 132.228H1340.04V138.519H1340V144.809H1339.96V151.099H1339.89V157.389H1339.76V163.68H1339.66V169.971H1339.62V176.261H1339.49V182.424H1339.52V188.842H1339.45V195.132H1339.25V201.423H1339.15V207.585H1339.25V214.003H1338.94V220.294H1338.77V226.585H1338.67V232.875H1338.6V226.585H1338.5V220.294H1338.33V214.003H1338.03V207.585H1338.13V201.423H1338.03V195.132H1337.82V188.842H1337.76V182.424H1337.79V176.261H1337.65V169.971H1337.62V163.68H1337.52V157.389H1337.38V151.099H1337.32V144.809H1337.28V138.519H1337.24V132.228H1337.17V125.809H1340.11V132.228Z" fill="#2C2824"/>
<path d="M1354.13 132.1H1354.22V138.519H1354.21V144.809H1354.11V151.099H1354.04V157.389H1353.91V163.68H1353.81V169.971H1353.77V176.261H1353.57V195.132H1353.53V201.423H1353.3V207.713H1353.26V214.003H1352.99V220.294H1352.89V226.585H1352.85V232.875H1352.65V226.585H1352.62V220.294H1352.51V214.003H1352.24V207.713H1352.21V201.423H1351.97V195.132H1351.94V176.261H1351.73V169.971H1351.7V163.68H1351.6V157.389H1351.46V151.099H1351.39V144.809H1351.29V138.519H1351.28V132.1H1351.37V125.809H1354.13V132.1Z" fill="#2C2824"/>
<path d="M1368.29 132.1H1368.32V144.809H1368.29V151.099H1368.15V157.389H1368.12V163.68H1368.02V169.971H1367.89V176.261H1367.71V182.424H1367.75V188.842H1367.71V195.132H1367.68V201.423H1367.48V207.713H1367.35V214.003H1367.2V220.294H1367.04V226.585H1366.97V232.875H1366.76V226.585H1366.7V220.294H1366.53V214.003H1366.38V207.713H1366.26V201.423H1366.05V195.132H1366.02V188.842H1365.98V182.424H1366.02V176.261H1365.85V169.971H1365.71V163.68H1365.61V157.389H1365.58V151.099H1365.44V144.809H1365.41V132.1H1365.44V125.809H1368.29V132.1Z" fill="#2C2824"/>
<path d="M1283.54 125.937H1283.14V132.1H1283.41V138.519H1283.37V144.809H1283.31V151.099H1283.24V163.68H1283.17V169.971H1283.07V176.261H1282.97V188.842H1282.8V195.132H1282.69V201.423H1282.52V207.713H1282.5V214.003H1282.31V220.294H1282.2V226.585H1282.17V220.294H1282.06V214.003H1281.87V207.713H1281.85V201.423H1281.68V195.132H1281.57V188.842H1281.4V176.261H1281.3V169.971H1281.2V163.68H1281.13V151.099H1281.06V144.809H1281V138.519H1280.96V132.1H1281.23V125.937H1280.83V119.519H1283.54V125.937Z" fill="#2C2824"/>
<path d="M1297.32 125.937H1297.28V132.1H1297.57V138.391H1297.59V144.809H1297.45V151.099H1297.42V157.389H1297.35V163.68H1297.28V169.971H1297.15V176.261H1297.08V182.551H1296.98V195.132H1296.91V201.423H1296.74V207.713H1296.65V214.003H1296.5V220.294H1296.33V226.585H1296.26V220.294H1296.1V214.003H1295.95V207.713H1295.86V201.423H1295.69V195.132H1295.62V182.551H1295.52V176.261H1295.45V169.971H1295.31V163.68H1295.25V157.389H1295.18V151.099H1295.14V144.809H1295.01V138.391H1295.03V132.1H1295.31V125.937H1295.28V119.519H1297.32V125.937Z" fill="#2C2824"/>
<path d="M1311.67 125.937H1311.4V132.1H1311.66V138.391H1311.67V144.681H1311.7V151.099H1311.53V163.68H1311.43V169.971H1311.29V176.261H1311.23V182.551H1311.19V195.132H1310.89V201.295H1310.9V207.713H1310.79V214.003H1310.62V220.294H1310.51V226.585H1310.31V220.294H1310.21V214.003H1310.04V207.713H1309.93V201.295H1309.94V195.132H1309.63V182.551H1309.6V176.261H1309.53V169.971H1309.39V163.68H1309.29V151.099H1309.12V144.681H1309.16V138.391H1309.17V132.1H1309.43V125.937H1309.16V119.519H1311.67V125.937Z" fill="#2C2824"/>
<path d="M1325.84 138.391H1325.85V151.099H1325.78V157.389H1325.64V163.68H1325.54V169.971H1325.48V176.261H1325.34V188.842H1325.17V195.132H1325.14V201.423H1325.03V207.713H1324.9V214.003H1324.83V220.294H1324.63V226.585H1324.42V220.294H1324.22V214.003H1324.15V207.713H1324.02V201.423H1323.92V195.132H1323.88V188.842H1323.71V176.261H1323.58V169.971H1323.51V163.68H1323.41V157.389H1323.27V151.099H1323.2V138.391H1323.21V132.1H1325.84V138.391Z" fill="#2C2824"/>
<path d="M872.93 220.294H872.861V213.876H872.93V220.294Z" fill="#2C2824"/>
<path d="M887.111 214.003H887.043V220.294H886.976V214.003H886.907V207.585H887.111V214.003Z" fill="#2C2824"/>
<path d="M901.156 188.714H901.291V201.423H901.257V214.003H901.156V220.294H901.089V214.003H900.987V201.423H900.952V188.714H901.089V182.424H901.156V188.714Z" fill="#2C2824"/>
<path d="M915.439 188.842H915.406V195.132H915.372V201.295H915.406V207.713H915.336V214.003H915.27V220.294H915.202V214.003H915.134V207.713H915.067V201.295H915.101V195.132H915.067V188.842H915.033V182.424H915.439V188.842Z" fill="#2C2824"/>
<path d="M986.107 182.424H986.141V188.842H986.119V195.132H986.074V201.423H986.006V207.713H985.938V214.003H985.836V220.294H985.768V214.003H985.668V207.713H985.6V201.423H985.533V195.132H985.486V188.842H985.464V182.424H985.498V176.133H986.107V182.424Z" fill="#2C2824"/>
<path d="M1000.36 176.261H1000.22V182.424H1000.29V188.842H1000.22V195.132H1000.19V201.423H1000.12V207.713H1000.05V214.003H999.95V220.294H999.881V214.003H999.781V207.713H999.713V201.423H999.646V195.132H999.612V188.842H999.543V182.424H999.612V176.261H999.476V169.843H1000.36V176.261Z" fill="#2C2824"/>
<path d="M1014.5 176.261H1014.4V188.842H1014.37V195.132H1014.34V201.423H1014.3V207.713H1014.2V214.003H1014.06V220.294H1014V214.003H1013.86V207.713H1013.76V201.423H1013.72V195.132H1013.69V188.842H1013.66V176.261H1013.55V169.843H1014.5V176.261Z" fill="#2C2824"/>
<path d="M1028.58 182.551H1028.52V195.132H1028.45V201.423H1028.41V207.713H1028.31V214.003H1028.18V220.294H1028.11V214.003H1027.97V207.713H1027.87V201.423H1027.84V195.132H1027.77V182.551H1027.7V169.843H1028.58V182.551Z" fill="#2C2824"/>
<path d="M1042.93 169.971H1042.63V176.133H1042.73V182.551H1042.63V188.842H1042.59V201.423H1042.53V207.713H1042.43V214.003H1042.29V220.294H1042.22V214.003H1042.09V207.713H1041.98V201.423H1041.92V188.842H1041.88V182.551H1041.78V176.133H1041.88V169.971H1041.58V163.552H1042.93V169.971Z" fill="#2C2824"/>
<path d="M1056.84 169.971H1056.81V176.133H1056.84V188.842H1056.74V195.132H1056.71V201.423H1056.68V207.713H1056.54V214.003H1056.47V220.294H1056.27V214.003H1056.2V207.713H1056.07V201.423H1056.03V195.132H1056V188.842H1055.9V176.133H1055.93V169.971H1055.9V163.552H1056.84V169.971Z" fill="#2C2824"/>
<path d="M1071.16 163.68H1070.96V169.843H1071.16V176.261H1070.99V182.551H1070.86V188.714H1070.92V195.132H1070.82V201.423H1070.79V207.713H1070.65V214.003H1070.59V220.294H1070.38V214.003H1070.31V207.713H1070.18V201.423H1070.14V195.132H1070.04V188.714H1070.11V182.551H1069.97V176.261H1069.81V169.843H1070.01V163.68H1069.81V157.262H1071.16V163.68Z" fill="#2C2824"/>
<path d="M1085.38 163.68H1085.24V176.261H1085.21V182.551H1085.04V188.714H1085.14V195.132H1084.97V201.423H1084.87V207.713H1084.74V214.003H1084.7V220.294H1084.5V214.003H1084.45V207.713H1084.33V201.423H1084.22V195.132H1084.05V188.714H1084.16V182.551H1083.99V176.261H1083.95V163.68H1083.82V157.262H1085.38V163.68Z" fill="#2C2824"/>
<path d="M1099.39 157.262H1099.49V169.971H1099.35V176.261H1099.32V182.551H1099.15V188.842H1099.08V201.423H1099.01V207.713H1098.86V214.003H1098.81V220.294H1098.61V214.003H1098.56V207.713H1098.41V201.423H1098.34V188.842H1098.27V182.551H1098.1V176.261H1098.07V169.971H1097.93V157.262H1098.03V150.971H1099.39V157.262Z" fill="#2C2824"/>
<path d="M1113.2 150.971H1113.71V157.389H1113.67V163.68H1113.64V169.971H1113.5V176.261H1113.47V182.551H1113.3V188.842H1113.26V201.423H1113.13V207.713H1113.03V214.003H1112.93V220.294H1112.72V214.003H1112.62V207.713H1112.52V201.423H1112.38V188.842H1112.35V182.551H1112.18V176.261H1112.15V169.971H1112.01V163.68H1111.97V157.389H1111.94V150.971H1112.45V144.681H1113.2V150.971Z" fill="#2C2824"/>
<path d="M1127.61 150.971H1127.82V163.68H1127.75V169.971H1127.72V176.261H1127.55V188.842H1127.41V201.423H1127.28V207.713H1127.14V214.003H1127.04V220.294H1126.84V214.003H1126.73V207.713H1126.6V201.423H1126.46V188.842H1126.33V176.261H1126.16V169.971H1126.12V163.68H1126.05V150.971H1126.26V144.681H1127.61V150.971Z" fill="#2C2824"/>
<path d="M1141.93 163.68H1141.87V169.971H1141.83V176.261H1141.69V182.551H1141.66V188.842H1141.56V195.132H1141.49V201.423H1141.42V207.713H1141.25V214.003H1141.19V220.294H1140.91V214.003H1140.85V207.713H1140.68V201.423H1140.61V195.132H1140.54V188.842H1140.44V182.551H1140.41V176.261H1140.27V169.971H1140.24V163.68H1140.17V144.681H1141.93V163.68Z" fill="#2C2824"/>
<path d="M1155.77 144.681H1156.11V163.68H1155.98V169.971H1155.95V176.261H1155.81V182.551H1155.77V188.842H1155.67V195.132H1155.6V201.423H1155.54V207.713H1155.44V214.003H1155.23V220.294H1155.1V214.003H1154.89V207.713H1154.79V201.423H1154.72V195.132H1154.66V188.842H1154.55V182.551H1154.52V176.261H1154.38V169.971H1154.35V163.68H1154.21V144.681H1154.55V138.391H1155.77V144.681Z" fill="#2C2824"/>
<path d="M1169.92 144.681H1170.26V151.099H1170.23V157.389H1170.13V163.68H1170.09V169.971H1170.06V176.261H1169.92V182.551H1169.89V195.132H1169.68V201.423H1169.65V207.713H1169.46V214.003H1169.41V220.294H1169.14V214.003H1169.1V207.713H1168.9V201.423H1168.87V195.132H1168.67V182.551H1168.63V176.261H1168.5V169.971H1168.46V163.68H1168.43V157.389H1168.33V151.099H1168.29V144.681H1168.63V138.391H1169.92V144.681Z" fill="#2C2824"/>
<path d="M1184.34 144.681H1184.38V151.099H1184.34V157.389H1184.24V169.971H1184.17V176.261H1184.07V182.551H1184.03V188.842H1183.97V195.132H1183.88V201.423H1183.74V207.713H1183.66V214.003H1183.53V220.294H1183.26V214.003H1183.12V207.713H1183.04V201.423H1182.9V195.132H1182.82V188.842H1182.75V182.551H1182.71V176.261H1182.61V169.971H1182.54V157.389H1182.44V151.099H1182.41V144.681H1182.44V138.391H1184.34V144.681Z" fill="#2C2824"/>
<path d="M1198.49 157.389H1198.35V169.971H1198.29V176.261H1198.18V182.551H1198.15V188.842H1198.08V195.132H1197.93V201.423H1197.86V207.713H1197.77V214.003H1197.64V220.294H1197.37V214.003H1197.23V207.713H1197.15V201.423H1197.08V195.132H1196.93V188.842H1196.86V182.551H1196.83V176.261H1196.72V169.971H1196.66V157.389H1196.52V138.391H1198.49V157.389Z" fill="#2C2824"/>
<path d="M1212.13 138.391H1212.64V144.809H1212.6V163.68H1212.47V169.971H1212.4V176.261H1212.3V182.551H1212.23V188.842H1212.1V195.132H1212.06V201.423H1212.02V207.713H1211.88V214.003H1211.73V220.294H1211.51V214.003H1211.36V207.713H1211.21V201.423H1211.18V195.132H1211.13V188.842H1211.01V182.551H1210.94V176.261H1210.84V169.971H1210.77V163.68H1210.63V144.809H1210.6V138.391H1211.11V132.1H1212.13V138.391Z" fill="#2C2824"/>
<path d="M1226.58 138.391H1226.75V151.099H1226.72V157.389H1226.61V163.68H1226.58V169.971H1226.41V176.261H1226.38V188.842H1226.26V195.132H1226.17V207.713H1226V214.003H1225.88V220.294H1225.58V214.003H1225.46V207.713H1225.29V195.132H1225.2V188.842H1225.09V176.261H1225.05V169.971H1224.88V163.68H1224.85V157.389H1224.75V151.099H1224.71V138.391H1224.88V132.1H1226.58V138.391Z" fill="#2C2824"/>
<path d="M1240.66 132.1H1240.8V138.391H1240.9V151.099H1240.83V157.389H1240.73V163.68H1240.69V169.971H1240.63V176.261H1240.52V182.551H1240.43V188.842H1240.38V195.132H1240.34V201.423H1240.25V207.713H1240.16V214.003H1240V220.294H1239.69V214.003H1239.53V207.713H1239.44V201.423H1239.35V195.132H1239.31V188.842H1239.26V182.551H1239.17V176.261H1239.06V169.971H1239V163.68H1238.96V157.389H1238.86V151.099H1238.79V138.391H1238.89V132.1H1239.03V125.809H1240.66V132.1Z" fill="#2C2824"/>
<path d="M1254.81 132.1H1254.98V138.391H1255.08V144.809H1255.01V151.099H1254.98V157.389H1254.94V163.68H1254.81V169.843H1254.84V176.261H1254.6V182.551H1254.57V188.842H1254.44V195.004H1254.47V201.423H1254.31V207.713H1254.23V214.003H1254.13V220.294H1253.79V214.003H1253.69V207.713H1253.61V201.423H1253.45V195.004H1253.47V188.842H1253.35V182.551H1253.31V176.261H1253.08V169.843H1253.11V163.68H1252.97V157.389H1252.94V151.099H1252.91V144.809H1252.84V138.391H1252.94V132.1H1253.11V125.809H1254.81V132.1Z" fill="#2C2824"/>
<path d="M1268.92 132.1H1269.09V138.391H1269.23V144.809H1269.19V151.099H1269.12V157.389H1269.09V169.971H1268.92V176.261H1268.72V188.842H1268.65V195.132H1268.56V201.295H1268.58V207.713H1268.39V214.003H1268.22V220.294H1267.92V214.003H1267.76V207.713H1267.56V201.295H1267.59V195.132H1267.5V188.842H1267.43V176.261H1267.22V169.971H1267.05V157.389H1267.02V151.099H1266.95V144.809H1266.92V138.391H1267.05V132.1H1267.22V125.809H1268.92V132.1Z" fill="#2C2824"/>
<path d="M746.01 214.003H745.739V207.585H746.01V214.003Z" fill="#2C2824"/>
<path d="M929.62 201.423H929.518V207.713H929.452V214.003H929.248V207.713H929.18V201.423H929.079V195.004H929.62V201.423Z" fill="#2C2824"/>
<path d="M944.481 182.551H943.733V188.842H943.665V195.132H943.631V207.713H943.564V214.003H943.361V207.713H943.293V195.132H943.259V188.842H943.192V182.551H942.443V176.133H944.481V182.551Z" fill="#2C2824"/>
<path d="M957.972 182.551H957.711V188.714H957.847V201.423H957.778V207.713H957.711V214.003H957.439V207.713H957.373V201.423H957.305V188.714H957.439V182.551H957.181V176.133H957.972V182.551Z" fill="#2C2824"/>
<path d="M972.062 182.551H971.994V195.132H971.96V201.423H971.893V207.713H971.824V214.003H971.555V207.713H971.487V201.423H971.418V195.132H971.384V182.551H971.317V176.133H972.062V182.551Z" fill="#2C2824"/>
<path d="M774.609 207.713H773.592V201.295H774.609V207.713Z" fill="#2C2824"/>
<path d="M830.589 201.295H830.657V207.713H830.454V201.295H830.522V195.004H830.589V201.295Z" fill="#2C2824"/>
<path d="M844.77 195.132H844.702V201.295H844.77V207.713H844.567V201.295H844.635V195.132H844.567V188.714H844.77V195.132Z" fill="#2C2824"/>
<path d="M858.884 207.713H858.68V188.714H858.884V207.713Z" fill="#2C2824"/>
<path d="M872.998 207.713H872.794V188.714H872.998V207.713Z" fill="#2C2824"/>
<path d="M802.532 201.423H802.125V195.004H802.532V201.423Z" fill="#2C2824"/>
<path d="M816.476 201.423H816.407V195.004H816.476V201.423Z" fill="#2C2824"/>
<path d="M887.177 195.132H887.145V201.423H886.873V195.132H886.839V188.714H887.177V195.132Z" fill="#2C2824"/>
<path d="M13.1637 18.8721H13.2656V25.1621H13.2984V31.5801H13.0277V37.7422H13.0945V44.1611H12.859V50.3242H12.9938V56.6143H13.0277V62.9043H13.0945V69.1943H13.1531V75.6133H13.0277V81.9043H12.6305V88.0664H12.9598V100.774H12.9258V107.065H12.6867V113.356H12.6305V119.519H12.6539V132.228H12.4828V144.681H12.5168V151.099H12.45V157.389H12.2473V163.68H12.1781V176.261H12.1441V182.551H12.0094V188.842H11.9414V182.551H11.8055V176.261H11.7715V163.68H11.7047V157.389H11.5008V151.099H11.4328V144.681H11.4668V132.228H11.298V119.519H11.3203V113.356H11.2641V107.065H11.025V100.774H10.991V88.0664H11.3203V81.9043H10.9219V75.6133H10.7988V69.1943H10.8551V62.9043H10.9219V56.6143H10.9559V50.3242H11.093V44.1611H10.8551V37.7422H10.9219V31.5801H10.6523V25.1621H10.6863V18.8721H10.7871V12.5811H13.1637V18.8721Z" fill="#2C2824"/>
<path d="M27.3785 31.5801H27.0398V37.7422H27.2438V44.1611H27.1406V63.0322H27.1066V69.1943H27.1406V75.6133H27.0398V81.9043H26.9039V88.0664H27.0398V94.4844H26.9719V100.774H26.9039V107.065H26.8008V113.356H26.7445V119.646H26.6988V125.937H26.6191V132.228H26.5852V138.519H26.5629V144.681H26.5969V151.099H26.5289V157.389H26.3602V163.68H26.2922V176.261H26.257V182.551H26.1223V188.842H26.0555V182.551H25.9195V176.261H25.8844V163.68H25.8176V157.389H25.6488V151.099H25.5809V144.681H25.6148V138.519H25.5926V132.228H25.5586V125.937H25.4789V119.646H25.4332V113.356H25.377V107.065H25.2727V100.774H25.2059V94.4844H25.1379V88.0664H25.2727V81.9043H25.1379V75.6133H25.0371V69.1943H25.0711V63.0322H25.0371V44.1611H24.934V37.7422H25.1379V31.5801H24.7992V18.8721H27.3785V31.5801Z" fill="#2C2824"/>
<path d="M929.552 188.842H929.146V182.424H929.552V188.842Z" fill="#2C2824"/>
<path d="M41.6613 25.29H41.4914V31.5801H41.1867V37.7422H41.2547V44.0332H41.3227V50.4521H41.1527V56.6143H41.2547V62.9043H41.3227V69.3223H41.2547V75.6133H41.1527V81.9043H41.0063V88.0664H41.2102V94.4844H41.0848V100.774H40.984V107.065H40.9617V113.356H40.8797V119.646H40.868V125.937H40.7895V132.228H40.677V138.519H40.6418V151.099H40.575V157.389H40.3945V163.552H40.4063V169.971H40.3723V176.261H40.3043V182.551H40.1004V176.261H40.0336V169.971H39.9996V163.552H40.0102V157.389H39.8297V151.099H39.7617V138.519H39.7277V132.228H39.6152V125.937H39.5355V119.646H39.5238V113.356H39.4441V107.065H39.4219V100.774H39.3188V94.4844H39.1945V88.0664H39.3984V81.9043H39.2508V75.6133H39.15V69.3223H39.082V62.9043H39.15V56.6143H39.2508V50.4521H39.082V44.0332H39.15V37.7422H39.218V31.5801H38.9121V25.29H38.7434V18.8721H41.6613V25.29Z" fill="#2C2824"/>
<path d="M56.5535 25.29H55.6055V31.5801H55.3688V44.1611H55.2668V50.3242H55.3348V56.7422H55.3008V63.0322H55.2668V69.1943H55.3688V75.6133H55.1648V81.9043H55.0969V88.0664H55.2668V94.4844H55.1648V100.774H54.9926V113.356H54.9586V119.646H54.9258V125.937H54.8016V132.228H54.757V144.809H54.6891V151.099H54.6199V157.389H54.4852V163.68H54.4512V176.261H54.4172V182.551H54.2133V176.261H54.1805V163.68H54.1465V157.389H54.0117V151.099H53.9426V144.809H53.8746V132.228H53.8301V125.937H53.7059V119.646H53.6719V113.356H53.6391V100.774H53.4668V94.4844H53.3648V88.0664H53.5348V81.9043H53.4668V75.6133H53.2629V69.1943H53.3648V63.0322H53.3309V56.7422H53.2969V50.3242H53.3648V44.1611H53.2629V31.5801H53.025V25.29H52.0781V18.8721H56.5535V25.29Z" fill="#2C2824"/>
<path d="M69.6855 31.5801H69.4816V37.8701H69.4137V44.0332H69.4477V50.3242H69.4816V56.7422H69.4137V75.6133H69.2098V81.7764H69.3797V88.1943H69.2906V94.4844H69.2789V100.774H69.2098V107.065H69.0727V113.356H69.0387V119.646H68.9707V125.937H68.8699V132.228H68.7797V138.391H68.802V151.099H68.7352V157.389H68.598V163.68H68.5313V176.261H68.3273V163.68H68.2594V157.389H68.1246V151.099H68.0566V138.391H68.0789V132.228H67.9875V125.937H67.8867V119.646H67.8188V113.356H67.7859V107.065H67.6477V100.774H67.5797V94.4844H67.5691V88.1943H67.4789V81.7764H67.6477V75.6133H67.4438V56.7422H67.3758V50.3242H67.4098V44.0332H67.4438V37.8701H67.3758V31.5801H67.1742V25.1621H69.6855V31.5801Z" fill="#2C2824"/>
<path d="M83.6637 37.8701H83.5266V44.0332H83.5828V50.3242H83.5945V56.7422H83.325V62.9043H83.4258V75.6133H83.3918V81.9043H83.2207V88.0664H83.4258V94.4844H83.3578V100.774H83.2207V107.065H83.1527V113.356H83.0273V119.519H83.0508V125.937H82.9488V132.228H82.8586V144.681H82.882V151.099H82.7449V157.389H82.6441V163.68H82.6102V169.971H82.4754V163.68H82.4414V157.389H82.3383V151.099H82.2035V144.681H82.2258V132.228H82.1367V125.937H82.0348V119.519H82.057V113.356H81.9328V107.065H81.8648V100.774H81.7266V94.4844H81.6598V88.0664H81.8648V81.9043H81.6938V75.6133H81.6598V62.9043H81.7606V56.7422H81.491V50.3242H81.5016V44.0332H81.5578V37.8701H81.4219V31.4521H83.6637V37.8701Z" fill="#2C2824"/>
<path d="M97.7766 37.8701H97.6734V44.0332H97.7086V50.4521H97.6406V56.7422H97.6066V63.0322H97.5387V69.1943H97.6406V75.6133H97.2996V81.7764H97.4379V88.0664H97.5047V94.4844H97.4719V100.774H97.2996V107.065H97.2656V113.356H97.1531V119.646H97.0957V125.937H97.0055V132.228H96.9727V138.519H96.927V144.681H96.9949V151.099H96.8262V157.389H96.757V163.68H96.7231V169.971H96.5883V163.68H96.5543V157.389H96.4875V151.099H96.3164V144.681H96.3844V138.519H96.3398V132.228H96.3059V125.937H96.2156V119.646H96.1594V113.356H96.0457V107.065H96.0117V100.774H95.8406V94.4844H95.8066V88.0664H95.8734V81.7764H96.0117V75.6133H95.6719V69.1943H95.7727V63.0322H95.7047V56.7422H95.6719V50.4521H95.6039V44.0332H95.6379V37.8701H95.5359V31.4521H97.7766V37.8701Z" fill="#2C2824"/>
<path d="M111.789 50.4521H111.652V56.7422H111.619V63.0322H111.551V69.1943H111.585V75.6133H111.38V81.7764H111.446V88.0664H111.551V94.4844H111.413V100.774H111.38V107.065H111.278V113.356H111.233V119.646H111.12V125.937H111.086V132.228H111.04V138.519H111.007V144.809H110.939V151.099H110.871V157.389H110.838V163.68H110.701V157.389H110.667V151.099H110.6V144.809H110.532V138.519H110.498V132.228H110.453V125.937H110.419V119.646H110.306V113.356H110.262V107.065H110.16V100.774H110.126V94.4844H109.989V88.0664H110.091V81.7764H110.16V75.6133H109.955V69.1943H109.989V63.0322H109.921V56.7422H109.886V50.4521H109.751V37.7422H111.789V50.4521Z" fill="#2C2824"/>
<path d="M125.527 44.0332H125.767V50.4521H125.698V69.3223H125.559V75.6133H125.493V81.9043H125.425V88.0664H125.664V94.4844H125.559V100.774H125.493V107.065H125.391V113.356H125.324V119.646H125.234V125.937H125.154V132.228H125.12V138.519H125.086V144.809H125.03V151.099H124.985V157.389H124.951V163.68H124.814V157.389H124.781V151.099H124.736V144.809H124.679V138.519H124.645V132.228H124.613V125.937H124.533V119.646H124.441V113.356H124.375V107.065H124.273V100.774H124.206V94.4844H124.102V88.0664H124.341V81.9043H124.273V75.6133H124.206V69.3223H124.068V50.4521H124.001V44.0332H124.24V37.7422H125.527V44.0332Z" fill="#2C2824"/>
<path d="M139.902 50.4521H139.675V56.6143H139.777V63.0322H139.675V69.3223H139.641V75.6133H139.538V81.7764H139.607V88.0664H139.641V100.774H139.607V107.065H139.437V113.356H139.369V119.646H139.268V125.937H139.233V132.228H139.188V138.519H139.143V151.099H139.064V157.389H138.929V151.099H138.848V138.519H138.804V132.228H138.759V125.937H138.725V119.646H138.623V113.356H138.557V107.065H138.387V100.774H138.353V88.0664H138.387V81.7764H138.454V75.6133H138.353V69.3223H138.319V63.0322H138.214V56.6143H138.319V50.4521H138.091V44.0332H139.902V50.4521Z" fill="#2C2824"/>
<path d="M153.754 69.3223H153.618V75.6133H153.55V81.7764H153.618V88.0664H153.754V94.4844H153.72V100.774H153.618V107.065H153.55V113.356H153.483V119.646H153.381V125.937H153.347V132.228H153.267V138.519H153.255V151.099H153.177V157.389H153.042V151.099H152.964V138.519H152.952V132.228H152.872V125.937H152.838V119.646H152.738V113.356H152.67V107.065H152.602V100.774H152.5V94.4844H152.466V88.0664H152.602V81.7764H152.67V75.6133H152.602V69.3223H152.466V50.3242H153.754V69.3223Z" fill="#2C2824"/>
<path d="M167.732 63.0322H167.698V75.4854H167.732V81.9043H167.698V88.0664H167.834V94.4844H167.766V100.774H167.698V107.065H167.663V113.356H167.539V119.519H167.562V125.937H167.348V132.1H167.371V138.519H167.325V144.809H167.29V157.389H167.155V144.809H167.121V138.519H167.077V132.1H167.099V125.937H166.884V119.519H166.907V113.356H166.782V107.065H166.748V100.774H166.682V94.4844H166.614V88.0664H166.748V81.9043H166.716V75.4854H166.748V63.0322H166.716V56.6143H167.732V63.0322Z" fill="#2C2824"/>
<path d="M181.71 81.7764H181.812V88.0664H181.946V94.4844H181.812V100.774H181.71V107.065H181.675V113.356H181.608V119.646H181.54V125.937H181.506V132.228H181.439V144.809H181.405V157.389H181.268V144.809H181.235V132.228H181.167V125.937H181.133V119.646H181.066V113.356H180.998V107.065H180.963V100.774H180.863V94.4844H180.727V88.0664H180.863V81.7764H180.963V75.4854H181.71V81.7764Z" fill="#2C2824"/>
<path d="M195.756 81.7764H195.823V88.0664H195.991V94.4844H195.823V107.065H195.79V113.356H195.63V119.646H195.574V125.809H195.619V132.228H195.518V144.681H195.54V151.099H195.518V157.389H195.383V151.099H195.359V144.681H195.383V132.228H195.28V125.809H195.326V119.646H195.27V113.356H195.111V107.065H195.077V94.4844H194.907V88.0664H195.077V81.7764H195.145V75.4854H195.756V81.7764Z" fill="#2C2824"/>
<path d="M209.766 88.0664H210.071V94.4844H210.004V100.774H209.903V107.065H209.835V119.646H209.699V125.937H209.665V132.228H209.643V138.519H209.631V144.809H209.597V151.099H209.53V144.809H209.496V138.519H209.484V132.228H209.462V125.937H209.428V119.646H209.292V107.065H209.224V100.774H209.123V94.4844H209.055V88.0664H209.36V81.7764H209.766V88.0664Z" fill="#2C2824"/>
<path d="M223.847 94.3564H224.016V100.774H223.881V106.938H223.948V113.356H223.813V119.646H223.778V125.937H223.711V132.228H223.643V125.937H223.575V119.646H223.542V113.356H223.405V106.938H223.474V100.774H223.338V94.3564H223.508V88.0664H223.847V94.3564Z" fill="#2C2824"/>
<path d="M237.824 119.646H237.756V113.229H237.824V119.646Z" fill="#2C2824"/>
<path d="M237.893 107.065H237.689V100.647H237.893V107.065Z" fill="#2C2824"/>
<path d="M1437.47 81.9043H1437.4V75.4854H1437.47V81.9043Z" fill="#2C2824"/>
<path d="M1409.24 69.3223H1409.17V62.9043H1409.24V69.3223Z" fill="#2C2824"/>
<path d="M1423.35 69.3223H1423.29V62.9043H1423.35V69.3223Z" fill="#2C2824"/>
<path d="M1437.53 56.6143H1437.57V63.0322H1437.53V69.3223H1437.33V63.0322H1437.3V56.6143H1437.33V50.3242H1437.53V56.6143Z" fill="#2C2824"/>
<path d="M1423.42 56.7422H1423.22V50.3242H1423.42V56.7422Z" fill="#2C2824"/>
<path d="M1310.45 37.8701H1310.38V31.4521H1310.45V37.8701Z" fill="#2C2824"/>
<path d="M322.505 31.5801H322.438V25.1621H322.505V31.5801Z" fill="#2C2824"/>
<path d="M350.732 25.29H350.664V18.8721H350.732V25.29Z" fill="#2C2824"/>
<path d="M364.846 25.29H364.777V18.8721H364.846V25.29Z" fill="#2C2824"/>
<path d="M534.206 25.29H534.138V18.8721H534.206V25.29Z" fill="#2C2824"/>
<path d="M491.934 18.999H491.73V12.5811H491.934V18.999Z" fill="#2C2824"/>
<path d="M1423.35 6.41797H1423.29V0H1423.35V6.41797Z" fill="#2C2824"/>
</svg>
