<svg width="1440" height="240" viewBox="0 0 1440 240" fill="none" xmlns="http://www.w3.org/2000/svg">
<path fill-rule="evenodd" clip-rule="evenodd" d="M633.612 5.32126H633.645V10.6425H634.052V21.2859H634.122V26.6072H634.155V32.0366H633.817V37.3583H633.612V42.5718H633.783V48.0012H633.679V63.8577H633.817V69.179H633.851V74.5002H634.223V79.9296H634.155V85.2513H634.02V90.4649H634.122V95.8943H633.884V101.107H637.61V106.537H637.341V111.859H637.272V117.18H637.103V122.393H637.171V127.715H637.341V133.037H637.475V138.358H637.509V143.679H637.713V149.109H637.543V159.752H637.375V164.965H637.644V170.286H638.865V175.608H639.611V186.251H639.677V191.572H639.711V196.894H639.813V202.216H639.881V207.537H640.017V212.858H640.031V207.537H640.098V202.216H640.166V196.894H640.235V191.572H640.404V186.251H640.505V180.93H640.539V175.716H640.404V170.286H642.572V164.965H642.707V159.752H642.538V154.43H642.504V143.679H642.606V138.466H642.572V133.037H642.844V127.715H642.945V117.18H642.877V111.859H642.673V106.43H642.945V101.107H646.062V95.8943H646.029V85.2513H645.858V79.8215H645.926V74.5002H646.096V69.179H646.264V58.5364H646.403V53.3225H646.264V42.5718H646.403V37.3583H646.029V31.9284H646.096V26.7153H646.029V10.7507H645.995V5.32126H648.168V10.7507H648.134V26.7153H648.064V31.9284H648.134V37.3583H647.759V42.5718H647.896V53.3225H647.759V58.5364H647.896V69.179H648.064V74.5002H648.234V79.8215H648.302V85.2513H648.134V95.8943H648.098V101.107H651.216V106.43H651.488V111.859H651.284V117.18H651.216V127.715H651.318V133.037H651.588V138.466H651.555V143.679H651.656V154.43H651.622V159.752H651.454V164.965H651.588V170.286H653.757V175.716H653.623V180.93H653.655V186.251H653.757V191.572H653.927V196.894H653.995V202.216H654.062V207.537H654.13V212.858H654.211V207.537H654.314V202.216H654.382V196.894H654.483V191.572H654.551V186.251H654.619V175.608H654.687V170.286H656.889V164.965H656.957V159.752H656.618V143.679H656.651V138.358H656.855V133.037H656.991V127.715H657.127V111.859H656.889V106.43H657.127V101.107H660.38V95.8943H660.04V90.4649H660.176V85.2513H659.972V79.8215H660.346V74.5002H660.517V63.9658H660.38V58.5364H660.517V47.8931H660.686V42.6799H660.277V32.0366H660.209V21.394H660.108V15.9646H660.209V10.7507H659.972V5.32126H662.415V10.7507H662.18V15.9646H662.28V21.394H662.18V32.0366H662.111V42.6799H661.703V47.8931H661.872V58.5364H662.009V63.9658H661.872V74.5002H662.043V79.8215H662.415V85.2513H662.213V90.4649H662.348V95.8943H662.009V101.107H665.262V106.43H665.5V111.859H665.262V127.715H665.398V133.037H665.534V138.358H665.738V143.679H665.77V159.752H665.432V164.965H665.5V170.286H667.702V175.608H667.77V186.251H667.836V191.572H667.905V196.894H668.006V202.216H668.074V207.537H668.175V212.858H668.243V218.179H668.258V212.858H668.326V207.537H668.427V202.216H668.495V196.894H668.596V191.572H668.665V186.251H668.766V180.93H668.902V175.716H668.733V170.286H669.613V164.965H670.562V159.644H670.731V143.679H670.765V138.358H670.969V133.037H671.104V127.715H671.239V117.18H671.104V111.751H671.139V106.537H670.122V101.107H674.289V95.8943H674.154V90.4649H674.289V79.8215H674.597V74.6084H674.289V69.2871H674.255V63.8577H674.493V58.5364H674.63V53.2143H674.766V48.0012H674.425V42.6799H674.391V32.0366H674.323V21.394H674.289V15.9646H674.459V10.6425H676.155V15.9646H676.327V21.394H676.293V32.0366H676.225V42.6799H676.191V48.0012H675.85V53.2143H675.984V58.5364H676.123V63.8577H676.359V69.2871H676.327V74.6084H676.02V79.8215H676.327V90.4649H676.461V95.8943H676.327V101.107H680.494V106.537H679.478V111.751H679.512V117.18H679.375V127.715H679.512V133.037H679.647V138.358H679.85V143.679H679.884V159.644H680.053V164.965H681.002V170.286H681.882V175.716H681.714V180.93H681.848V186.251H681.952V191.572H682.018V196.894H682.12V202.216H682.187V207.537H682.29V212.858H682.439V207.537H682.574V202.216H682.608V196.894H682.677V191.572H682.711V186.251H682.778V180.93H682.913V175.608H683.05V170.286H683.896V164.965H685.048V159.752H685.014V154.43H684.879V149.109H684.743V143.679H684.913V138.358H685.014V133.037H685.184V127.715H685.352V117.18H685.252V111.859H685.184V106.43H687.454V101.107H688.064V95.7861H688.368V90.4649H688.402V85.1436H688.777V79.9296H688.605V74.6084H688.505V69.179H688.538V63.8577H688.605V58.5364H688.744V48.0012H688.538V32.0366H688.505V21.2859H688.71V16.0724H687.522V10.6425H691.321V16.0724H690.132V21.2859H690.338V32.0366H690.305V48.0012H690.098V58.5364H690.237V63.8577H690.305V69.179H690.338V74.6084H690.237V79.9296H690.066V85.1436H690.439V90.4649H690.473V95.7861H690.778V101.107H691.389V106.43H693.659V111.859H693.591V117.18H693.49V127.715H693.659V133.037H693.829V138.358H693.929V143.679H694.098V149.109H693.963V154.43H693.829V159.752H693.793V164.965H694.947V170.286H695.793V175.608H695.927V180.93H696.064V186.251H696.131V191.572H696.165V196.894H696.233V202.216H696.267V207.537H696.403V212.858H696.552V207.537H696.689V202.216H696.824V196.894H696.858V186.251H696.959V180.93H697.027V175.608H697.129V170.286H697.976V164.965H699.23V159.752H699.06V149.109H699.026V143.787H698.958V138.358H699.195V133.037H699.298V127.715H699.398V122.393H699.499V111.859H699.33V106.43H702.618V101.216H702.449V95.7861H702.483V90.4649H702.652V85.1436H702.923V79.8215H703.027V74.6084H702.449V69.179H702.483V63.8577H702.652V58.5364H702.718V53.2143H702.823V48.0012H702.684V42.6799H702.652V37.3583H702.618V31.9284H702.857V26.7153H702.652V21.394H702.516V15.9646H704.552V21.394H704.418V26.7153H704.213V31.9284H704.452V37.3583H704.418V42.6799H704.384V48.0012H704.245V53.2143H704.35V58.5364H704.418V63.8577H704.586V69.179H704.622V74.6084H704.041V79.8215H704.145V85.1436H704.418V90.4649H704.586V95.7861H704.622V101.216H704.452V106.43H707.738V111.859H707.569V122.393H707.67V127.715H707.772V133.037H707.873V138.358H708.11V143.787H708.042V149.109H708.009V159.752H707.841V164.965H709.093V170.286H709.939V175.608H710.043V180.93H710.109V186.251H710.211V196.894H710.245V202.216H710.381V207.537H710.516V212.858H710.768V207.537H710.836V191.572H711.005V186.251H711.107V181.037H711.073V175.608H711.275V170.286H712.766V164.965H713.411V159.752H713.139V154.43H713.105V149.109H713.072V138.358H713.276V133.037H713.343V127.715H713.511V122.393H713.579V111.751H713.648V106.43H716.596V101.216H716.494V95.7861H716.663V90.4649H717.173V74.6084H716.764V69.2871H716.73V63.8577H717.004V58.6437H716.834V53.2143H716.936V48.0012H716.834V42.6799H716.63V37.3583H716.562V31.9284H716.97V26.6072H717.139V21.2859H718.157V26.6072H718.325V31.9284H718.734V37.3583H718.666V42.6799H718.463V48.0012H718.359V53.2143H718.463V58.6437H718.291V63.8577H718.564V69.2871H718.53V74.6084H718.123V90.4649H718.634V95.7861H718.802V101.216H718.7V106.43H721.648V111.751H721.716V122.393H721.784V127.715H721.954V133.037H722.02V138.358H722.223V149.109H722.189V154.43H722.156V159.752H721.886V164.965H722.529V170.286H724.02V175.608H724.223V181.037H724.189V186.251H724.29V191.572H724.46V207.537H724.528V212.858H724.766V218.179H724.78V212.858H724.881V207.537H724.949V202.216H725.05V196.894H725.084V191.572H725.119V186.251H725.187V180.93H725.254V175.716H725.22V170.286H727.693V165.073H727.219V159.644H727.287V154.43H727.252V149.109H727.185V138.466H726.846V133.037H727.693V127.823H727.624V122.393H727.693V117.072H728.066V111.751H730.37V106.43H730.675V95.7861H730.743V90.4649H731.286V85.2513H731.118V79.9296H730.879V74.6084H730.608V69.179H730.777V63.8577H731.051V58.5364H731.084V53.2143H731.118V47.8931H731.286V42.6799H730.777V37.3583H730.608V32.0366H730.505V26.6072H733.016V32.0366H732.915V37.3583H732.747V42.6799H732.236V47.8931H732.404V53.2143H732.438V58.5364H732.472V63.8577H732.747V69.179H732.915V74.6084H732.643V79.9296H732.404V85.2513H732.236V90.4649H732.78V95.7861H732.847V106.43H733.153V111.751H735.456V117.072H735.829V122.393H735.897V127.823H735.829V133.037H736.677V138.466H736.338V149.109H736.27V154.43H736.235V159.644H736.304V165.073H735.829V170.286H738.302V175.716H738.268V180.93H738.336V186.251H738.403V191.572H738.438V196.894H738.472V202.216H738.574V207.537H738.641V212.858H738.743V218.179H738.825V212.858H738.994V207.537H739.062V202.216H739.13V196.894H739.198V191.572H739.3V186.251H739.334V180.93H739.366V175.608H739.504V170.286H741.536V159.752H741.502V154.43H741.333V138.466H741.197V133.037H741.23V127.715H741.672V122.393H741.84V111.751H744.788V106.537H744.721V95.7861H744.855V90.4649H745.164V85.2513H744.991V79.9296H744.889V63.8577H745.164V58.6437H744.889V53.2143H745.025V48.0012H744.991V42.6799H744.855V37.2505H745.198V31.9284H746.552V37.2505H746.893V42.6799H746.759V48.0012H746.725V53.2143H746.859V58.6437H746.586V63.8577H746.859V79.9296H746.759V85.2513H746.586V90.4649H746.893V95.7861H747.028V106.537H746.96V111.751H749.909V122.393H750.079V127.715H750.518V133.037H750.552V138.466H750.417V154.43H750.247V159.752H750.213V170.286H752.247V175.608H752.381V180.93H752.415V186.251H752.449V191.572H752.552V196.894H752.619V202.216H752.687V207.537H752.754V212.858H752.925V218.179H752.972V212.858H753.108V207.537H753.176V202.216H753.244V196.894H753.413V191.572H753.447V186.251H753.48V180.93H753.513V175.608H753.785V170.286H755.648V164.965H755.92V159.752H755.614V154.43H755.446V149.109H755.412V138.466H755.276V127.715H755.48V122.393H755.953V117.072H756.124V111.751H758.766V106.43H758.902V101.216H758.834V95.7861H758.97V90.4649H759.345V85.2513H759.277V79.9296H759.072V63.8577H759.105V47.8931H759.311V42.6799H759.172V37.3583H758.8V31.9284H761.176V37.3583H760.804V42.6799H760.666V47.8931H760.872V63.8577H760.905V79.9296H760.699V85.2513H760.632V90.4649H761.006V95.7861H761.142V101.216H761.074V106.43H761.21V111.751H763.853V117.072H764.023V122.393H764.496V127.715H764.7V138.466H764.564V149.109H764.53V154.43H764.361V159.752H764.057V164.965H764.327V170.286H766.191V175.608H766.461V180.93H766.497V186.251H766.53V191.572H766.563V196.894H766.732V202.216H766.8V207.537H766.869V212.858H767.004V218.179H767.052V212.858H767.222V207.537H767.29V202.216H767.391V196.894H767.559V191.68H767.525V186.251H767.695V180.93H767.729V175.608H769.119V170.286H769.898V159.752H769.763V154.43H769.593V143.787H769.458V133.037H769.526V127.823H769.288V122.393H769.593V117.18H769.39V111.751H772.54V106.43H773.05V101.216H773.016V95.7861H773.116V90.4649H773.285V85.1436H773.389V79.9296H773.184V58.5364H773.218V47.8931H773.627V42.6799H773.252V31.9284H774.95V42.6799H774.575V47.8931H774.984V58.5364H775.018V79.9296H774.813V85.1436H774.916V90.4649H775.085V95.7861H775.188V101.216H775.154V106.43H775.662V111.751H778.814V117.18H778.61V122.393H778.915V127.823H778.677V133.037H778.746V143.787H778.61V154.43H778.441V159.752H778.304V170.286H779.084V175.608H780.473V180.93H780.506V186.251H780.677V191.68H780.643V196.894H780.812V202.216H780.914V207.537H780.982V212.858H781.151V218.179H781.234V212.858H781.335V207.537H781.403V202.216H781.572V196.894H781.842V191.68H781.741V186.359H781.673V180.93H781.741V175.608H784.384V170.395H784.011V165.073H783.977V159.644H784.011V154.43H783.843V149.109H783.571V143.679H783.705V138.466H783.571V133.037H783.639V127.823H783.571V122.501H783.367V117.072H783.571V111.751H784.52V106.43H787.231V90.4649H787.502V79.9296H787.297V74.5002H787.4V69.2871H787.163V63.8577H787.297V58.5364H787.331V53.2143H787.606V48.0012H787.4V42.6799H787.028V37.2505H787.197V31.9284H789.234V37.2505H789.403V42.6799H789.031V48.0012H788.824V53.2143H789.097V58.5364H789.131V63.8577H789.267V69.2871H789.031V74.5002H789.131V79.9296H788.926V90.4649H789.2V106.43H791.91V111.751H792.859V117.072H793.062V122.501H792.859V127.823H792.792V133.037H792.859V138.466H792.723V143.679H792.859V149.109H792.588V154.43H792.42V159.644H792.452V165.073H792.42V170.395H792.047V175.608H794.688V180.93H794.756V186.359H794.688V191.68H794.588V196.894H794.857V202.216H795.028V207.537H795.095V212.858H795.197V218.179H795.415V212.858H795.482V207.537H795.584V202.216H795.686V197.002H795.652V191.572H795.788V186.251H795.854V180.93H796.16V175.608H798.532V170.395H798.26V165.073H798.159V159.752H797.989V154.43H797.922V149.109H797.855V143.787H797.787V138.466H797.752V133.037H797.787V127.715H797.855V122.501H797.651V117.18H797.515V111.751H798.193V106.43H800.53V101.107H801.786V95.8943H801.309V90.4649H801.479V85.1436H801.652V79.9296H801.479V69.2871H801.343V63.9658H801.309V58.5364H801.618V53.3225H801.479V47.8931H801.513V42.5718H801.786V37.2505H802.87V42.5718H803.143V47.8931H803.179V53.3225H803.04V58.5364H803.347V63.9658H803.313V69.2871H803.179V79.9296H803.006V85.1436H803.179V90.4649H803.347V95.8943H802.87V101.107H804.127V106.43H806.464V111.751H807.143V117.18H807.006V122.501H806.803V127.715H806.871V133.037H806.905V138.466H806.871V143.787H806.803V149.109H806.735V154.43H806.667V159.752H806.498V165.073H806.395V170.395H806.126V175.608H808.497V180.93H808.802V186.251H808.869V191.572H809.006V197.002H808.972V202.216H809.073V207.537H809.175V212.858H809.242V218.179H809.562V207.537H809.629V202.216H809.9V196.894H809.967V191.68H809.934V186.251H810.104V180.93H810.544V175.608H812.578V170.395H812.306V165.073H812.238V159.752H812.102V154.43H812.034V149.109H811.968V143.787H811.934V138.358H811.968V133.144H811.934V127.715H812.068V122.501H811.9V117.18H811.696V111.751H812.374V106.537H812.306V101.107H814.847V95.7861H815.356V90.4649H815.423V85.1436H815.731V79.9296H815.592V74.5002H815.626V69.2871H815.457V58.5364H815.831V53.3225H815.457V47.8931H815.731V42.5718H815.831V37.3583H814.712V31.9284H818.172V37.3583H817.052V42.5718H817.153V47.8931H817.426V53.3225H817.052V58.5364H817.426V69.2871H817.257V74.5002H817.291V79.9296H817.153V85.1436H817.46V90.4649H817.528V95.7861H818.037V101.107H820.577V106.537H820.511V111.751H821.188V117.18H820.984V122.501H820.814V127.715H820.95V133.144H820.917V138.358H820.95V143.787H820.917V149.109H820.849V154.43H820.78V159.752H820.645V165.073H820.577V170.395H820.307V175.608H822.34V180.93H822.781V186.251H822.949V191.68H822.915V196.894H822.984V202.216H823.254V207.537H823.322V218.179H823.559V223.501H823.675V218.179H823.845V212.966H823.811V202.216H823.913V196.894H824.013V191.572H824.048V186.251H824.352V180.93H826.181V170.286H826.487V165.073H826.385V159.752H826.318V154.43H826.181V149.109H826.148V143.679H826.216V138.466H826.181V133.144H826.013V127.715H826.419V122.501H826.081V117.18H825.98V111.751H826.081V106.43H826.521V101.216H826.25V95.7861H829.504V90.4649H830.25V85.2513H830.115V79.9296H829.706V74.5002H829.843V69.2871H829.47V63.8577H829.504V58.5364H829.538V53.2143H829.706V48.0012H829.538V31.9284H831.573V48.0012H831.404V53.2143H831.573V58.5364H831.608V63.8577H831.642V69.2871H831.267V74.5002H831.404V79.9296H830.995V85.2513H830.861V90.4649H831.608V95.7861H834.861V101.216H834.589V106.43H835.03V111.751H835.131V117.18H835.03V122.501H834.691V127.715H835.097V133.144H834.928V138.466H834.895V143.679H834.962V149.109H834.928V154.43H834.792V159.752H834.724V165.073H834.623V170.286H834.928V180.93H836.759V186.251H837.063V191.572H837.097V196.894H837.198V202.216H837.3V212.966H837.266V218.179H837.436V223.501H837.653V218.179H837.923V207.537H838.095V202.323H838.025V196.894H838.095V186.251H839.213V180.93H840.77V170.395H840.6V165.073H840.499V159.752H840.431V154.43H840.297V149.109H840.159V143.679H840.263V133.144H840.127V127.715H840.465V122.501H840.331V117.18H840.159V111.751H840.804V106.537H840.635V101.216H840.331V95.8943H840.193V90.4649H844.398V85.2513H844.363V79.9296H844.194V74.6084H843.785V63.9658H843.65V53.2143H844.024V48.0012H843.99V42.6799H843.582V31.9284H845.755V42.6799H845.346V48.0012H845.312V53.2143H845.688V63.9658H845.551V74.6084H845.143V79.9296H844.973V85.2513H844.939V90.4649H849.143V95.8943H849.008V101.216H848.702V106.537H848.534V111.751H849.177V117.18H849.008V122.501H848.871V127.715H849.211V133.144H849.075V143.679H849.177V149.109H849.042V154.43H848.906V159.752H848.838V165.073H848.736V170.395H848.568V180.93H850.126V186.251H851.244V196.894H851.311V202.323H851.244V207.537H851.414V218.179H851.684V223.501H851.732V218.179H851.902V212.858H852.207V207.645H852.07V202.216H852.241V196.894H852.376V191.572H852.953V186.251H854.816V181.037H854.647V175.608H855.121V170.395H854.714V165.073H854.647V159.752H854.544V154.43H854.409V149.109H854.375V143.787H854.309V138.358H854.375V133.144H854.239V127.715H854.375V122.501H854.309V117.18H854.105V111.751H855.121V106.537H854.782V101.107H854.816V90.573H853.765V85.1436H858.409V79.8215H858.613V74.6084H857.763V69.179H857.899V63.9658H857.695V58.5364H858.072V53.2143H858.106V42.6799H858.072V37.3583H857.864V31.9284H859.699V37.3583H859.494V42.6799H859.459V53.2143H859.494V58.5364H859.868V63.9658H859.664V69.179H859.801V74.6084H858.952V79.8215H859.156V85.1436H863.798V90.573H862.748V101.107H862.782V106.537H862.444V111.751H863.46V117.18H863.256V122.501H863.189V127.715H863.325V133.144H863.189V138.358H863.256V143.787H863.189V149.109H863.155V154.43H863.02V159.752H862.918V165.073H862.849V170.395H862.444V175.608H862.918V181.037H862.748V186.251H864.612V191.572H865.188V196.894H865.323V202.216H865.493V207.645H865.357V212.858H865.662V218.179H865.833V223.501H866.016V218.179H866.186V207.537H866.22V202.216H866.354V196.894H866.421V191.572H868.861V186.251H868.895V181.037H868.861V170.395H868.828V159.752H868.59V154.43H868.556V149.109H868.488V143.787H868.422V138.358H868.488V133.037H868.522V122.501H868.488V117.18H868.252V111.751H869.099V106.537H869.032V101.216H868.895V95.8943H868.659V90.573H868.556V85.1436H872.591V79.9296H872.387V74.6084H871.979V69.2871H871.707V63.8577H871.911V58.5364H872.218V53.3225H872.184V47.8931H872.218V42.6799H872.08V37.2505H872.184V31.9284H872.285V26.6072H873.505V31.9284H873.607V37.2505H873.711V42.6799H873.574V47.8931H873.607V53.3225H873.574V58.5364H873.88V63.8577H874.084V69.2871H873.813V74.6084H873.403V79.9296H873.202V85.1436H877.234V90.573H877.133V95.8943H876.895V101.216H876.761V106.537H876.693V111.751H877.54V117.18H877.303V122.501H877.268V133.037H877.303V138.358H877.371V143.787H877.303V149.109H877.234V154.43H877.2V159.752H876.964V170.395H876.929V181.037H876.895V186.251H876.929V191.572H879.369V196.894H879.436V202.216H879.573V207.537H879.607V218.179H879.776V223.501H880.129V218.179H880.198V212.858H880.332V207.537H880.433V202.323H880.366V196.894H882.094V191.572H882.669V186.251H882.806V180.93H882.941V175.608H883.111V170.395H882.975V165.073H882.873V159.752H882.806V154.43H882.704V149.109H882.602V143.787H882.534V138.358H882.635V127.823H882.534V122.393H882.602V111.751H883.179V106.537H883.145V101.216H882.975V95.8943H882.873V90.4649H883.042V85.1436H886.535V79.8215H886.738V74.6084H886.092V63.9658H885.991V58.5364H886.193V53.2143H886.466V42.6799H886.297V37.3583H886.024V32.0366H885.686V26.6072H885.754V21.2859H888.265V26.6072H888.333V32.0366H887.993V37.3583H887.721V42.6799H887.55V53.2143H887.824V58.5364H888.027V63.9658H887.926V74.6084H887.281V79.8215H887.483V85.1436H890.974V90.4649H891.145V95.8943H891.043V101.216H890.873V106.537H890.839V111.751H891.416V122.393H891.484V127.823H891.382V138.358H891.484V143.787H891.416V149.109H891.314V154.43H891.212V159.752H891.145V165.073H891.043V170.395H890.907V175.608H891.077V180.93H891.212V186.251H891.349V191.572H891.923V196.894H893.652V202.323H893.585V207.537H893.686V212.858H893.821V218.179H893.89V223.501H894.243V218.179H894.377V212.858H894.445V207.537H894.546V202.216H894.988V196.894H896.75V191.572H896.784V186.251H896.885V180.93H897.054V175.608H897.224V170.395H897.123V165.073H896.885V159.644H896.919V154.43H896.817V149.109H896.647V138.358H896.75V127.823H896.647V122.393H896.715V117.072H896.784V111.751H897.393V106.537H897.258V101.216H897.089V95.8943H896.784V90.4649H901.021V85.2513H900.682V74.6084H900.138V69.179H900.205V63.9658H900.104V58.6437H899.97V53.2143H900.581V42.6799H900.273V37.2505H900.307V32.0366H900.239V26.7153H899.325V21.2859H902.92V26.7153H902.005V32.0366H901.938V37.2505H901.971V42.6799H901.665V53.2143H902.277V58.6437H902.142V63.9658H902.039V69.179H902.107V74.6084H901.562V85.2513H901.225V90.4649H905.462V95.8943H905.156V101.216H904.986V106.537H904.852V111.751H905.462V117.072H905.529V122.393H905.597V127.823H905.496V138.358H905.597V149.109H905.428V154.43H905.325V159.644H905.359V165.073H905.123V170.395H905.022V175.608H905.19V180.93H905.359V186.251H905.462V191.572H905.496V196.894H907.257V202.216H907.698V207.537H907.799V212.858H907.867V218.179H908.003V223.501H908.22V218.179H908.389V212.858H908.524V207.537H908.728V202.216H909.237V196.894H910.559V191.572H910.897V186.251H910.931V180.93H911.202V170.286H911.236V165.073H911.202V159.752H911.032V154.43H910.931V149.109H910.863V143.787H910.829V138.358H910.863V127.823H910.76V122.393H910.897V117.18H910.727V111.751H911.709V106.537H911.405V101.216H911.337V95.7861H912.422V90.4649H915.033V85.2513H914.626V79.9296H914.387V74.6084H914.251V63.8577H914.352V58.5364H914.421V47.8931H914.694V42.6799H914.592V37.2505H914.626V32.0366H914.251V26.6072H914.318V21.2859H916.152V26.6072H916.221V32.0366H915.846V37.2505H915.879V42.6799H915.778V47.8931H916.051V58.5364H916.118V63.8577H916.221V74.6084H916.085V79.9296H915.846V85.2513H915.439V90.4649H918.05V95.7861H919.134V101.216H919.068V106.537H918.762V111.751H919.744V117.18H919.575V122.393H919.71V127.823H919.609V138.358H919.643V143.787H919.609V149.109H919.541V154.43H919.44V159.752H919.27V165.073H919.236V170.286H919.27V180.93H919.541V186.251H919.575V191.572H919.914V196.894H921.236V202.216H921.743V207.537H921.947V212.858H922.083V218.179H922.252V223.501H922.368V218.179H922.502V212.858H922.604V207.537H923.385V202.216H923.452V196.894H925.01V191.68H924.976V186.251H925.18V180.93H925.282V175.608H925.383V170.395H925.349V165.073H925.315V159.752H925.18V154.43H925.111V149.109H925.01V143.787H924.875V133.037H925.01V127.823H924.875V122.393H925.044V117.072H925.553V111.751H925.789V106.537H925.688V101.216H924.672V95.7861H928.739V90.573H928.127V85.1436H928.841V79.9296H928.739V74.6084H928.433V63.9658H928.33V58.6437H928.296V53.2143H928.433V47.8931H928.638V42.5718H928.841V37.3583H928.467V32.0366H928.095V26.6072H928.638V21.2859H930.061V26.6072H930.606V32.0366H930.233V37.3583H929.857V42.5718H930.061V47.8931H930.267V53.2143H930.402V58.6437H930.368V63.9658H930.267V74.6084H929.959V79.9296H929.857V85.1436H930.572V90.573H929.959V95.7861H934.027V101.216H933.011V106.537H932.909V111.751H933.147V117.072H933.654V122.393H933.825V127.823H933.688V133.037H933.825V143.787H933.688V149.109H933.587V154.43H933.519V159.752H933.383V165.073H933.349V170.395H933.315V175.608H933.417V180.93H933.519V186.251H933.722V191.68H933.688V196.894H935.248V202.216H935.316V207.537H936.094V212.858H936.196V218.179H936.332V223.501H936.4V228.823H936.414V223.501H936.548V218.179H936.649V212.858H936.955V207.537H937.43V202.216H937.566V196.894H939.157V191.68H939.089V186.251H939.26V180.93H939.429V175.608H939.633V170.395H939.565V165.073H939.429V159.752H939.395V154.43H939.293V149.109H939.123V143.787H939.089V127.823H938.988V122.393H939.26V117.072H939.972V111.859H939.834V106.43H939.972V101.107H940.445V95.7861H942.58V90.573H942.445V85.1436H942.989V79.9296H942.785V74.6084H942.647V69.179H942.853V63.9658H942.478V58.6437H942.376V53.2143H942.546V47.8931H942.58V37.3583H942.478V32.0366H942.274V26.6072H944.651V32.0366H944.447V37.3583H944.346V47.8931H944.38V53.2143H944.549V58.6437H944.447V63.9658H944.073V69.179H944.278V74.6084H944.141V79.9296H943.937V85.1436H944.481V90.573H944.346V95.7861H946.481V101.107H946.955V106.43H947.089V111.859H946.955V117.072H947.666V122.393H947.938V127.823H947.835V143.787H947.801V149.109H947.632V154.43H947.531V159.752H947.497V165.073H947.361V170.395H947.293V175.608H947.497V180.93H947.666V186.251H947.835V191.68H947.768V196.894H949.361V202.216H949.495V207.537H949.97V212.858H950.275V218.179H950.378V223.501H950.661V218.179H950.764V212.858H951.272V207.537H951.442V202.216H951.848V196.894H952.255V191.572H953.271V186.251H953.44V180.93H953.542V175.608H953.712V170.395H953.678V165.073H953.508V154.43H953.407V149.109H953.238V143.787H953.203V127.715H953.238V122.393H953.712V117.072H954.152V111.859H954.05V106.537H953.712V101.107H956.388V95.7861H956.659V90.573H956.49V85.1436H957.102V79.9296H956.932V74.6084H956.727V69.179H957.035V63.9658H956.592V58.6437H956.49V53.2143H956.592V47.8931H956.693V37.3583H956.592V32.0366H955.779V26.6072H959.374V32.0366H958.561V37.3583H958.459V47.8931H958.561V53.2143H958.663V58.6437H958.561V63.9658H958.119V69.179H958.425V74.6084H958.22V79.9296H958.05V85.1436H958.663V90.573H958.493V95.7861H958.765V101.107H961.44V106.537H961.102V111.859H961.001V117.072H961.44V122.393H961.916V127.715H961.95V143.787H961.916V149.109H961.746V154.43H961.644V165.073H961.474V170.395H961.44V175.608H961.61V180.93H961.712V186.251H961.882V191.572H962.897V196.894H963.305V202.216H963.711V207.537H963.88V212.858H964.39V218.179H964.491V223.501H964.777V218.179H965.046V212.858H965.284V207.537H965.488V202.216H965.861V196.894H965.961V191.572H967.554V186.251H967.69V175.608H967.959V170.395H967.825V165.073H967.656V159.752H967.622V154.43H967.52V149.109H967.385V143.787H967.351V133.144H967.317V122.393H967.622V117.072H968.299V111.859H968.029V106.43H971.419V101.216H970.603V95.7861H970.772V90.573H970.536V85.1436H971.011V79.9296H970.978V74.6084H970.875V69.179H971.148V63.9658H970.671V53.3225H970.603V47.8931H970.705V37.2505H970.772V31.9284H972.606V37.2505H972.675V47.8931H972.776V53.3225H972.709V63.9658H972.232V69.179H972.505V74.6084H972.401V79.9296H972.367V85.1436H972.844V90.573H972.606V95.7861H972.776V101.216H971.96V106.43H975.352V111.859H975.08V117.072H975.757V122.393H976.063V133.144H976.029V143.787H975.995V149.109H975.859V154.43H975.757V159.752H975.724V165.073H975.556V170.395H975.418V175.608H975.69V186.251H975.825V191.572H977.419V196.894H977.52V202.216H977.892V207.537H978.096V212.858H978.333V218.179H978.604V223.501H978.923V218.179H979.262V212.858H979.465V207.537H979.669V202.216H979.939V196.894H980.278V191.572H981.599V186.251H981.668V180.93H981.736V175.608H981.938V170.286H982.006V159.752H981.736V154.43H981.599V143.787H981.498V138.466H981.464V133.144H981.43V122.501H981.125V117.072H982.582V111.751H982.786V106.43H985.193V101.216H985.092V95.8943H984.818V90.573H984.75V85.1436H985.193V79.9296H985.092V74.6084H984.818V69.179H985.362V63.9658H984.75V58.5364H984.886V53.3225H984.784V47.8931H984.954V42.5718H984.988V37.3583H984.548V31.9284H987.06V37.3583H986.618V42.5718H986.652V47.8931H986.822V53.3225H986.721V58.5364H986.856V63.9658H986.244V69.179H986.788V74.6084H986.515V79.9296H986.413V85.1436H986.856V90.573H986.788V95.8943H986.515V101.216H986.413V106.43H988.82V111.751H989.024V117.072H990.481V122.501H990.176V133.144H990.142V138.466H990.108V143.787H990.007V154.43H989.871V159.752H989.6V170.286H989.668V175.608H989.871V180.93H989.939V186.251H990.007V191.572H991.328V196.894H991.666V202.216H991.938V207.537H992.142V212.858H992.344V218.179H992.684V223.501H993.036V218.179H993.24V212.858H993.51V207.537H993.748V202.216H994.02V196.894H994.221V191.572H995.781V186.359H995.714V180.93H995.916V175.608H996.087V165.073H995.95V154.43H995.916V149.109H995.714V143.787H995.543V138.358H995.577V133.144H995.543V127.715H995.611V122.501H995.272V117.072H996.594V111.751H999.544V106.537H999.239V101.216H999.068V95.8943H998.864V90.4649H999.612V85.2513H999.239V79.9296H999.101V74.6084H999.034V69.179H999.205V63.9658H998.83V53.2143H999.068V42.5718H999.646V37.2505H1000.19V42.5718H1000.77V53.2143H1001V63.9658H1000.63V69.179H1000.8V74.6084H1000.73V79.9296H1000.59V85.2513H1000.22V90.4649H1000.97V95.8943H1000.77V101.216H1000.59V106.537H1000.29V111.751H1003.24V117.072H1004.56V122.501H1004.22V127.715H1004.29V133.144H1004.25V138.358H1004.29V143.787H1004.12V149.109H1003.92V154.43H1003.88V165.073H1003.75V175.608H1003.92V180.93H1004.12V186.359H1004.05V191.572H1005.61V196.894H1005.81V202.216H1006.09V207.537H1006.32V212.858H1006.59V218.179H1006.8V223.501H1006.97V228.823H1006.98V223.501H1007.15V218.179H1007.35V212.858H1007.63V207.537H1007.86V202.216H1008.13V196.894H1008.3V191.572H1009.79V186.251H1010V180.93H1010.03V175.608H1010.2V165.073H1010.06V154.43H1010.03V149.109H1009.83V143.787H1009.66V138.358H1009.69V133.144H1009.66V127.823H1009.56V122.393H1009.62V117.072H1010.94V111.751H1013.35V101.216H1013.18V95.8943H1013.05V90.4649H1013.32V85.1436H1013.35V79.9296H1013.21V74.6084H1013.11V69.179H1013.39V63.9658H1012.94V53.2143H1013.05V47.8931H1013.11V42.6799H1012.71V37.2505H1015.35V42.6799H1014.95V47.8931H1015.01V53.2143H1015.12V63.9658H1014.67V69.179H1014.95V74.6084H1014.85V79.9296H1014.71V85.1436H1014.74V90.4649H1015.01V95.8943H1014.88V101.216H1014.71V111.751H1017.11V117.072H1018.44V122.393H1018.5V127.823H1018.4V133.144H1018.37V138.358H1018.4V143.787H1018.23V149.109H1018.03V154.43H1018V165.073H1017.86V175.608H1018.03V180.93H1018.06V186.251H1018.27V191.572H1019.76V196.894H1019.93V202.216H1020.2V207.537H1020.44V212.858H1020.71V218.179H1020.91V223.501H1021.3V218.179H1021.43V212.858H1021.67V207.537H1021.98V202.216H1022.18V196.894H1022.52V191.572H1023.81V186.251H1024.14V180.93H1024.24V175.608H1024.45V170.395H1024.31V159.752H1024.18V154.43H1024.07V149.109H1024.01V143.787H1023.84V138.466H1023.81V127.715H1023.97V122.501H1023.81V117.072H1026.58V111.751H1027.64V106.537H1027.43V101.216H1027.23V95.8943H1027.16V90.4649H1027.77V85.2513H1027.5V79.9296H1027.29V69.2871H1027.23V63.9658H1027.06V53.3225H1026.99V47.8931H1027.06V42.5718H1029.23V47.8931H1029.3V53.3225H1029.23V63.9658H1029.06V69.2871H1028.99V79.9296H1028.79V85.2513H1028.52V90.4649H1029.13V95.8943H1029.06V101.216H1028.85V106.537H1028.65V111.751H1029.7V117.072H1032.48V122.501H1032.31V127.715H1032.48V138.466H1032.45V143.787H1032.28V149.109H1032.21V154.43H1032.11V159.752H1031.97V170.395H1031.84V175.608H1032.04V180.93H1032.14V186.251H1032.48V191.572H1033.77V196.894H1034.11V202.216H1034.31V207.537H1034.62V212.858H1034.85V218.179H1034.99V223.501H1035.41V218.179H1035.61V212.858H1035.78V207.537H1036.05V202.216H1036.26V196.894H1036.53V191.572H1037.38V186.251H1038.19V180.93H1038.26V175.608H1038.43V159.752H1038.36V154.43H1038.22V149.109H1038.12V143.787H1038.02V138.358H1038.19V133.144H1037.71V127.715H1037.78V122.393H1038.94V117.072H1041.92V111.859H1041.34V106.43H1041.54V101.216H1041.34V95.8943H1041.2V90.4649H1041.71V85.2513H1041.58V79.9296H1041.44V74.6084H1041.27V69.179H1041.34V63.9658H1041.24V58.6437H1041.1V48.0012H1040.87V42.5718H1043.65V48.0012H1043.41V58.6437H1043.28V63.9658H1043.18V69.179H1043.24V74.6084H1043.07V79.9296H1042.93V85.2513H1042.8V90.4649H1043.31V95.8943H1043.18V101.216H1042.97V106.43H1043.18V111.859H1042.59V117.072H1045.58V122.393H1046.73V127.715H1046.8V133.144H1046.33V138.358H1046.49V143.787H1046.39V149.109H1046.29V154.43H1046.16V159.752H1046.09V175.608H1046.26V180.93H1046.33V186.251H1047.14V191.572H1047.99V196.894H1048.26V202.216H1048.46V207.537H1048.73V212.858H1048.9V218.179H1049.1V223.501H1049.52V218.179H1049.83V207.537H1050.13V202.216H1050.41V196.894H1050.64V186.251H1052.4V180.93H1052.47V175.608H1052.64V170.395H1052.57V165.073H1052.4V159.644H1052.51V154.43H1052.34V149.109H1052.23V143.787H1052.17V138.466H1052.06V133.144H1052V127.823H1051.83V122.393H1053.22V117.072H1055.69V111.751H1055.83V106.537H1055.66V101.216H1055.45V95.8943H1055.32V90.4649H1055.69V85.1436H1055.73V79.9296H1055.69V74.6084H1055.49V69.2871H1055.35V63.8577H1055.55V58.6437H1055.32V53.2143H1055.66V47.8931H1057.08V53.2143H1057.42V58.6437H1057.18V63.8577H1057.39V69.2871H1057.25V74.6084H1057.05V79.9296H1057.01V85.1436H1057.05V90.4649H1057.42V95.8943H1057.29V101.216H1057.08V106.537H1056.91V111.751H1057.05V117.072H1059.52V122.393H1060.91V127.823H1060.74V133.144H1060.68V138.466H1060.57V143.787H1060.51V149.109H1060.4V154.43H1060.24V159.644H1060.34V165.073H1060.17V170.395H1060.1V175.608H1060.27V180.93H1060.34V186.251H1062.1V196.894H1062.34V202.216H1062.61V207.537H1062.91V218.179H1063.22V223.501H1063.42V228.823H1063.43V223.501H1063.67V218.179H1063.91V212.858H1064.01V207.537H1064.35V202.216H1064.52V196.894H1064.65V191.572H1065.03V186.251H1066.75V181.037H1066.59V175.608H1066.75V170.395H1066.69V164.965H1066.92V159.752H1066.62V154.43H1066.45V149.109H1066.35V143.787H1066.28V138.466H1066.18V133.144H1066.08V127.715H1066.28V122.393H1070.01V117.18H1069.67V111.751H1069.81V106.537H1069.77V101.216H1069.57V95.7861H1070.01V90.573H1069.87V85.2513H1069.84V79.9296H1069.81V74.6084H1069.6V69.2871H1069.47V63.8577H1069.97V58.6437H1069.47V53.2143H1069.6V47.8931H1071.37V53.2143H1071.5V58.6437H1070.99V63.8577H1071.5V69.2871H1071.37V74.6084H1071.16V79.9296H1071.13V85.2513H1071.09V90.573H1070.96V95.7861H1071.4V101.216H1071.2V106.537H1071.16V111.751H1071.3V117.18H1070.96V122.393H1074.69V127.715H1074.89V133.144H1074.79V138.466H1074.69V143.787H1074.62V149.109H1074.52V154.43H1074.35V159.752H1074.04V164.965H1074.28V170.395H1074.21V175.608H1074.38V181.037H1074.21V186.251H1075.94V191.572H1076.31V196.894H1076.45V202.216H1076.62V207.537H1076.96V212.858H1077.06V218.179H1077.3V223.501H1077.53V228.823H1077.55V223.501H1077.75V218.179H1077.89V212.858H1078.09V207.537H1078.29V202.216H1078.7V196.894H1078.9V191.572H1079.07V186.251H1080.43V180.93H1080.7V175.608H1080.9V170.395H1080.8V164.965H1080.87V159.752H1080.73V154.43H1080.56V149.109H1080.46V143.787H1080.29V138.358H1080.56V133.144H1080.22V127.715H1080.36V122.393H1084.29V117.18H1083.89V111.751H1083.95V106.537H1083.78V101.216H1083.71V95.7861H1084.33V90.573H1083.95V85.2513H1083.78V79.9296H1083.68V74.5002H1083.71V69.2871H1083.68V63.9658H1083.54V53.2143H1083.68V47.8931H1084.22V42.5718H1084.97V47.8931H1085.51V53.2143H1085.65V63.9658H1085.51V69.2871H1085.48V74.5002H1085.51V79.9296H1085.41V85.2513H1085.24V90.573H1084.87V95.7861H1085.48V101.216H1085.41V106.537H1085.24V111.751H1085.31V117.18H1084.9V122.393H1088.83V127.715H1088.97V133.144H1088.63V138.358H1088.9V143.787H1088.73V149.109H1088.63V154.43H1088.46V159.752H1088.33V164.965H1088.39V170.395H1088.29V175.608H1088.49V180.93H1088.77V186.251H1090.12V191.572H1090.29V196.894H1090.5V202.216H1090.9V207.537H1091.1V212.858H1091.31V218.179H1091.44V223.501H1091.8V218.179H1092.07V212.858H1092.3V207.537H1092.37V202.216H1092.71V196.894H1092.98V191.572H1093.32V186.251H1094.47V180.93H1094.85V175.608H1094.98V159.752H1094.85V154.43H1094.68V149.109H1094.57V143.787H1094.41V138.466H1094.37V133.144H1094.34V127.823H1094.07V122.393H1098.68V117.18H1098.07V106.537H1097.83V101.107H1098.07V95.7861H1098.34V90.573H1098.07V85.2513H1098V79.9296H1097.86V74.6084H1097.79V63.9658H1097.66V53.3225H1097.63V42.5718H1099.8V53.3225H1099.76V63.9658H1099.63V74.6084H1099.56V79.9296H1099.42V85.2513H1099.35V90.573H1099.08V95.7861H1099.35V101.107H1099.59V106.537H1099.35V117.18H1098.74V122.393H1103.36V127.823H1103.08V133.144H1103.05V138.466H1103.02V143.787H1102.85V149.109H1102.74V154.43H1102.58V159.752H1102.44V175.608H1102.58V180.93H1102.95V186.251H1104.1V191.572H1104.44V196.894H1104.71V202.216H1105.05V207.537H1105.12V212.858H1105.35V218.179H1105.62V223.501H1106.01V218.179H1106.18V212.858H1106.35V207.537H1106.49V202.216H1106.86V196.894H1107.03V191.572H1107.13V186.251H1108.59V180.93H1108.99V175.608H1109.2V170.395H1109.1V159.752H1108.99V154.43H1108.82V149.109H1108.76V143.787H1108.59V138.466H1108.48V127.823H1107.5V122.393H1118.15V127.823H1117.16V138.466H1117.06V143.787H1116.89V149.109H1116.82V154.43H1116.66V159.752H1116.55V170.395H1116.45V175.608H1116.66V180.93H1117.06V186.251H1118.52V191.572H1118.62V196.894H1118.79V202.216H1119.16V207.537H1119.3V212.858H1119.47V218.179H1119.64V223.501H1119.87V228.823H1119.89V223.501H1120.09V218.179H1120.29V212.858H1120.46V207.537H1120.6V202.216H1120.97V196.894H1121.21V191.572H1121.45V186.251H1122.26V180.93H1123.11V175.608H1123.28V170.395H1123.21V154.43H1122.97V149.109H1122.87V143.787H1122.7V133.144H1122.43V127.823H1121.55V122.393H1126.84V117.18H1126.23V111.859H1126.12V106.43H1126.43V101.216H1126.26V95.7861H1126.6V90.573H1126.29V85.2513H1126.12V74.5002H1126.26V69.2871H1125.95V63.8577H1126.26V58.6437H1125.78V53.2143H1125.88V47.8931H1125.95V42.5718H1126.23V37.2505H1126.77V31.9284H1127.11V37.2505H1127.65V42.5718H1127.92V47.8931H1127.99V53.2143H1128.09V58.6437H1127.62V63.8577H1127.92V69.2871H1127.62V74.5002H1127.75V85.2513H1127.58V90.573H1127.28V95.7861H1127.62V101.216H1127.45V106.43H1127.75V111.859H1127.65V117.18H1127.04V122.393H1132.33V127.823H1131.45V133.144H1131.17V143.787H1131.01V149.109H1130.9V154.43H1130.67V170.395H1130.6V175.608H1130.77V180.93H1131.62V186.251H1132.43V191.572H1132.67V196.894H1132.9V202.216H1133.28V207.537H1133.41V212.858H1133.58V218.179H1133.78V223.501H1133.99V228.823H1134.14V218.179H1134.34V212.858H1134.58V207.537H1134.68V202.216H1135.02V196.894H1135.22V191.572H1135.56V186.251H1136.81V180.93H1137.22V175.608H1137.39V170.395H1137.25V159.752H1137.15V154.43H1137.05V149.109H1136.92V143.787H1136.85V138.466H1136.71V133.144H1136.68V127.715H1136.71V122.393H1145.39V127.715H1145.42V133.144H1145.39V138.466H1145.25V143.787H1145.19V149.109H1145.05V154.43H1144.95V159.752H1144.85V170.395H1144.71V175.608H1144.88V180.93H1145.29V186.251H1146.54V191.572H1146.88V196.894H1147.08V202.216H1147.42V207.537H1147.53V212.858H1147.76V218.179H1147.97V228.823H1148.25V223.501H1148.32V218.179H1148.59V212.858H1148.69V207.537H1148.86V202.216H1149.13V196.894H1149.34V191.572H1149.64V186.251H1151.27V180.93H1151.33V175.608H1151.5V170.395H1151.44V165.073H1151.33V154.43H1151.27V149.109H1151.1V143.787H1150.99V138.466H1150.96V133.144H1150.76V127.823H1150.66V122.393H1159.67V127.823H1159.57V133.144H1159.37V138.466H1159.33V143.787H1159.23V149.109H1159.06V154.43H1158.99V165.073H1158.89V170.395H1158.83V175.608H1158.99V180.93H1159.06V186.251H1160.69V191.572H1160.99V196.894H1161.2V202.216H1161.47V207.537H1161.64V212.858H1161.74V218.179H1162.01V223.501H1162.08V228.823H1162.13V223.501H1162.43V218.179H1162.64V212.858H1162.74V207.537H1163.04V202.216H1163.24V196.894H1163.48V191.572H1163.72V186.251H1165.28V180.93H1165.55V175.608H1165.62V170.395H1165.55V165.073H1165.45V154.43H1165.38V149.109H1165.21V143.787H1165.04V138.466H1164.97V133.144H1164.87V127.715H1165.07V122.393H1168.67V117.18H1168.57V111.751H1168.84V106.43H1168.9V101.216H1168.77V95.8943H1168.6V85.2513H1168.46V79.8215H1168.6V74.5002H1168.74V69.2871H1168.26V63.8577H1168.29V58.6437H1168.26V53.3225H1168.09V47.8931H1168.29V42.6799H1168.19V31.9284H1170.36V42.6799H1170.26V47.8931H1170.47V53.3225H1170.3V58.6437H1170.26V63.8577H1170.3V69.2871H1169.82V74.5002H1169.96V79.8215H1170.09V85.2513H1169.96V95.8943H1169.79V101.216H1169.65V106.43H1169.72V111.751H1169.99V117.18H1169.89V122.393H1173.48V127.715H1173.68V133.144H1173.58V138.466H1173.52V143.787H1173.35V149.109H1173.18V154.43H1173.11V165.073H1173.01V170.395H1172.94V175.608H1173.01V180.93H1173.28V186.251H1174.84V191.572H1175.07V196.894H1175.31V202.216H1175.51V207.537H1175.82V212.858H1175.92V218.179H1176.12V223.501H1176.54V218.179H1176.88V207.537H1177.16V202.216H1177.36V196.894H1177.59V191.572H1177.87V186.251H1179.7V181.037H1179.66V175.608H1179.73V170.395H1179.66V165.073H1179.56V154.43H1179.49V149.109H1179.32V143.787H1179.15V138.466H1179.09V133.144H1178.98V127.715H1180.31V122.393H1183.22V117.18H1182.71V111.751H1183.12V106.537H1182.88V101.216H1182.78V95.8943H1182.71V85.2513H1182.58V79.8215H1182.71V74.6084H1182.54V69.2871H1182.24V63.8577H1182.34V58.5364H1182.54V53.3225H1182.2V47.8931H1182.41V37.3583H1182.14V31.9284H1184.65V37.3583H1184.38V47.8931H1184.58V53.3225H1184.24V58.5364H1184.44V63.8577H1184.55V69.2871H1184.24V74.6084H1184.07V79.8215H1184.21V85.2513H1184.07V95.8943H1184V101.216H1183.9V106.537H1183.66V111.751H1184.07V117.18H1183.56V122.393H1186.48V127.715H1187.8V133.144H1187.7V138.466H1187.63V143.787H1187.46V149.109H1187.29V154.43H1187.22V165.073H1187.12V170.395H1187.05V175.608H1187.12V181.037H1187.09V186.251H1188.92V191.572H1189.19V196.894H1189.43V202.216H1189.63V207.537H1189.9V218.179H1190.24V223.501H1190.51V228.823H1190.52V223.501H1190.69V218.179H1190.79V212.858H1190.93V207.537H1191.34V202.216H1191.37V196.894H1191.64V191.572H1191.78V186.251H1193.84V181.037H1193.71V175.608H1193.95V170.395H1193.78V165.073H1193.67V159.752H1193.61V154.43H1193.54V149.109H1193.44V143.787H1193.3V138.466H1193.13V133.144H1193.1V127.715H1196.83V122.501H1196.59V117.072H1197V111.751H1197.06V106.537H1196.86V90.573H1196.83V85.2513H1196.79V79.8215H1197.06V74.6084H1196.66V69.2871H1196.59V63.9658H1196.52V58.6437H1196.45V48.0012H1196.35V42.5718H1196.42V37.2505H1196.52V31.9284H1198.49V37.2505H1198.59V42.5718H1198.66V48.0012H1198.56V58.6437H1198.49V63.9658H1198.42V69.2871H1198.35V74.6084H1197.94V79.8215H1198.22V85.2513H1198.18V90.573H1198.15V106.537H1197.94V111.751H1198.01V117.072H1198.42V122.501H1198.18V127.715H1201.91V133.144H1201.88V138.466H1201.71V143.787H1201.57V149.109H1201.47V154.43H1201.4V159.752H1201.34V165.073H1201.23V170.395H1201.06V175.608H1201.3V181.037H1201.17V186.251H1203.23V191.572H1203.37V196.894H1203.64V202.216H1203.67V207.537H1204.08V212.858H1204.22V218.179H1204.32V223.501H1204.49V228.823H1204.64V223.501H1204.74V218.179H1204.97V212.858H1205.11V207.537H1205.28V202.216H1205.59V196.894H1205.65V191.572H1205.89V186.251H1208.06V181.037H1207.79V175.608H1208.09V170.395H1207.99V165.073H1207.79V159.752H1207.72V154.43H1207.65V149.109H1207.55V143.787H1207.38V138.466H1207.11V127.715H1211.11V122.501H1210.8V117.072H1211.11V106.537H1211.08V101.216H1211.01V95.8943H1210.97V90.573H1210.94V85.2513H1210.91V79.8215H1211.01V74.6084H1210.97V69.2871H1210.63V58.6437H1210.57V37.3583H1210.43V31.9284H1212.81V37.3583H1212.67V58.6437H1212.6V69.2871H1212.26V74.6084H1212.23V79.8215H1212.33V85.2513H1212.3V90.573H1212.26V95.8943H1212.23V101.216H1212.16V106.537H1212.13V117.072H1212.43V122.501H1212.13V127.715H1216.13V138.466H1215.86V143.787H1215.69V149.109H1215.58V154.43H1215.52V159.752H1215.45V165.073H1215.25V170.395H1215.14V175.608H1215.45V181.037H1215.18V186.251H1217.35V191.572H1217.58V196.894H1217.65V202.216H1217.96V207.537H1218.13V212.858H1218.26V218.179H1218.5V223.501H1218.6V228.823H1218.61V223.501H1218.82V218.179H1218.99V212.858H1219.09V207.537H1219.36V202.216H1219.6V196.894H1219.9V191.68H1219.87V186.251H1221.93V175.608H1222.21V170.395H1222.1V165.073H1222V159.752H1221.83V154.43H1221.77V149.109H1221.56V143.787H1221.43V138.466H1221.22V133.037H1225.53V127.823H1224.92V122.501H1224.75V117.072H1225.29V111.859H1225.26V106.537H1225.19V101.216H1225.12V95.8943H1225.02V85.2513H1224.92V79.9296H1224.85V74.5002H1225.19V69.2871H1224.81V63.9658H1224.71V58.5364H1224.81V53.3225H1224.68V42.5718H1224.71V31.9284H1226.75V42.5718H1226.78V53.3225H1226.65V58.5364H1226.75V63.9658H1226.65V69.2871H1226.27V74.5002H1226.61V79.9296H1226.55V85.2513H1226.44V95.8943H1226.34V101.216H1226.27V106.537H1226.21V111.859H1226.17V117.072H1226.72V122.501H1226.55V127.823H1225.93V133.037H1230.24V138.466H1230.04V143.787H1229.9V149.109H1229.7V154.43H1229.63V159.752H1229.46V165.073H1229.36V170.395H1229.26V175.608H1229.53V186.251H1231.59V191.68H1231.56V196.894H1231.87V202.216H1232.1V207.537H1232.37V212.858H1232.48V218.179H1232.65V223.501H1232.85V228.823H1232.86V223.501H1232.93V218.179H1233.03V212.858H1233.1V207.537H1233.61V202.216H1233.71V196.894H1233.98V191.572H1234.69V186.251H1235.85V180.93H1236.05V175.608H1236.32V170.395H1236.15V165.073H1235.98V159.752H1235.95V149.109H1235.68V143.787H1235.51V138.358H1237.3V133.037H1239.3V127.823H1238.86V122.393H1239.03V117.072H1239.4V111.859H1239.37V106.537H1239.3V101.216H1239.24V95.8943H1239.13V85.2513H1239.03V79.9296H1239V74.5002H1239.13V69.2871H1238.96V63.9658H1238.83V58.5364H1238.93V53.3225H1238.79V42.5718H1238.83V31.9284H1240.86V42.5718H1240.9V53.3225H1240.76V58.5364H1240.86V63.9658H1240.73V69.2871H1240.56V74.5002H1240.69V79.9296H1240.66V85.2513H1240.56V95.8943H1240.45V101.216H1240.39V106.537H1240.32V111.859H1240.29V117.072H1240.66V122.393H1240.83V127.823H1240.39V133.037H1242.39V138.358H1244.18V143.787H1244.02V149.109H1243.74V159.752H1243.71V165.073H1243.54V170.395H1243.37V175.608H1243.64V180.93H1243.84V186.251H1245V191.572H1245.71V196.894H1245.98V202.216H1246.08V207.537H1246.59V212.858H1246.66V218.179H1246.76V223.501H1246.83V228.823H1246.98V223.501H1247.08V218.179H1247.15V212.858H1247.28V207.537H1247.45V202.216H1247.89V196.894H1247.99V191.572H1248.91V186.251H1249.96V180.93H1250.23V175.608H1250.3V170.395H1250.23V165.073H1250.13V159.752H1249.99V154.43H1249.89V149.109H1249.79V143.787H1249.62V138.358H1253.48V133.144H1253.08V127.823H1252.94V122.393H1253.14V117.072H1253.45V111.751H1253.52V106.537H1253.42V101.216H1253.35V95.8943H1253.31V90.573H1253.28V85.2513H1253.14V79.9296H1253.11V74.6084H1253.08V69.179H1253.14V63.9658H1252.97V58.6437H1252.91V42.6799H1252.87V37.2505H1252.97V31.9284H1254.94V37.2505H1255.04V42.6799H1255.01V58.6437H1254.94V63.9658H1254.77V69.179H1254.84V74.6084H1254.81V79.9296H1254.77V85.2513H1254.64V90.573H1254.6V95.8943H1254.57V101.216H1254.5V106.537H1254.4V111.751H1254.47V117.072H1254.77V122.393H1254.98V127.823H1254.84V133.144H1254.43V138.358H1258.3V143.787H1258.13V149.109H1258.03V154.43H1257.92V159.752H1257.79V165.073H1257.69V170.395H1257.62V175.608H1257.69V180.93H1257.96V186.251H1259.01V191.572H1259.92V196.894H1260.03V202.216H1260.47V207.537H1260.64V212.858H1260.77V218.179H1260.84V223.501H1260.94V228.823H1261.06V218.179H1261.53V212.966H1261.43V207.537H1261.73V202.216H1261.87V196.894H1262.21V191.572H1262.99V186.251H1263.94V180.93H1264.24V175.608H1264.41V170.395H1264.34V165.073H1264.24V159.752H1264.07V154.43H1264V149H1264.04V143.679H1265.19V138.358H1267.26V133.144H1266.88V127.715H1267.02V122.393H1267.36V117.18H1267.26V111.751H1267.6V106.537H1267.53V101.216H1267.46V95.8943H1267.43V90.573H1267.39V79.9296H1267.22V74.6084H1267.16V69.179H1267.39V63.9658H1267.09V58.6437H1267.02V53.3225H1266.92V47.8931H1266.99V42.5718H1267.02V37.3583H1266.99V31.9284H1269.16V37.3583H1269.12V42.5718H1269.16V47.8931H1269.23V53.3225H1269.12V58.6437H1269.06V63.9658H1268.75V69.179H1268.99V74.6084H1268.92V79.9296H1268.75V90.573H1268.72V95.8943H1268.68V101.216H1268.61V106.537H1268.55V111.751H1268.89V117.18H1268.78V122.393H1269.12V127.715H1269.26V133.144H1268.89V138.358H1270.95V143.679H1272.11V149H1272.14V154.43H1272.07V159.752H1271.9V165.073H1271.8V170.395H1271.73V175.608H1271.9V180.93H1272.21V186.251H1273.16V191.572H1273.94V196.894H1274.27V202.216H1274.41V207.537H1274.72V212.966H1274.61V218.179H1275.09V228.823H1275.44V223.609H1275.27V218.288H1275.2V212.858H1275.51V207.537H1275.64V202.216H1275.68V196.894H1276.15V191.572H1276.69V186.251H1278.19V180.93H1278.35V175.608H1278.49V170.395H1278.46V165.073H1278.35V159.752H1278.19V154.43H1278.12V149H1278.15V143.679H1281.3V138.466H1281.2V133.144H1281.13V127.823H1281.1V122.393H1281.34V117.18H1281.3V111.751H1281.68V106.537H1281.58V101.216H1281.51V95.7861H1281.54V90.573H1281.51V85.2513H1281.47V74.6084H1281.34V69.2871H1281.3V58.6437H1281.2V48.0012H1281.17V42.6799H1281.1V37.3583H1280.96V31.9284H1283.41V37.3583H1283.27V42.6799H1283.2V48.0012H1283.17V58.6437H1283.07V69.2871H1283.03V74.6084H1282.9V85.2513H1282.86V90.573H1282.83V95.7861H1282.86V101.216H1282.8V106.537H1282.69V111.751H1283.07V117.18H1283.03V122.393H1283.27V127.823H1283.24V133.144H1283.17V138.466H1283.07V143.679H1286.22V149H1286.25V154.43H1286.19V159.752H1286.02V165.073H1285.91V170.395H1285.88V175.608H1286.02V180.93H1286.19V186.251H1287.68V191.572H1288.22V196.894H1288.69V202.216H1288.73V207.537H1288.86V212.858H1289.17V218.288H1289.1V223.609H1288.93V228.823H1289.25V223.501H1289.42V218.179H1289.45V212.858H1289.62V207.537H1289.76V202.323H1289.66V196.894H1290.4V191.572H1290.94V186.251H1291.96V180.93H1292.47V175.608H1292.64V170.395H1292.57V165.073H1292.47V159.752H1292.3V154.43H1292.27V149H1294.97V143.679H1295.45V138.466H1295.31V133.144H1295.25V127.823H1295.21V122.393H1295.45V117.18H1295.42V111.751H1295.79V106.537H1295.69V101.216H1295.62V95.7861H1295.66V90.573H1295.62V85.2513H1295.59V74.6084H1295.45V69.2871H1295.42V58.6437H1295.31V48.0012H1295.25V42.5718H1295.31V37.3583H1295.14V31.9284H1297.45V37.3583H1297.28V42.5718H1297.35V48.0012H1297.28V58.6437H1297.18V69.2871H1297.15V74.6084H1297.01V85.2513H1296.98V90.573H1296.94V95.7861H1296.98V101.216H1296.91V106.537H1296.81V111.751H1297.18V117.18H1297.15V122.393H1297.39V127.823H1297.35V133.144H1297.28V138.466H1297.15V143.679H1297.62V149H1300.33V154.43H1300.3V159.752H1300.13V165.073H1300.03V170.395H1299.96V175.608H1300.13V180.93H1300.64V186.251H1301.65V191.572H1302.2V196.894H1302.94V202.323H1302.84V207.537H1302.98V212.858H1303.14V218.179H1303.18V223.501H1303.35V228.823H1303.5V218.179H1303.67V207.537H1303.74V202.216H1303.9V196.894H1304.51V186.251H1306.04V180.93H1306.51V175.608H1306.78V170.395H1306.68V165.073H1306.51V159.752H1306.41V154.43H1306.38V149H1309.22V143.787H1308.92V138.358H1309.36V133.144H1309.19V122.393H1309.5V117.18H1309.43V111.751H1309.9V106.537H1309.8V101.107H1309.87V95.8943H1309.7V74.6084H1309.56V69.2871H1309.53V58.6437H1309.43V48.0012H1309.36V42.6799H1309.26V37.2505H1309.7V31.9284H1311.12V37.2505H1311.57V42.6799H1311.46V48.0012H1311.4V58.6437H1311.3V69.2871H1311.26V74.6084H1311.12V95.8943H1310.95V101.107H1311.02V106.537H1310.92V111.751H1311.4V117.18H1311.33V122.393H1311.64V133.144H1311.46V138.358H1311.9V143.787H1311.6V149H1314.45V154.43H1314.41V159.752H1314.31V165.073H1314.14V170.395H1314.04V175.608H1314.31V180.93H1314.79V186.251H1316.31V196.894H1316.92V202.216H1317.09V207.537H1317.16V218.179H1317.33V228.823H1317.54V223.501H1317.64V212.858H1317.82V207.537H1317.88V196.894H1318.46V191.572H1318.63V186.251H1320.29V180.93H1320.63V175.608H1320.9V170.395H1320.73V165.073H1320.66V154.43H1320.39V149H1323.2V138.358H1323.47V133.144H1323.3V127.715H1323.34V122.393H1323.47V117.072H1323.54V111.751H1323.85V106.43H1323.98V101.216H1323.92V95.8943H1323.88V85.2513H1323.81V74.6084H1323.64V58.6437H1323.54V53.3225H1323.44V48.0012H1323.37V42.5718H1323.68V37.3583H1323.44V31.9284H1325.61V37.3583H1325.38V42.5718H1325.68V48.0012H1325.61V53.3225H1325.51V58.6437H1325.41V74.6084H1325.24V85.2513H1325.17V95.8943H1325.14V101.216H1325.07V106.43H1325.2V111.751H1325.51V117.072H1325.58V122.393H1325.71V127.715H1325.75V133.144H1325.58V138.358H1325.85V149H1328.66V154.43H1328.39V165.073H1328.32V170.395H1328.15V175.608H1328.42V180.93H1328.76V186.251H1330.42V191.572H1330.59V196.894H1331.17V207.537H1331.24V212.858H1331.41V223.501H1331.51V228.823H1331.76V223.501H1331.79V218.179H1331.89V212.858H1331.96V207.537H1332.1V202.216H1332.17V196.894H1332.74V191.68H1332.64V186.251H1333.96V180.93H1334.64V175.608H1334.94V170.395H1334.84V165.073H1334.81V159.752H1334.64V154.43H1334.33V149H1337.32V143.787H1337.04V138.358H1337.25V133.037H1337.48V127.823H1337.38V117.072H1337.65V111.751H1337.93V106.43H1338.1V101.216H1338.03V90.4649H1338.13V85.2513H1337.96V79.8215H1338V74.6084H1337.82V69.2871H1337.79V63.9658H1337.76V58.6437H1337.65V53.2143H1337.76V48.0012H1337.62V42.5718H1338V37.3583H1337.72V31.9284H1339.56V37.3583H1339.28V42.5718H1339.66V48.0012H1339.52V53.2143H1339.62V58.6437H1339.52V63.9658H1339.49V69.2871H1339.45V74.6084H1339.28V79.8215H1339.32V85.2513H1339.15V90.4649H1339.25V101.216H1339.18V106.43H1339.35V111.751H1339.62V117.072H1339.89V127.823H1339.79V133.037H1340.03V138.358H1340.23V143.787H1339.96V149H1342.95V154.43H1342.64V159.752H1342.47V165.073H1342.44V170.395H1342.33V175.608H1342.64V180.93H1343.32V186.251H1344.64V191.68H1344.54V196.894H1345.11V202.216H1345.18V207.537H1345.32V212.858H1345.38V218.179H1345.49V223.501H1345.52V228.823H1345.91V218.179H1346.01V212.858H1346.08V207.537H1346.21V202.216H1346.45V196.894H1346.79V191.572H1347.09V186.251H1347.19V180.93H1348.79V175.608H1349.09V170.395H1348.95V159.752H1348.62V154.323H1350.45V149H1351.26V143.787H1351.19V138.358H1351.7V133.144H1351.53V127.823H1351.5V117.072H1351.77V106.43H1352.21V101.216H1352.14V95.8943H1352.07V90.573H1352.04V85.1436H1352.11V79.8215H1352.14V74.6084H1351.94V69.2871H1351.9V63.9658H1351.87V58.6437H1351.77V53.2143H1351.84V47.8931H1352.04V42.5718H1352.11V37.3583H1351.84V32.0366H1350.85V26.6072H1354.65V32.0366H1353.67V37.3583H1353.4V42.5718H1353.46V47.8931H1353.67V53.2143H1353.74V58.6437H1353.64V63.9658H1353.6V69.2871H1353.57V74.6084H1353.36V79.8215H1353.4V85.1436H1353.46V90.573H1353.43V95.8943H1353.36V101.216H1353.3V106.43H1353.74V117.072H1354.01V127.823H1353.97V133.144H1353.81V138.358H1354.31V143.787H1354.25V149H1355.06V154.323H1356.89V159.752H1356.55V170.395H1356.41V175.608H1356.72V180.93H1358.31V186.251H1358.41V191.572H1358.72V196.894H1359.06V202.216H1359.29V207.537H1359.43V212.858H1359.5V218.179H1359.6V228.823H1359.99V223.501H1360.02V218.179H1360.05V212.858H1360.19V207.537H1360.32V202.216H1360.9V191.68H1360.8V186.251H1361.88V180.93H1362.66V175.608H1363.14V170.395H1363.07V165.073H1363.03V159.752H1362.56V154.323H1365.54V149.109H1365.37V138.358H1365.68V133.144H1365.64V127.823H1365.54V117.072H1365.85V111.751H1365.98V106.43H1366.26V95.8943H1366.22V90.4649H1366.26V85.2513H1366.16V74.6084H1366.05V69.2871H1366.02V58.6437H1365.98V47.8931H1366.05V42.6799H1365.85V37.2505H1365.88V32.0366H1365.54V26.6072H1368.19V32.0366H1367.85V37.2505H1367.89V42.6799H1367.68V47.8931H1367.75V58.6437H1367.71V69.2871H1367.68V74.6084H1367.58V85.2513H1367.48V90.4649H1367.51V95.8943H1367.48V106.43H1367.75V111.751H1367.89V117.072H1368.19V127.823H1368.09V133.144H1368.05V138.358H1368.36V149.109H1368.19V154.323H1371.17V159.752H1370.7V165.073H1370.66V170.395H1370.59V175.608H1371.07V180.93H1371.85V186.251H1372.93V191.68H1372.83V202.216H1373.41V207.537H1373.54V212.858H1373.68V218.179H1373.71V223.501H1373.75V228.823H1374V223.501H1374.13V218.179H1374.17V212.858H1374.3V207.537H1374.4V202.216H1375.01V196.894H1375.18V191.68H1375.15V186.359H1375.01V180.93H1376.64V175.608H1377.18V170.395H1377.15V159.644H1377.93V154.323H1379.59V149.109H1379.45V138.358H1379.76V133.144H1379.66V117.072H1380.13V111.751H1380.37V90.573H1380.3V85.1436H1380.34V79.9296H1380.3V74.6084H1380.16V69.2871H1380.13V63.9658H1380.1V53.3225H1380.06V48.0012H1379.96V42.6799H1379.89V37.2505H1380V32.0366H1379.59V26.6072H1382.37V32.0366H1381.96V37.2505H1382.06V42.6799H1382V48.0012H1381.9V53.3225H1381.86V63.9658H1381.83V69.2871H1381.8V74.6084H1381.66V79.9296H1381.62V85.1436H1381.66V90.573H1381.59V111.751H1381.83V117.072H1382.3V133.144H1382.2V138.358H1382.51V149.109H1382.37V154.323H1384.03V159.644H1384.81V170.395H1384.78V175.608H1385.32V180.93H1386.94V186.359H1386.81V191.68H1386.77V196.894H1386.94V202.216H1387.56V207.537H1387.66V212.858H1387.79V218.179H1387.83V223.501H1387.96V228.823H1388.03V234.144H1388.04V228.823H1388.18V223.501H1388.25V218.179H1388.28V212.858H1388.45V207.537H1388.52V202.216H1389.26V191.68H1389.13V180.93H1390.75V175.608H1391.23V170.286H1391.26V164.965H1391.43V159.644H1392.18V154.323H1393.26V149H1393.57V138.358H1393.87V127.823H1393.77V122.501H1393.7V117.072H1394.28V111.751H1394.42V106.43H1394.48V95.8943H1394.45V79.9296H1394.42V74.6084H1394.28V69.2871H1394.24V63.9658H1394.21V48.0012H1394.11V42.6799H1394.04V37.3583H1394.01V31.9284H1396.18V37.3583H1396.14V42.6799H1396.08V48.0012H1395.98V63.9658H1395.94V69.2871H1395.91V74.6084H1395.77V79.9296H1395.74V95.8943H1395.7V106.43H1395.77V111.751H1395.91V117.072H1396.48V122.501H1396.42V127.823H1396.31V138.358H1396.62V149H1396.93V154.323H1398.01V159.644H1398.75V164.965H1398.92V170.286H1398.96V175.608H1399.43V180.93H1401.06V191.68H1400.92V202.216H1401.67V207.537H1401.74V212.858H1401.9V218.179H1401.94V223.501H1402.01V228.823H1402.14V234.144H1402.16V228.823H1402.29V223.501H1402.33V218.179H1402.5V212.858H1402.53V207.537H1402.67V202.216H1403.24V196.894H1403.38V186.359H1403.31V180.93H1404.83V175.608H1405.21V170.286H1405.41V164.965H1406.53V159.752H1406.12V154.323H1406.15V149H1407.68V143.679H1407.71V138.358H1408.15V133.144H1408.02V127.823H1407.88V122.501H1407.85V117.072H1408.22V111.751H1408.53V106.43H1408.6V95.8943H1408.56V79.9296H1408.53V74.6084H1408.39V69.2871H1408.36V63.9658H1408.32V48.0012H1408.22V42.6799H1408.12V37.2505H1408.19V31.9284H1410.23V37.2505H1410.29V42.6799H1410.19V48.0012H1410.09V63.9658H1410.06V69.2871H1410.02V74.6084H1409.88V79.9296H1409.85V95.8943H1409.82V106.43H1409.88V111.751H1410.19V117.072H1410.56V122.501H1410.53V127.823H1410.39V133.144H1410.26V138.358H1410.7V143.679H1410.73V149H1412.26V154.323H1412.29V159.752H1411.88V164.965H1413V170.286H1413.21V175.608H1413.58V180.93H1415.1V186.359H1415.04V196.894H1415.17V202.216H1415.75V207.537H1415.88V212.858H1415.92V218.179H1416.09V223.501H1416.12V228.823H1416.26V234.144H1416.27V228.823H1416.41V223.501H1416.47V218.179H1416.57V207.537H1416.85V202.216H1417.25V196.894H1417.42V186.251H1417.52V180.93H1418.91V175.608H1419.45V170.286H1420.07V164.965H1420.61V159.752H1420.47V154.43H1420.3V149H1421.73V143.679H1421.76V138.358H1422.13V133.144H1422.1V127.823H1421.89V122.393H1421.93V117.072H1422.4V111.751H1422.64V106.43H1422.71V95.7861H1422.78V85.2513H1422.68V79.9296H1422.64V74.6084H1422.61V63.9658H1422.47V53.3225H1422.44V48.0012H1422.34V42.6799H1422.23V37.3583H1422.17V31.9284H1424.47V37.3583H1424.41V42.6799H1424.31V48.0012H1424.2V53.3225H1424.17V63.9658H1424.03V74.6084H1424V79.9296H1423.96V85.2513H1423.86V95.7861H1423.93V106.43H1424V111.751H1424.24V117.072H1424.71V122.393H1424.74V127.823H1424.54V133.144H1424.51V138.358H1424.88V143.679H1424.91V149H1426.34V154.43H1426.17V159.752H1426.03V164.965H1426.58V170.286H1427.18V175.608H1427.73V180.93H1429.12V186.251H1429.22V196.894H1429.39V202.216H1429.79V207.537H1430.06V218.179H1430.17V223.501H1430.23V228.823H1430.37V234.144H1430.45V228.823H1430.52V223.501H1430.59V218.179H1430.62V212.858H1430.76V207.537H1431.26V202.216H1431.43V196.894H1431.57V186.251H1431.64V180.93H1433.3V170.286H1434.28V164.965H1434.69V159.752H1434.52V149.109H1434.42V143.679H1435.94V138.358H1436.35V133.144H1436.21V127.823H1436.04V117.072H1436.55V111.751H1436.76V106.43H1436.82V101.107H1436.89V95.8943H1436.79V85.1436H1436.82V79.9296H1436.76V74.6084H1436.72V63.9658H1436.58V53.2143H1436.62V48.0012H1436.55V42.6799H1436.45V37.3583H1436.21V31.9284H1438.66V37.3583H1438.42V42.6799H1438.32V48.0012H1438.25V53.2143H1438.28V63.9658H1438.14V74.6084H1438.11V79.9296H1438.04V85.1436H1438.08V95.8943H1437.98V101.107H1438.04V106.43H1438.11V111.751H1438.32V117.072H1438.82V127.823H1438.66V133.144H1438.52V138.358H1438.93V143.679H1440V240H0V53.2143H2.43867V58.6437H2.23477V63.9658H2.1668V69.2871H1.99805V74.6084H1.76016V79.9296H1.72734V85.2513H1.69336V90.573H1.59141V95.8943H1.52344V101.216H1.48945V106.537H1.21875V111.859H1.1168V117.18H0.880078V122.393H1.35469V127.715H2.60859V133.037H2.67656V138.466H2.33672V143.679H5.97656V138.358H7.26328V133.144H7.1625V127.715H8.75508V122.393H8.88984V111.859H8.61914V106.537H8.45039V101.216H8.41641V95.8943H8.34727V90.573H8.24648V85.2513H8.14453V79.9296H8.11172V74.6084H7.94063V69.2871H7.77188V63.9658H7.73906V58.6437H7.1625V53.2143H10.3137V48.0012H9.73711V42.5718H14.2148V48.0012H13.6383V53.2143H16.7895V58.6437H16.2129V63.9658H16.1789V69.2871H16.0102V74.6084H15.8402V79.9296H15.8063V85.2513H15.7055V90.573H15.6035V95.8943H15.5344V101.216H15.5016V106.537H15.3328V111.859H15.0609V122.393H15.1957V127.715H16.7895V133.144H16.6875V138.358H17.9742V143.679H18.2941V138.358H21.5133V133.037H21.5801V127.715H23.0039V122.393H23.2406V117.18H22.868V111.859H22.698V106.537H22.6641V101.216H22.5973V95.8943H22.5293V90.573H22.3945V85.2513H22.3594V79.9296H22.2586V74.6084H22.1227V69.2871H21.9188V63.9658H21.5801V58.6437H20.9367V53.2143H24.3926V48.0012H23.0707V42.5718H29.107V48.0012H27.7852V53.2143H31.241V58.6437H30.5977V63.9658H30.2578V69.2871H30.0563V74.6084H29.9191V79.9296H29.8184V85.2513H29.7844V90.573H29.6496V95.8943H29.5805V101.216H29.5125V106.537H29.4797V111.859H29.3109V117.18H28.9383V122.393H29.1738V127.715H30.5977V133.037H30.6645V138.358H34.0336V133.037H35.5242V127.715H35.7961V122.393H37.152V117.072H37.1859V111.859H36.8461V106.43H36.948V101.216H36.8133V95.8943H36.6762V90.573H36.5754V85.2513H36.5074V79.9296H36.4734V74.6084H36.2367V69.2871H36.0328V63.9658H35.7281V58.5364H40.0336V53.3225H38.6766V48.0012H38.3707V42.5718H42.034V48.0012H41.7293V53.3225H40.3723V58.5364H44.6766V63.9658H44.373V69.2871H44.1691V74.6084H43.9313V79.9296H43.8973V85.2513H43.8305V90.573H43.7285V95.8943H43.5926V101.216H43.4578V106.43H43.5586V111.859H43.2199V117.072H43.2539V122.393H44.6086V127.715H44.8805V133.037H46.3711V138.358H46.7918V133.037H50.3496V127.823H49.4355V122.393H51.4336V117.18H51.1617V106.537H51.0609V101.216H50.9262V95.8943H50.7891V90.573H50.6883V85.2513H50.6203V79.9296H50.5875V74.6084H50.3496V69.2871H50.1469V63.9658H49.3324V58.5364H52.6207V53.3225H52.5855V47.8931H52.9582V42.6799H51.3328V37.2505H57.3V42.6799H55.6734V47.8931H56.0461V53.3225H56.0121V58.5364H59.2992V63.9658H58.4859V69.2871H58.282V74.6084H58.0453V79.9296H58.0102V85.2513H57.9434V90.573H57.8414V95.8943H57.7066V101.216H57.5707V106.537H57.4688V117.18H57.198V122.393H59.1973V127.823H58.282V133.037H64.0559V127.823H63.7863V122.393H65.6836V117.18H65.3777V111.859H65.3438V106.537H65.1738V101.216H65.107V95.8943H65.0051V90.573H64.9043V85.2513H64.7672V79.9296H64.6324V74.6084H64.5316V69.2871H64.193V63.8577H68.2594V58.6437H66.9363V53.2143H67.0031V48.0012H66.4289V42.5718H66.5297V37.3583H66.0891V31.9284H70.7695V37.3583H70.3289V42.5718H70.4309V48.0012H69.8543V53.2143H69.9234V58.6437H68.598V63.8577H72.6668V69.2871H72.3281V74.6084H72.2262V79.9296H72.0914V85.2513H71.9555V90.573H71.8535V95.8943H71.7527V101.216H71.6836V106.537H71.5148V111.859H71.4809V117.18H71.1762V122.393H73.0734V127.823H72.8027V133.037H78.1711V127.823H78.034V122.393H79.8973V117.18H79.5586V111.859H79.3898V106.537H79.3219V101.216H79.152V95.8943H79.118V90.573H79.0512V85.2513H78.8473V74.6084H78.5438V69.2871H78.034V63.8577H81.6938V58.6437H80.8805V53.3225H80.8465V48.0012H80.7457V42.5718H80.9484V37.2505H84.1371V42.5718H84.341V48.0012H84.2391V53.3225H84.2051V58.6437H83.3918V63.8577H87.0516V69.2871H86.543V74.6084H86.2383V85.2513H86.0344V90.573H85.9664V95.8943H85.9336V101.216H85.7648V106.537H85.6957V111.859H85.527V117.18H85.1883V122.393H87.0516V127.823H86.9156V133.037H92.4867V127.823H92.0121V122.393H94.0793V117.18H93.7746V111.859H93.6727V106.537H93.4688V101.216H93.402V95.8943H93.1641V90.573H93.1301V85.2513H92.9953V79.9296H92.9273V74.6084H92.5195V69.179H94.7906V63.8577H95.4352V58.6437H95.0965V53.2143H95.2313V48.0012H94.8586V42.6799H94.7578V37.2505H98.5559V42.6799H98.4539V48.0012H98.0813V53.2143H98.2172V58.6437H97.8773V63.8577H98.5219V69.179H100.792V74.6084H100.385V79.9296H100.317V85.2513H100.182V90.573H100.148V95.8943H99.9117V101.216H99.8438V106.537H99.6398V111.859H99.5391V117.18H99.2332V122.393H101.3V127.823H100.826V133.037H106.566V127.823H105.854V122.393H107.549V117.072H107.888V111.859H107.787V106.537H107.583V101.216H107.515V95.8943H107.414V90.573H107.346V85.2513H107.108V79.9296H107.074V74.5002H107.243V69.179H109.175V63.8577H109.243V58.6437H109.073V53.2143H109.209V48.0012H108.905V42.5718H108.938V37.2505H112.601V42.5718H112.635V48.0012H112.33V53.2143H112.466V58.6437H112.296V63.8577H112.365V69.179H114.295V74.5002H114.464V79.9296H114.431V85.2513H114.195V90.573H114.125V95.8943H114.025V101.216H113.957V106.537H113.753V111.859H113.652V117.072H113.991V122.393H115.685V127.823H114.974V133.037H120.239V127.823H120.205V122.393H121.9V117.072H122V111.859H121.9V106.537H121.798V101.216H121.662V95.8943H121.527V90.573H121.493V85.2513H121.323V79.9296H121.221V74.6084H120.68V69.179H123.526V63.9658H123.39V58.5364H123.491V53.3225H123.322V48.0012H122.883V42.6799H122.07V37.2505H127.697V42.6799H126.885V48.0012H126.444V53.3225H126.274V58.5364H126.375V63.9658H126.24V69.179H129.087V74.6084H128.545V79.9296H128.442V85.2513H128.273V90.573H128.241V95.8943H128.104V101.216H127.969V106.537H127.868V111.859H127.765V117.072H127.868V122.393H129.56V127.823H129.527V133.037H135.267V127.823H134.421V122.393H136.116V117.18H136.013V111.751H136.116V106.537H135.912V101.216H135.776V95.8943H135.743V90.573H135.606V85.2513H135.505V79.9296H135.335V74.5002H137.03V69.179H137.741V63.8577H137.911V58.6437H137.435V53.3225H137.334V48.0012H137.3V42.6799H136.758V37.2505H141.236V42.6799H140.693V48.0012H140.659V53.3225H140.557V58.6437H140.084V63.8577H140.252V69.179H140.964V74.5002H142.658V79.9296H142.488V85.2513H142.388V90.573H142.252V95.8943H142.219V101.216H142.082V106.537H141.879V111.751H141.981V117.18H141.879V122.393H143.572V127.823H142.726V133.037H148.941V127.823H148.568V122.393H148.704V117.072H150.263V106.537H150.059V101.216H149.89V95.8943H149.856V90.573H149.788V85.2513H149.618V79.9296H149.279V74.5002H152.467V69.2871H151.786V63.9658H151.719V58.6437H151.549V53.2143H151.685V47.8931H151.957V42.6799H150.091V37.2505H156.128V42.6799H154.264V47.8931H154.535V53.2143H154.671V58.6437H154.502V63.9658H154.433V69.2871H153.754V74.5002H156.94V79.9296H156.601V85.2513H156.432V90.573H156.366V95.8943H156.332V101.216H156.162V106.537H155.959V117.072H157.516V122.393H157.652V127.823H157.28V133.037H161.312V138.358H161.902V133.037H163.596V127.823H162.919V122.501H162.579V117.072H164.545V111.859H164.173V106.43H164.307V101.216H164.138V95.8943H163.969V90.573H163.901V85.2513H163.562V74.5002H165.968V69.179H166.513V63.9658H165.832V58.6437H165.663V53.2143H166.239V48.0012H165.9V42.6799H164.375V37.2505H170.072V42.6799H168.547V48.0012H168.209V53.2143H168.784V58.6437H168.615V63.9658H167.934V69.179H168.48V74.5002H170.885V85.2513H170.545V90.573H170.479V95.8943H170.31V101.216H170.14V106.43H170.275V111.859H169.902V117.072H171.867V122.501H171.529V127.823H170.851V133.037H172.546V138.358H176.795V133.037H177.134V127.823H176.93V122.501H176.693V117.072H178.861V111.859H178.488V106.537H178.42V101.216H178.252V95.8943H178.184V90.573H178.116V85.2513H178.082V79.9296H177.37V74.5002H180.455V69.2871H180.115V63.9658H179.979V58.6437H179.81V53.2143H180.318V48.0012H179.505V42.6799H178.76V37.2505H183.914V42.6799H183.169V48.0012H182.355V53.2143H182.863V58.6437H182.694V63.9658H182.559V69.2871H182.221V74.5002H185.303V79.9296H184.591V85.2513H184.557V90.573H184.491V95.8943H184.423V101.216H184.253V106.537H184.185V111.859H183.812V117.072H185.981V122.501H185.743V127.823H185.541V133.037H185.879V138.358H191.044V133.037H191.214V127.823H190.976V122.501H190.908V117.18H190.399V111.751H193.043V106.537H192.602V101.216H192.398V95.8943H192.298V90.573H192.128V79.9296H191.891V74.5002H194.364V69.179H194.807V63.9658H194.296V58.6437H194.093V53.2143H194.229V48.0012H193.55V42.5718H194.093V37.2505H196.807V42.5718H197.351V48.0012H196.672V53.2143H196.807V58.6437H196.605V63.9658H196.095V69.179H196.536V74.5002H199.01V79.9296H198.773V90.573H198.604V95.8943H198.502V101.216H198.298V106.537H197.858V111.751H200.501V117.18H199.992V122.501H199.925V127.823H199.688V133.037H199.857V138.358H205.259V133.144H205.226V127.823H205.089V122.501H204.988V117.18H204.411V111.751H204.48V106.43H206.918V101.216H206.749V95.8943H206.479V90.573H206.377V85.2513H206.31V79.9296H206.14V74.5002H207.969V69.179H208.852V63.9658H208.071V58.5364H208.954V53.3225H208.207V48.0012H207.766V42.5718H209.023V37.2505H210.107V42.5718H211.362V48.0012H210.921V53.3225H210.173V58.5364H211.057V63.9658H210.275V69.179H211.158V74.5002H212.988V79.9296H212.82V85.2513H212.752V90.573H212.648V95.8943H212.378V101.216H212.209V106.43H214.649V111.751H214.716V117.18H214.139V122.501H214.038V127.823H213.904V133.144H213.87V138.358H217.223V143.679H218.491V138.358H219.271V133.144H219.135V127.715H219.305V122.501H219.169V117.18H219.101V111.859H218.593V106.43H221.1V101.216H220.457V95.7861H220.695V90.573H220.591V85.2513H220.491V79.9296H220.355V74.6084H219.88V69.179H223.034V63.9658H222.354V58.5364H223.068V53.3225H222.117V48.0012H221.879V42.5718H222.863V37.2505H224.493V42.5718H225.476V48.0012H225.238V53.3225H224.288V58.5364H225.001V63.9658H224.32V69.179H227.474V74.6084H226.999V79.9296H226.864V85.2513H226.763V90.573H226.661V95.7861H226.898V101.216H226.254V106.43H228.762V111.859H228.254V117.18H228.185V122.501H228.05V127.715H228.22V133.144H228.084V138.358H228.863V143.679H233.79V138.466H233.486V133.144H233.452V127.823H233.384V122.501H233.317V117.18H233.147V111.859H232.807V106.43H235.112V101.216H235.045V95.8943H234.807V90.573H234.773V85.2513H234.705V79.9296H234.604V74.6084H234.062V69.179H236.738V63.8577H236.805V58.6437H236.569V53.3225H236.536V48.0012H236.399V42.6799H235.045V37.2505H240.538V42.6799H239.182V48.0012H239.047V53.3225H239.013V58.6437H238.775V63.8577H238.843V69.179H241.519V74.6084H240.977V79.9296H240.877V85.2513H240.809V90.573H240.773V95.8943H240.538V101.216H240.47V106.43H242.774V111.859H242.435V117.18H242.266V122.501H242.197V127.823H242.129V133.144H242.095V138.466H241.791V143.679H247.192V138.358H247.53V127.823H247.43V117.18H247.226V111.859H246.887V106.43H249.394V101.216H249.192V95.8943H249.021V90.573H248.886V85.2513H248.752V79.8215H248.82V74.5002H250.887V69.2871H250.581V63.8577H250.852V53.3225H250.716V48.0012H250.547V42.5718H251.768V37.2505H252.04V42.5718H253.261V48.0012H253.092V53.3225H252.956V63.8577H253.228V69.2871H252.922V74.5002H254.989V79.8215H255.057V85.2513H254.923V90.573H254.786V95.8943H254.617V101.216H254.413V106.43H256.921V111.859H256.582V117.18H256.379V127.823H256.276V138.358H256.615V143.679H259.427V149H260.865V143.679H261.442V138.358H261.645V122.501H261.611V117.18H261.305V111.859H261.204V106.43H262.798V101.216H262.764V95.7861H263.136V90.573H263.033V85.2513H262.864V79.9296H262.798V74.5002H265.477V69.2871H264.796V63.8577H264.83V58.6437H264.661V53.3225H264.627V42.5718H267.408V53.3225H267.375V58.6437H267.206V63.8577H267.239V69.2871H266.561V74.5002H269.239V79.9296H269.17V85.2513H269.002V90.573H268.901V95.7861H269.273V101.216H269.239V106.43H270.831V111.859H270.73V117.18H270.424V122.501H270.391V138.358H270.593V143.679H271.17V149H275.759V143.787H275.216V138.358H275.793V133.144H275.759V122.501H275.725V117.18H275.655V111.859H275.42V106.537H275.081V101.107H277.894V95.8943H277.249V90.573H277.148V85.1436H277.249V79.8215H278.706V74.6084H278.299V69.2871H278.129V63.8577H278.978V58.6437H278.909V53.2143H278.944V48.0012H278.266V42.5718H281.996V48.0012H281.319V53.2143H281.353V58.6437H281.285V63.8577H282.131V69.2871H281.963V74.6084H281.557V79.8215H283.014V85.1436H283.114V90.573H283.014V95.8943H282.369V101.107H285.182V106.537H284.843V111.859H284.605V117.18H284.538V122.501H284.504V133.144H284.47V138.358H285.046V143.787H284.504V149H287.351V154.323H287.704V149H289.228V143.679H289.567V138.358H289.905V133.037H290.006V127.823H289.871V117.18H289.736V111.859H289.567V106.537H289.025V101.107H291.531V95.8943H291.497V90.573H291.328V85.1436H292.446V74.6084H292.277V69.2871H292.107V63.8577H292.99V58.5364H293.259V53.3225H293.159V48.0012H292.684V42.5718H295.805V48.0012H295.331V53.3225H295.229V58.5364H295.501V63.8577H296.381V69.2871H296.211V74.6084H296.043V85.1436H297.161V90.573H296.992V95.8943H296.958V101.107H299.466V106.537H298.922V111.859H298.753V117.18H298.617V127.823H298.482V133.037H298.583V138.358H298.922V143.679H299.262V149H300.785V154.323H303.884V149.109H303.612V138.358H304.12V133.144H303.984V117.18H303.952V111.859H303.68V106.43H304.934V101.107H305.646V95.8943H305.543V90.573H305.475V85.1436H306.831V79.9296H306.492V74.6084H306.458V69.2871H306.323V63.8577H306.391V58.5364H307.441V53.2143H307.815V48.0012H307.338V42.6799H306.188V37.2505H310.528V42.6799H309.376V48.0012H308.899V53.2143H309.275V58.5364H310.325V63.8577H310.393V69.2871H310.259V74.6084H310.223V79.9296H309.884V85.1436H311.239V90.573H311.173V95.8943H311.071V101.107H311.782V106.43H313.036V111.859H312.764V117.18H312.73V133.144H312.595V138.358H313.103V149.109H312.833V154.323H315.476V159.644H316.405V154.323H317.557V149H317.658V138.358H317.996V133.037H318.064V127.823H317.996V122.393H318.064V117.072H318.131V111.859H317.896V106.43H320.571V101.216H319.826V95.8943H319.657V90.573H319.487V85.1436H320.877V79.9296H320.809V74.6084H320.639V69.2871H320.47V63.9658H320.098V58.5364H321.488V48.0012H321.316V42.6799H321.081V37.2505H323.862V42.6799H323.626V48.0012H323.456V58.5364H324.845V63.9658H324.472V69.2871H324.304V74.6084H324.134V79.9296H324.066V85.1436H325.455V90.573H325.286V95.8943H325.117V101.216H324.371V106.43H327.047V111.859H326.811V117.072H326.878V122.393H326.946V127.823H326.878V133.037H326.946V138.358H327.285V149H327.387V154.323H328.538V159.644H332.043V154.43H331.941V149.109H331.84V143.787H331.771V138.358H332.177V127.823H332.109V117.18H332.009V111.751H332.585V106.43H334.211V101.107H334.279V95.8943H334.008V90.573H333.838V85.1436H334.99V79.9296H334.889V74.6084H334.753V69.2871H334.617V63.8577H334.72V58.5364H335.667V53.3225H335.566V48.0012H335.498V42.6799H335.194V37.2505H335.498V31.9284H337.671V37.2505H337.977V42.6799H337.671V48.0012H337.604V53.3225H337.501V58.5364H338.45V63.8577H338.552V69.2871H338.416V74.6084H338.28V79.9296H338.18V85.1436H339.33V90.573H339.162V95.8943H338.891V101.107H338.958V106.43H340.586V111.751H341.161V117.18H341.059V127.823H340.992V138.358H341.398V143.787H341.331V149.109H341.229V154.43H341.127V159.644H343.634V165.073H343.465V170.286H343.567V175.608H343.601V180.93H343.819V175.608H343.852V164.965H344.054V159.644H346.155V154.43H345.886V149.109H345.817V138.358H346.121V133.037H346.189V127.715H346.359V117.18H346.055V111.751H348.495V106.537H348.357V101.216H348.155V95.8943H348.02V90.573H347.884V85.1436H349.104V79.9296H349.002V74.6084H348.9V69.2871H348.73V63.9658H348.495V58.5364H349.713V53.3225H349.645V48.0012H349.545V42.5718H349.613V37.3583H349.375V31.9284H350.325V26.6072H351.07V31.9284H352.022V37.3583H351.785V42.5718H351.852V48.0012H351.751V53.3225H351.683V58.5364H352.903V63.9658H352.665V69.2871H352.496V74.6084H352.395V79.9296H352.293V85.1436H353.513V90.573H353.377V95.8943H353.242V101.216H353.038V106.537H352.903V111.751H355.343V117.18H355.037V127.715H355.206V133.037H355.275V138.358H355.58V149.109H355.512V154.43H355.241V159.644H357.341V164.965H357.545V175.608H357.579V180.93H357.816V186.251H357.898V180.93H357.932V175.608H357.998V170.395H357.83V164.965H359.965V159.752H359.931V154.323H359.965V149H359.999V138.358H360.066V133.037H360.438V127.715H360.472V122.501H360.438V117.072H360.744V111.751H362.946V106.537H362.473V101.216H362.269V95.8943H362.167V90.4649H362.269V85.1436H363.557V79.9296H363.488V74.6084H363.014V69.2871H362.845V63.8577H363.014V58.5364H363.996V53.3225H363.759V47.8931H363.929V42.6799H363.759V37.3583H363.623V31.9284H365.999V37.3583H365.864V42.6799H365.695V47.8931H365.864V53.3225H365.626V58.5364H366.609V63.8577H366.779V69.2871H366.609V74.6084H366.136V79.9296H366.068V85.1436H367.355V90.4649H367.458V95.8943H367.355V101.216H367.152V106.537H366.677V111.751H368.879V117.072H369.184V122.501H369.15V127.715H369.184V133.037H369.557V138.358H369.626V149H369.66V154.323H369.694V159.752H369.66V164.965H371.794V170.395H371.624V175.608H371.692V180.93H371.726V186.251H371.91V180.93H372.045V175.608H372.079V170.286H372.248V164.965H373.84V159.644H374.078V154.323H374.18V149.109H374.078V143.679H374.28V138.466H374.044V133.037H374.552V127.715H374.619V122.501H374.552V117.18H374.416V111.751H376.686V106.537H376.586V101.216H376.518V95.8943H376.28V90.4649H376.451V85.1436H376.72V79.8215H377.5V74.6084H377.127V69.2871H376.958V63.9658H376.586V58.5364H377.704V53.2143H377.738V47.8931H377.838V42.6799H377.602V37.2505H377.872V31.9284H379.977V37.2505H380.249V42.6799H380.011V47.8931H380.114V53.2143H380.147V58.5364H381.265V63.9658H380.892V69.2871H380.722V74.6084H380.35V79.8215H381.13V85.1436H381.401V90.4649H381.571V95.8943H381.333V101.216H381.265V106.537H381.164V111.751H383.434V117.18H383.299V122.501H383.23V127.715H383.299V133.037H383.807V138.466H383.569V143.679H383.773V149.109H383.672V154.323H383.773V159.644H384.011V164.965H385.602V170.286H385.771V175.608H385.806V180.93H385.941V186.251H386.023V180.93H386.227V175.608H386.327V170.286H388.191V165.073H388.124V159.644H388.191V154.323H388.293V149.109H388.191V143.787H388.158V138.358H388.191V133.037H388.631V127.715H388.734V122.393H388.903V117.072H389.648V111.751H390.732V106.537H390.698V101.216H390.63V95.8943H390.326V90.4649H390.664V85.2513H390.394V79.8215H391.172V74.5002H391.241V69.2871H391.071V63.8577H391.648V58.5364H392.327V53.3225H391.816V48.0012H391.716V42.5718H392.121V37.2505H393.955V42.5718H394.362V48.0012H394.261V53.3225H393.75V58.5364H394.43V63.8577H395.006V69.2871H394.838V74.5002H394.904V79.8215H395.684V85.2513H395.412V90.4649H395.752V95.8943H395.446V101.216H395.379V106.537H395.345V111.751H396.429V117.072H397.174V122.393H397.344V127.715H397.446V133.037H397.886V138.358H397.92V143.787H397.886V149.109H397.785V154.323H397.886V159.644H397.954V165.073H397.886V170.286H399.749V175.608H399.852V180.93H400.055V186.251H400.17V180.93H400.407V175.608H401.357V170.286H402.102V159.644H402.305V154.323H402.407V149.109H402.271V143.787H402.169V138.466H402.136V133.037H402.914V127.823H402.813V122.393H403.085V117.072H405.015V111.859H404.745V106.43H404.845V101.216H404.677V95.8943H404.643V90.4649H404.845V85.2513H404.643V79.8215H405.626V74.6084H405.456V69.2871H405.253V63.8577H406.779V58.6437H406.167V53.3225H405.998V48.0012H405.829V42.6799H404.914V37.2505H409.39V42.6799H408.476V48.0012H408.306V53.3225H408.137V58.6437H407.524V63.8577H409.051V69.2871H408.848V74.6084H408.679V79.8215H409.662V85.2513H409.458V90.4649H409.662V95.8943H409.628V101.216H409.458V106.43H409.561V111.859H409.289V117.072H411.22V122.393H411.491V127.823H411.39V133.037H412.17V138.466H412.136V143.787H412.032V149.109H411.898V154.323H411.998V159.644H412.202V170.286H412.948V175.608H413.897V180.93H414.134V186.251H414.284V175.608H416.622V170.395H416.385V159.644H416.419V154.323H416.52V149.109H416.419V143.787H416.35V138.358H416.588V133.037H416.926V127.715H417.13V122.501H417.095V117.072H419.061V111.751H419.366V106.537H419.027V101.216H418.891V95.7861H418.927V79.8215H419.773V74.6084H419.569V69.179H419.739V63.8577H420.825V58.6437H420.349V53.3225H420.111V48.0012H419.941V42.6799H419.907V37.2505H420.213V31.9284H422.318V37.2505H422.623V42.6799H422.59V48.0012H422.419V53.3225H422.183V58.6437H421.706V63.8577H422.791V69.179H422.963V74.6084H422.759V79.8215H423.606V95.7861H423.64V101.216H423.504V106.537H423.164V111.751H423.47V117.072H425.435V122.501H425.402V127.715H425.604V133.037H425.944V138.358H426.18V143.787H426.114V149.109H426.011V154.323H426.114V159.644H426.148V170.395H425.91V175.608H428.247V186.251H428.398V180.93H428.803V175.608H430.532V165.073H430.396V159.644H430.634V154.323H430.666V149.109H430.532V143.679H430.566V138.466H430.362V133.144H430.328V127.715H430.972V122.501H430.566V117.072H433.344V111.859H433.14V106.537H433.073V101.216H432.972V95.7861H433.039V85.2513H432.87V79.8215H433.988V74.6084H433.581V69.179H437.176V74.6084H436.77V79.8215H437.888V85.2513H437.719V95.7861H437.787V101.216H437.686V106.537H437.618V111.859H437.414V117.072H440.193V122.501H439.786V127.715H440.429V133.144H440.395V138.466H440.193V143.679H440.227V149.109H440.091V154.323H440.123V159.644H440.361V165.073H440.227V175.608H441.955V180.93H442.362V186.251H442.477V180.93H444.848V175.608H444.916V170.395H444.645V165.073H444.51V159.644H444.578V154.323H444.679V149.109H444.645V143.679H444.679V138.466H444.645V133.144H444.408V127.715H445.289V122.393H445.662V117.072H447.152V111.751H447.253V106.43H447.287V95.7861H447.356V90.573H447.118V85.2513H447.084V79.8215H447.998V74.6084H447.626V69.179H448.951V63.8577H449.154V58.6437H448.44V53.3225H448.338V48.0012H448.304V42.6799H448.236V37.2505H448.304V32.0366H446.679V26.6072H452.306V32.0366H450.681V37.2505H450.748V42.6799H450.681V48.0012H450.647V53.3225H450.544V58.6437H449.831V63.8577H450.035V69.179H451.358V74.6084H450.986V79.8215H451.9V85.2513H451.866V90.573H451.629V95.7861H451.697V106.43H451.731V111.751H451.833V117.072H453.323V122.393H453.696V127.715H454.577V133.144H454.339V138.466H454.305V143.679H454.339V149.109H454.305V154.323H454.407V159.644H454.474V165.073H454.339V170.395H454.069V175.608H454.136V180.93H456.509V186.251H456.623V180.93H458.963V175.716H458.929V170.395H458.759V164.965H458.791V159.752H458.691V154.323H458.791V138.466H458.691V133.144H458.59V127.715H459.233V122.393H459.945V117.072H461.368V111.751H461.435V95.8943H461.402V90.573H461.265V85.1436H461.876V79.8215H462.045V74.5002H463.132V69.2871H462.996V63.9658H462.79V58.6437H462.52V47.8931H462.553V42.6799H462.383V31.9284H462.79V26.6072H464.421V31.9284H464.828V42.6799H464.659V47.8931H464.693V58.6437H464.421V63.9658H464.216V69.2871H464.081V74.5002H465.166V79.8215H465.336V85.1436H465.946V90.573H465.811V95.8943H465.777V111.751H465.844V117.072H467.268V122.393H467.979V127.715H468.623V133.144H468.52V138.466H468.42V154.323H468.52V159.752H468.42V164.965H468.452V170.395H468.284V175.716H468.251V180.93H470.588V186.251H470.602V180.93H472.907V175.608H472.973V170.395H472.907V165.073H472.838V159.752H472.804V154.323H472.872V149H472.973V143.787H472.838V138.466H472.804V133.144H472.703V127.715H472.838V122.393H474.498V117.072H475.582V95.8943H475.549V90.573H475.481V85.1436H476.463V79.9296H476.023V74.5002H477.211V69.2871H477.007V63.8577H477.042V58.6437H476.7V53.3225H476.633V48.0012H476.565V42.5718H476.667V37.3583H476.531V31.9284H476.667V26.6072H478.772V31.9284H478.907V37.3583H478.772V42.5718H478.873V48.0012H478.806V53.3225H478.738V58.6437H478.397V63.8577H478.43V69.2871H478.228V74.5002H479.416V79.9296H478.975V85.1436H479.958V90.573H479.89V95.8943H479.856V117.072H480.94V122.393H482.602V127.715H482.736V133.144H482.634V138.466H482.602V143.787H482.464V149H482.566V154.323H482.634V159.752H482.602V165.073H482.532V170.395H482.464V175.608H482.532V180.93H484.838V186.251H485.461V180.93H486.748V175.608H486.986V170.286H487.12V165.073H487.02V159.752H486.85V154.323H486.919V149H487.154V143.787H486.952V138.358H487.02V133.144H486.85V127.715H487.088V122.393H489.356V117.072H489.763V111.751H489.866V106.537H489.832V101.216H489.662V95.8943H489.594V90.573H489.323V85.1436H490.474V79.8215H490.746V74.5002H490.847V69.179H490.984V58.6437H490.847V53.2143H490.95V48.0012H490.746V42.5718H490.814V37.2505H490.95V31.9284H491.121V26.6072H491.494V21.2859H492.172V26.6072H492.545V31.9284H492.716V37.2505H492.851V42.5718H492.919V48.0012H492.716V53.2143H492.818V58.6437H492.682V69.179H492.818V74.5002H492.919V79.8215H493.191V85.1436H494.341V90.573H494.071V95.8943H494.003V101.216H493.834V106.537H493.8V111.751H493.902V117.072H494.309V122.393H496.577V127.715H496.815V133.144H496.647V138.358H496.714V143.787H496.511V149H496.748V154.323H496.815V159.752H496.647V165.073H496.545V170.286H496.68V175.608H496.917V180.93H498.205V186.251H498.897V180.93H500.794V175.608H500.929V170.286H501.234V165.073H501.132V159.752H501.098V154.323H501.132V149.109H501.098V143.679H501.234V133.144H501.066V127.715H501.098V122.393H503.878V117.18H503.809V111.751H504.047V101.216H503.878V95.8943H503.809V90.4649H503.911V85.1436H504.386V79.8215H504.928V74.5002H505.268V69.2871H505.029V63.8577H505.097V58.6437H505.029V53.3225H504.962V48.0012H504.928V42.5718H505.097V37.3583H504.893V32.0366H504.386V26.7153H504.284V21.2859H507.608V26.7153H507.507V32.0366H506.998V37.3583H506.796V42.5718H506.965V48.0012H506.931V53.3225H506.863V58.6437H506.796V63.8577H506.863V69.2871H506.624V74.5002H506.965V79.8215H507.507V85.1436H507.981V90.4649H508.083V95.8943H508.015V101.216H507.846V111.751H508.083V117.18H508.015V122.393H510.793V127.715H510.827V133.144H510.659V143.679H510.793V149.109H510.759V154.323H510.793V159.752H510.759V165.073H510.659V170.286H510.962V175.608H511.099V180.93H512.995V186.359H512.827V191.572H513.077V180.93H513.145V175.608H515.382V170.395H515.348V165.073H515.245V159.752H515.213V154.323H515.313V143.787H515.245V138.358H515.382V127.715H515.416V122.393H515.822V117.072H517.991V111.751H518.229V106.537H518.16V101.216H518.058V95.8943H517.991V90.4649H518.229V85.1436H518.803V79.8215H519.075V74.5002H519.176V69.2871H519.075V63.8577H519.244V53.2143H519.348V48.0012H518.974V42.5718H519.007V31.9284H519.244V26.6072H519.552V21.2859H520.568V26.6072H520.875V31.9284H521.113V42.5718H521.147V48.0012H520.771V53.2143H520.875V63.8577H521.044V69.2871H520.943V74.5002H521.044V79.8215H521.316V85.1436H521.892V90.4649H522.128V95.8943H522.061V101.216H521.959V106.537H521.892V111.751H522.128V117.072H524.297V122.393H524.705V127.715H524.738V138.358H524.873V143.787H524.805V154.323H524.906V159.752H524.873V165.073H524.772V170.395H524.738V175.608H526.973V180.93H527.041V191.572H527.19V180.93H527.937V175.608H529.529V170.395H529.427V165.073H529.359V154.43H529.291V149H529.427V143.679H529.495V138.466H529.427V133.037H529.529V127.823H529.157V122.501H528.953V117.072H532.205V111.751H532.308V106.43H532.342V101.216H532.172V95.7861H532.308V90.4649H532.95V85.1436H533.154V79.8215H533.461V74.6084H533.29V69.179H533.325V63.8577H533.495V58.6437H533.256V53.2143H533.495V48.0012H533.188V42.6799H533.121V37.2505H533.188V31.9284H533.461V26.7153H533.29V21.394H533.188V15.9646H535.158V21.394H535.056V26.7153H534.884V31.9284H535.158V37.2505H535.226V42.6799H535.158V48.0012H534.851V53.2143H535.09V58.6437H534.851V63.8577H535.022V69.179H535.056V74.6084H534.884V79.8215H535.192V85.1436H535.395V90.4649H536.039V95.7861H536.174V101.216H536.005V106.43H536.039V111.751H536.14V117.072H539.393V122.501H539.19V127.823H538.818V133.037H538.918V138.466H538.852V143.679H538.918V149H539.053V154.43H538.986V165.073H538.918V170.395H538.818V175.608H540.409V180.93H541.154V191.572H541.222V196.894H541.372V191.68H541.305V186.251H541.474V181.037H541.406V175.608H541.813V170.286H543.71V164.965H543.743V159.752H543.574V154.43H543.473V149H543.574V143.679H543.642V138.358H543.743V133.144H543.642V127.823H543.439V122.501H543.37V117.072H547.031V111.859H545.878V106.43H546.455V101.216H546.387V90.4649H547.099V85.1436H547.2V79.8215H547.268V69.179H547.472V63.8577H547.643V58.6437H547.37V53.2143H547.915V48.0012H547.301V42.6799H547.2V37.2505H547.268V31.9284H547.438V26.6072H547.778V21.394H547.268V15.9646H549.305V21.394H548.795V26.6072H549.135V31.9284H549.305V37.2505H549.373V42.6799H549.272V48.0012H548.66V53.2143H549.204V58.6437H548.93V63.8577H549.101V69.179H549.305V79.8215H549.373V85.1436H549.473V90.4649H550.186V101.216H550.118V106.43H550.695V111.859H549.543V117.072H553.202V122.501H553.134V127.823H552.93V133.144H552.83V138.358H552.93V143.679H552.998V149H553.099V154.43H552.998V159.752H552.83V164.965H552.863V170.286H554.76V175.608H555.166V181.037H555.098V186.251H555.267V191.68H555.2V196.894H555.519V191.572H555.553V186.251H555.587V175.608H555.858V170.286H557.993V165.073H557.824V159.752H557.688V154.43H557.586V149H557.688V143.679H557.755V138.358H557.858V133.144H557.824V127.823H557.688V122.501H557.654V117.18H556.943V111.751H560.602V106.537H560.568V101.216H560.501V95.7861H560.67V90.4649H560.974V85.1436H561.551V79.9296H561.517V74.6084H561.381V69.179H561.585V63.9658H561.551V58.5364H561.689V53.3225H561.517V47.8931H561.689V42.6799H561.381V37.2505H561.551V31.9284H561.689V26.7153H561.585V21.394H561.551V16.0724H560.738V10.6425H564.062V16.0724H563.25V21.394H563.216V26.7153H563.112V31.9284H563.25V37.2505H563.419V42.6799H563.112V47.8931H563.283V53.3225H563.112V58.5364H563.25V63.9658H563.216V69.179H563.419V74.6084H563.283V79.9296H563.25V85.1436H563.824V90.4649H564.13V95.7861H564.3V101.216H564.231V106.537H564.197V111.751H567.857V117.18H567.145V122.501H567.111V127.823H566.977V133.144H566.943V138.358H567.043V143.679H567.111V149H567.213V154.43H567.111V159.752H566.977V165.073H566.808V170.286H568.941V175.608H569.213V186.251H569.245V191.572H569.279V196.894H569.449V202.216H569.497V196.894H569.632V191.572H569.769V180.93H569.972V175.716H569.836V170.286H571.971V165.073H571.87V159.752H571.801V154.43H571.699V149H571.836V143.679H571.971V138.466H571.937V133.037H572.005V127.823H571.767V122.393H572.106V117.18H571.598V111.751H573.969V106.43H574.818V101.107H574.952V95.7861H575.088V90.4649H575.257V85.2513H575.19V79.8215H575.597V74.6084H575.529V69.179H575.698V63.8577H575.903V58.6437H575.698V53.3225H575.63V48.0012H575.529V42.5718H575.664V37.2505H575.802V32.0366H575.698V26.7153H575.664V21.394H575.428V15.9646H575.802V10.6425H577.225V15.9646H577.601V21.394H577.363V26.7153H577.329V32.0366H577.225V37.2505H577.363V42.5718H577.498V48.0012H577.397V53.3225H577.329V58.6437H577.124V63.8577H577.329V69.179H577.498V74.6084H577.43V79.8215H577.836V85.2513H577.77V90.4649H577.939V95.7861H578.074V101.107H578.209V106.43H579.057V111.751H581.428V117.18H580.921V122.393H581.259V127.823H581.022V133.037H581.089V138.466H581.055V143.679H581.191V149H581.327V154.43H581.225V159.752H581.156V165.073H581.055V170.286H583.191V175.716H583.055V180.93H583.257V191.572H583.395V196.894H583.529V202.216H583.61V196.894H583.781V191.572H583.882V186.359H583.814V180.93H583.882V175.608H584.289V170.286H585.949V165.073H585.881V159.644H585.915V154.43H585.881V149H585.915V143.679H586.152V138.466H586.05V133.037H586.152V127.823H586.05V122.393H586.39V117.18H586.254V111.859H586.084V106.43H589.269V101.216H589.235V95.7861H589.371V90.4649H589.404V85.2513H589.202V79.8215H589.812V69.2871H589.744V63.8577H590.153V58.6437H589.777V42.5718H589.812V37.3583H589.744V31.9284H589.777V26.7153H589.744V16.0724H589.575V10.7507H588.83V5.32126H592.425V10.7507H591.68V16.0724H591.51V26.7153H591.476V31.9284H591.51V37.3583H591.442V42.5718H591.476V58.6437H591.102V63.8577H591.51V69.2871H591.442V79.8215H592.052V85.2513H591.848V90.4649H591.882V95.7861H592.018V101.216H591.984V106.43H595.168V111.859H595V117.18H594.865V122.393H595.202V127.823H595.102V133.037H595.202V138.466H595.102V143.679H595.338V149H595.372V154.43H595.338V159.644H595.372V165.073H595.305V170.286H596.965V175.608H597.373V180.93H597.439V186.359H597.373V191.572H597.473V196.894H597.642V202.216H597.69V196.894H597.759V191.572H597.86V186.251H597.894V180.93H597.995V175.608H598.538V170.286H600.334V165.073H600.062V159.644H600.096V154.43H600.062V149.109H600.028V143.679H600.266V133.037H600.334V127.823H600.231V122.393H600.604V117.18H600.401V111.859H600.266V106.537H599.757V101.107H603.147V95.7861H603.553V90.573H603.519V85.2513H603.484V79.9296H603.315V74.5002H603.858V69.179H603.926V63.8577H604.097V58.6437H603.926V53.3225H603.722V48.0012H603.688V42.5718H603.755V37.2505H603.892V32.0366H603.755V26.6072H604.029V21.394H603.586V10.6425H603.654V5.32126H605.827V10.6425H605.895V21.394H605.452V26.6072H605.726V32.0366H605.589V37.2505H605.726V42.5718H605.793V48.0012H605.759V53.3225H605.555V58.6437H605.384V63.8577H605.555V69.179H605.623V74.5002H606.165V79.9296H605.995V85.2513H605.961V90.573H605.927V95.7861H606.334V101.107H609.723V106.537H609.214V111.859H609.08V117.18H608.876V122.393H609.25V127.823H609.147V133.037H609.214V143.679H609.452V149.109H609.418V154.43H609.384V159.644H609.418V165.073H609.147V170.286H610.943V175.608H611.486V180.93H611.586V186.251H611.62V191.572H611.721V196.894H611.79V202.323H611.755V207.537H612.007V202.323H611.872V196.894H611.973V191.572H612.041V181.037H611.973V175.608H612.516V170.286H614.209V165.073H614.175V159.644H614.209V154.43H614.175V149.109H614.142V143.679H614.379V133.037H614.447V127.715H614.515V122.393H614.685V117.18H614.515V111.859H614.379V106.43H614.786V101.107H617.123V95.7861H617.666V90.4649H617.767V85.2513H617.598V79.9296H617.428V74.5002H617.835V69.179H617.971V58.5364H618.143V53.2143H618.176V48.0012H617.835V42.5718H618.005V37.3583H617.937V32.0366H617.835V26.7153H617.801V21.394H617.598V16.0724H617.496V10.6425H617.869V5.32126H619.839V10.6425H620.211V16.0724H620.109V21.394H619.905V26.7153H619.873V32.0366H619.771V37.3583H619.704V42.5718H619.873V48.0012H619.532V53.2143H619.566V58.5364H619.737V69.179H619.873V74.5002H620.278V79.9296H620.109V85.2513H619.939V90.4649H620.043V95.7861H620.584V101.107H622.922V106.43H623.329V111.859H623.193V117.18H623.024V122.393H623.193V127.715H623.259V133.037H623.329V143.679H623.565V149.109H623.531V154.43H623.497V159.644H623.531V165.073H623.497V170.286H625.192V175.608H625.733V181.037H625.666V191.572H625.733V196.894H625.836V202.323H625.699V207.537H626.053V202.216H626.12V196.894H626.223V191.572H626.257V186.251H626.324V175.608H627.069V170.286H628.289V164.965H628.56V159.752H628.391V149.109H628.221V143.679H628.425V138.358H628.459V133.037H628.594V127.715H628.764V122.393H628.832V117.18H628.662V111.859H628.594V106.537H628.324V101.107H632.051V95.8943H631.813V90.4649H631.914V85.2513H631.779V79.9296H631.711V74.5002H632.084V69.179H632.118V63.8577H632.256V48.0012H632.152V42.5718H632.323V37.3583H632.118V32.0366H631.779V26.6072H631.813V21.2859H631.88V10.6425H632.29V5.32126H632.323V0H633.612V5.32126ZM639.949 218.179H639.963V212.966H639.949V218.179ZM499.051 191.572H499.065V186.359H499.051V191.572ZM301.295 170.395H301.226V180.93H301.295V186.251H301.343V159.752H301.295V170.395ZM273.033 170.395H273V175.608H273.067V180.93H273.081V175.608H273.115V159.752H273.033V170.395ZM287.147 175.608H287.18V180.93H287.263V170.395H287.194V159.752H287.147V175.608ZM315.374 180.93H315.456V175.608H315.557V165.073H315.374V180.93ZM329.386 175.608H329.487V180.93H329.569V175.608H329.603V170.286H329.705V165.073H329.386V175.608ZM258.954 175.608H259.036V170.395H258.954V175.608Z" fill="#2C2824"/>
<path d="M1113.88 42.6799H1113.84V53.3225H1113.74V58.6437H1113.67V63.8577H1113.81V69.2871H1113.54V74.5002H1113.71V79.9296H1113.54V85.2513H1113.47V90.573H1113.33V95.8943H1113.26V101.107H1113.74V106.537H1113.64V117.18H1112.01V106.537H1111.91V101.107H1112.38V95.8943H1112.32V90.573H1112.18V85.2513H1112.11V79.9296H1111.94V74.5002H1112.11V69.2871H1111.84V63.8577H1111.98V58.6437H1111.91V53.3225H1111.8V42.6799H1111.77V37.2505H1113.88V42.6799Z" fill="#2C2824"/>
<path d="M1142.04 37.3583H1141.97V42.5718H1142.14V48.0012H1142.04V53.2143H1142.07V58.6437H1141.9V63.8577H1142.07V69.2871H1141.97V74.6084H1141.66V79.8215H1141.93V85.2513H1141.69V90.573H1141.56V95.8943H1141.36V101.107H1141.39V106.43H1141.73V117.18H1140.37V106.43H1140.71V101.107H1140.75V95.8943H1140.54V90.573H1140.41V85.2513H1140.17V79.8215H1140.44V74.6084H1140.13V69.2871H1140.03V63.8577H1140.2V58.6437H1140.03V53.2143H1140.07V48.0012H1139.96V42.5718H1140.13V37.3583H1140.07V31.9284H1142.04V37.3583Z" fill="#2C2824"/>
<path d="M1156.35 37.3583H1156.25V42.5718H1156.32V48.0012H1156.01V53.2143H1156.25V58.6437H1156.05V63.9658H1155.88V74.5002H1156.01V79.8215H1156.05V85.2513H1155.84V90.573H1155.77V95.8943H1155.33V101.107H1155.5V106.43H1155.77V111.751H1156.01V117.18H1154.31V111.751H1154.55V106.43H1154.83V101.107H1155V95.8943H1154.55V90.573H1154.49V85.2513H1154.28V79.8215H1154.31V74.5002H1154.45V63.9658H1154.28V58.6437H1154.08V53.2143H1154.31V48.0012H1154.01V42.5718H1154.08V37.3583H1153.98V31.9284H1156.35V37.3583Z" fill="#2C2824"/>
<path d="M436.804 37.3583H436.568V48.0012H436.534V53.3225H436.364V58.6437H436.195V63.9658H434.564V58.6437H434.395V53.3225H434.224V48.0012H434.191V37.3583H433.954V31.9284H436.804V37.3583Z" fill="#2C2824"/>
</svg>
